<svg xmlns="http://www.w3.org/2000/svg" viewBox="0 0 311.81 311.81"><defs><style>.cls-1{fill:#fff;}.cls-2{fill:#657064;}.cls-3{fill:#3c3c3b;}.cls-4{fill:#e63323;}.cls-5{fill:#c3c6c0;}.cls-6{fill:#ef7c53;}</style></defs><g id="Calque_2" data-name="Calque 2"><g id="Calque_1-2" data-name="Calque 1"><rect class="cls-1" width="311.81" height="311.81"/><path class="cls-2" d="M155.9,33.19a93.73,93.73,0,0,0-53.68,171.2l1.37-2.09a91.25,91.25,0,1,1,101.42.94l1.37,2.09A93.73,93.73,0,0,0,155.9,33.19Z"/><path class="cls-3" d="M132.43,245.58a5.88,5.88,0,0,1,2.36-.93s0-.08,0-.09c-.18-1.6-1.42-1.43-2.23-1.16,0,0,0,0,0,0s0-.72,0-.89a.05.05,0,0,1,0-.05,4.36,4.36,0,0,1,3.35.07c.67.35,1.06.86,1.41,2.4.1.42.21,1,.53,2.27.14.61.31.84.64.78,0,0,0,0,0,0v.81c0,.1,0,.1,0,.1h-.93a2,2,0,0,1-1.52-.58,3.21,3.21,0,0,1-3.08.41A1.89,1.89,0,0,1,132.43,245.58Zm3,2.08s.1-.06.09-.11l-.53-1.88a.07.07,0,0,0-.08,0C133.57,246.09,134.05,248.44,135.45,247.66Z"/><path class="cls-3" d="M145.05,242.12a1.15,1.15,0,1,0,0-2.24,1.15,1.15,0,1,0,0,2.24Z"/><path class="cls-3" d="M149.86,246.51c-.05,0-.11,0,0,.19a1.64,1.64,0,0,0,1.88,1.3,3.45,3.45,0,0,0,1.09-.33c.17-.09.14,0,.14.08v.79c0,.13,0,.17-.22.25a5,5,0,0,1-3.81-.09,3.44,3.44,0,0,1-1.76-3.15,3.21,3.21,0,0,1,3.58-3.3,3.09,3.09,0,0,1,3,3c0,.08,0,.19-.06.23S149.9,246.48,149.86,246.51Zm1.35-1.28s.21,0,.2-.25a2.34,2.34,0,0,0-.35-1.26.7.7,0,0,0-1.26.19,3.89,3.89,0,0,0-.21,1.58c0,.15,0,.15.17.12Z"/><path class="cls-3" d="M131.13,248.33a.93.93,0,0,0,.09.48s0,0,0,0h-.47l-2,0a0,0,0,0,1,0,0,1.22,1.22,0,0,0,.09-.47V248l0-3v-.56a.64.64,0,0,0-.64-.67.87.87,0,0,0-.82.91v1.11l0,2.22v.27a1,1,0,0,0,.09.47s0,0,0,0h-.47l-2,0s0,0,0,0a1.46,1.46,0,0,0,.1-.48v-.16l0-3.12v-.56a.65.65,0,0,0-.63-.68.89.89,0,0,0-.83.92V245c0,.75,0,2.59,0,3.13v.18a1,1,0,0,0,.09.47c0,.05,0,0,0,0H121.2s0,0,0,0a1.38,1.38,0,0,0,.1-.47V248l0-4.51a1.17,1.17,0,0,0-.09-.44,0,0,0,0,1,0-.06L123.6,242s0,0,0,0c0,.2,0,.45,0,.59v.5s0,0,.05,0l0-.05c.81-1.22,3.31-1.39,3.68.08a0,0,0,0,0,0,0,2.19,2.19,0,0,1,2-1c2,0,1.69,1.72,1.68,2.76l0,3.1Z"/><path class="cls-3" d="M141.51,248.44a.78.78,0,0,0,.09.47s0,0,0,0H141l-2,0s0,0,0,0a1.31,1.31,0,0,0,.1-.46v-.18c0-.78,0-4.1,0-4.41a2.45,2.45,0,0,0-.13-.56s0-.05,0-.05,1.06-.53,2.52-1.18c0,0,0,0,0,0,0,.19,0,.51,0,.65s0,.36,0,.4a0,0,0,0,0,.05,0s0,0,0-.06a1.72,1.72,0,0,1,2.07-.91c.08,0,.07,0,0,.15l-.37,1.49c0,.07,0,.1-.13.08-.83-.18-1.74.08-1.75,1.11v.15l0,3.11Z"/><path class="cls-3" d="M146.29,248.49a.87.87,0,0,0,.08.46c0,.05,0,0,0,0h-.6l-1.95,0s-.05,0,0,0a1.22,1.22,0,0,0,.09-.47v0c0-.78,0-4.61,0-5.09,0-.12,0-.12.09-.16s0,0,0,0l2.26-1s.07,0,.07,0c0,.2-.05,5.79-.06,6.32Z"/><path class="cls-3" d="M161.09,248a1.57,1.57,0,0,1-2-.29,3.19,3.19,0,0,1-.75-2.19c0-2.15,1.52-2.42,2.65-1.78v-1.1a4.06,4.06,0,0,0-2.12-.34,3.41,3.41,0,0,0-3,3.56c0,2,1.21,4.33,5.21,3.27Z"/><path class="cls-3" d="M164.22,248.41s.07-8.54.08-8.49l-2.7,1.22c.09.08.28.41.27,1.49l0,2.74c0,.79,0,2.29,0,3.48a1.06,1.06,0,0,1-.09.32l2.67,0A7.37,7.37,0,0,1,164.22,248.41Z"/><path class="cls-3" d="M165.7,245.67a3.87,3.87,0,0,1,1.75-.69l.51-.09s0,0,0,0c-.1-1.75-1.51-1.6-2.29-1.32,0,0,0,0,0,0s0-.75,0-.93a.07.07,0,0,1,0-.06,4.55,4.55,0,0,1,3.39.1,2.54,2.54,0,0,1,1.29,1.71s.66,3.16.74,3.5.23.52.51.52c.11,0,.13,0,.12.14v.75c0,.08,0,.1-.06.1h-1a2.06,2.06,0,0,1-1.61-.62,3,3,0,0,1-3.06.38A1.94,1.94,0,0,1,165.7,245.67Zm1.54,1.08a1.31,1.31,0,0,0,.3,1.22,1,1,0,0,0,1.13.06c.05,0,.07,0,.06-.09l-.55-2.09h0A1.35,1.35,0,0,0,167.24,246.75Z"/><path class="cls-3" d="M173.7,242.31a1.19,1.19,0,1,0,0-2.33,1.19,1.19,0,1,0,0,2.33Z"/><path class="cls-3" d="M174.89,248.76v.14a1,1,0,0,0,.1.4h-.68l-2.08,0s0,0,0,0a1.09,1.09,0,0,0,.11-.4v-.14c0-.81,0-4.79,0-5.28,0-.12.06-.13.06-.13s.94-.46,2.46-1.15c0,0,0,0,0,0C175,242.41,174.89,248.2,174.89,248.76Z"/><path class="cls-3" d="M180.35,244.2a2.57,2.57,0,0,0-1.07.06,1,1,0,0,0-.68.93v.29l0,3.32v.13a.87.87,0,0,0,.11.39,0,0,0,0,1,0,0H178l-2,0s0,0,0,0a.91.91,0,0,0,.11-.39v-.14c0-.79,0-4.42,0-4.74a1.8,1.8,0,0,0-.1-.45s0-.05,0-.05l2.53-1.13s0,0,0,0v1s0,0,.06,0l0-.05a1.75,1.75,0,0,1,2.06-.87c.09,0,.07,0,.05.16s-.34,1.34-.36,1.43S180.44,244.2,180.35,244.2Z"/><path class="cls-3" d="M183,247s-.11,0,0,.19a1.63,1.63,0,0,0,1.88,1.3,3,3,0,0,0,1.09-.33c.17-.08.14,0,.14.09V249c0,.12,0,.17-.22.25a5.05,5.05,0,0,1-3.8-.09,3.43,3.43,0,0,1-1.77-3.16,3.22,3.22,0,0,1,3.58-3.3,3.1,3.1,0,0,1,3,3c0,.07,0,.18-.07.22Zm1.35-1.28c.05,0,.22,0,.2-.24a2.34,2.34,0,0,0-.35-1.26c-.33-.46-.94-.48-1.26.19a3.86,3.86,0,0,0-.21,1.57c0,.15,0,.16.17.13Z"/><path class="cls-4" d="M159.17,247l.24,0v.05l.4.11v0h.08L160,247l.09,0,.06-.15h0c0-.07.05-.14.07-.2h0s0-.06,0-.1l.13-.08a.43.43,0,0,1,0,0h.08l0-.09.22-.13c0-.1,0-.2.05-.3.35-.06.57-.59.88-.77a1.61,1.61,0,0,0,0-.62l-.07-.06s0-.07,0-.1h0c0-.11,0-.21,0-.32h0s0-.07,0-.1h0a.88.88,0,0,1,0-.16l-.33,0a.91.91,0,0,1-.17.34l-.09,0a.34.34,0,0,1,0,.1l-.09,0a.31.31,0,0,1,0,.1l-.09,0s0,.07,0,.1l-.14.09s0,.07,0,.1l-.14.09s0,.07,0,.1-.16.11-.24.23h-.08a.84.84,0,0,1-.17.34l-.13,0c-.05.07,0,.16-.06.2h-.09l-.14.19h0s0,.07,0,.11h0l0,.21-.18.13a1.07,1.07,0,0,0,0,.62C159.16,246.9,159.16,247,159.17,247Zm12.7,1.15-.3-.55-.2,0v0h0a.07.07,0,0,0,0-.05h-.12l-.22.38h-.08l0,.21-.09,0c0,.07,0,.19-.11.24l-.13,0,0,.25h0c0,.09,0,.17-.08.25h-.08c-.07.21-.19.24-.26.44l-.08,0,0,.16-.31.21-.1.15-.21,0v.05h0a1,1,0,0,1-.17.34h-.08c-.14.47-.26.23-.48.45l-.06.15-.13.08-.13.3-.12,0-.07.14-.21.08,0,.2c-.13,0-.16.1-.3.11a1,1,0,0,0,0,.16.56.56,0,0,0-.52.45H167l-.1.14h-.08s0,0,0,0l-.13.09a.77.77,0,0,0,0,.15h0c-.14.16,0,0-.17.08a.13.13,0,0,1,0,.06l-.12,0-.06.15-.25.07c-.08.19-.13.11-.24.22s-.11.17-.16.24h-.08l-.1.1-.07,0a.11.11,0,0,0,0,.05h-.08a.11.11,0,0,0,0,0l-.14.09L165,254c-.11.11-.09.13-.18.36l-.26.07c-.09.24-.05,0-.18.13l-.06.1h0s0,.07,0,.1l-.14.09v0c-.11.05-.2,0-.29,0l-.25.27-.25.07v.06l-.08,0-.06.1-.21,0v.05l-.17,0a.07.07,0,0,1,0,0h-.12a.11.11,0,0,1,0,.05l-.12,0v.06l-.13,0v.05l-.12,0v.05l-.16,0a.11.11,0,0,0,0,.05l-.28,0v0c-.1,0-.2-.39-.29-.41a.11.11,0,0,1,0,0c-.09-.12,0-.12-.19-.18a.61.61,0,0,1,.07-.14c.13,0,.28,0,.33-.14l.21,0,.15-.18h0s0-.07,0-.1l.23-.18s0-.07,0-.1a.72.72,0,0,0,.3-.11.41.41,0,0,0,0-.11l.1-.09.13,0s0-.07,0-.1l.09-.05a.06.06,0,0,1,0,0h.12l.1-.14h0s0-.06,0-.1l.19-.13.06-.15.08,0a.13.13,0,0,1,0-.06h.08a.41.41,0,0,1,.05-.09l.13,0a.77.77,0,0,1,0-.15l.13-.09c0-.09.09-.19.13-.29h0l.06-.09h.08a.47.47,0,0,0,.05-.1,1.29,1.29,0,0,0,.41-.52l.17,0,0-.15.28-.23a.31.31,0,0,0,0-.1l.28-.22s0-.07,0-.1l.13-.09c0-.05,0-.1,0-.15h0l.06-.14h.09c.06-.25.07-.14.2-.29h0c0-.1,0-.2.08-.3l.09,0a.64.64,0,0,0,.17-.39h.08c0-.12,0-.24.05-.36l.14-.09a3.71,3.71,0,0,0,0-.82l-.12-.07c0-.16,0-.13,0-.21a.07.07,0,0,1,0,0l-.09,0s0-.25-.07-.29,0-.07,0-.1a.37.37,0,0,0-.17,0s0-.07,0-.11-.32-.16-.48-.11v.05h-.08a.09.09,0,0,0,0,0h-.08c-.18.08-.21.35-.47.32a.38.38,0,0,1-.2.24.11.11,0,0,1,0,.05l-.12,0-.12.3h0l-.05.1-.13,0v0h0a.77.77,0,0,0,0,.15h-.13v0c-.24,0-.13.15-.25.33l-.31.16a.78.78,0,0,0,0,.16h-.05a.34.34,0,0,1,0,.1l-.09,0s0,.07,0,.1h0a.43.43,0,0,0,0,0l-.11-.07-.15.19h0l0,.2-.18.13a.77.77,0,0,0,0,.15l-.31.12,0,.25h0l-.06.09c-.06.05-.09,0-.17.08h0s0,.11,0,.16h0a.42.42,0,0,0-.07.2c-.17,0-.23.19-.37.26s-.1.18-.15.35a.74.74,0,0,0-.31.14.77.77,0,0,1,0,.15l-.13.09s0,.07,0,.1l-.09,0v.05l-.09,0c0,.05,0,.11,0,.16h0a.34.34,0,0,0,0,.1h0l-.09.35-.09,0a.58.58,0,0,0-.17.34h-.08c0,.12,0,.24,0,.36s0,0-.09,0a1.27,1.27,0,0,0-.16.6.61.61,0,0,0-.43.41c-.16,0-.23.13-.39.15-.09.24-.05,0-.18.13l-.1.15h0s0,.07,0,.1l-.34.12-.06.14-.17,0-.06.2-.21,0a1.59,1.59,0,0,0-.07.2l-.2,0c-.09.24,0,0-.19.13l-.14.19-.17,0-.06.1-.25.07-.06.09-.17,0v0l-.17,0a.11.11,0,0,0,0,.05h-.12a.43.43,0,0,0,0,0h-.08a.09.09,0,0,1,0,.05l-.12,0v.05l-.29,0c-.05,0-.38.1-.46.05a.11.11,0,0,0,0-.05.3.3,0,0,0-.19-.13c0-.05,0-.11,0-.16a.68.68,0,0,0,.28-.23s0-.06,0-.1.11,0,.17,0v0h0a.77.77,0,0,1,0-.15h.08a.07.07,0,0,1,0,0l.36-.27c0-.05,0-.1,0-.15h0l.05-.1h.09v-.05h.09c.09-.25.14-.11.23-.23a1.46,1.46,0,0,0,.07-.19.67.67,0,0,1,.14-.09v-.05h.08a.09.09,0,0,0,0-.05l.09,0a.77.77,0,0,1,0-.15l.13,0,.3-.43H158l.13-.34.18-.13s0-.07,0-.1h0s0-.07,0-.1l.14-.09a.09.09,0,0,1,0-.05h.07l.06-.1h0s0-.07,0-.1h0s0-.07,0-.1l.09,0,.06-.2.09,0a1.59,1.59,0,0,1,.07-.2l.12,0c0-.12.09-.23.13-.35s.13-.07.22-.12.06-.2.08-.3.12-.05.19-.13h0a.77.77,0,0,1,0-.15h0s0-.06,0-.1h0s0-.1,0-.15h0s0-.07,0-.1l.13,0V251l.14-.08s0-.07,0-.11h0a.77.77,0,0,0,0-.15h0l0-.2h0s0-.1,0-.15h0s0-.07,0-.1l.08-.05a1.46,1.46,0,0,0,.07-.19l.09,0,0-.26a1.13,1.13,0,0,0,.07-.51h0a.31.31,0,0,0,0-.1h0a.34.34,0,0,1,0-.1h0s0-.07,0-.1h0c0-.11,0-.12-.05-.21a.09.09,0,0,1,0-.05l-.09,0c-.07-.15-.13-.3-.19-.44a1.12,1.12,0,0,0-.7,0v.05h-.09v.05l-.12,0c-.07.08-.13.16-.2.23h-.12a.43.43,0,0,0,0,.05h-.08a.7.7,0,0,0-.29.32h-.08c0,.23-.09.21-.17.34s0,0-.12,0c-.12.25-.16.28-.38.36l-.09.35a.71.71,0,0,0-.45.57l-.08,0c0,.13,0,.08-.1.15v.05h-.09a1,1,0,0,0-.27.53c-.24,0-.14.21-.3.32l-.12,0a1,1,0,0,0,0,.16l-.14.08s0,.07,0,.1l-.18.08-.15.51-.09,0a.74.74,0,0,0-.27.53l-.17,0-.09.3-.08,0a.7.7,0,0,0-.19.49c-.09,0,0,0-.09,0s0,.28-.14.45l-.14.09a1,1,0,0,0-.18.44h-.08c-.05.23-.11.51-.15.81h-.08l0,.2a.76.76,0,0,0-.35.16s0,.07,0,.11l-.13.08s0,.07,0,.1l-.08,0v.06h-.25l-.1.15c-.1.08-.14,0-.23.17h-.08a.77.77,0,0,0,0,.15.52.52,0,0,0-.38.06.41.41,0,0,0-.05.09h-.09a.31.31,0,0,1-.05.1l-.28,0-.11.19-.29,0a.41.41,0,0,1,0,.09h-.08l-.06.1h-.78c0-.06,0-.11,0-.16h0a.17.17,0,0,1,.06-.15c0-.18.05-.37.08-.55h0l0-.25h0c0-.17.08-.33.11-.5l.09,0a1.18,1.18,0,0,1,.07-.2l.08,0c.05-.24.1-.47.14-.71l.18-.13c0-.07,0-.14.07-.2h0c.06-.21.12-.43.17-.65l.23-.17.15-.45.08,0c.11-.13.1-.22.1-.41a.67.67,0,0,0,.11.07c.12-.21.26-.42.38-.62l.06-.2.33-.27c0-.08.07-.31.13-.4l.23-.17v-.26l.23-.18,0-.21.18-.13.24-.59.18-.13s0-.07,0-.1h0l.09-.36.22-.12.18-.45.08,0c.07-.15.13-.3.19-.45a.2.2,0,0,0,.08,0s0-.07,0-.1h0l0-.26.14-.09s0-.06,0-.1h0l.09-.35h0c0-.13,0-.11.14-.14l.09-.35.12,0c.06-.23.1-.2.17-.34a.77.77,0,0,0,0-.15h.05a.34.34,0,0,1,0-.1h0c0-.23.09-.47.14-.7h0s0-.07,0-.1h0a1.94,1.94,0,0,0,.11-.82c-.35-.15-.34-.52-.7-.67,0,.06-.11.06-.13.09s0,.07,0,.1h0c-.1.19.06.18-.16.24a2,2,0,0,1-.19.49c-.05.13,0,.12-.14.14s-.06.09-.06.09a2.91,2.91,0,0,1,0,.31l-.09,0a.34.34,0,0,1,0,.1h0c0,.11,0,.21,0,.31l-.18.13a.88.88,0,0,0,0,.16l-.14.08s0,.07,0,.1l-.09,0c-.07.19-.13.37-.2.55s-.1.1-.2.28h0s0,.06,0,.1h0l0,.16-.18.13a1.48,1.48,0,0,1,0,.21l-.13.09a.31.31,0,0,0,0,.1.35.35,0,0,0-.1.09h0l-.15.5-.22.13c0,.13-.07.27-.1.4l-.13.08-.06.15h0c0,.13-.07.27-.1.4l-.18.13c0,.1-.06.2-.08.3h0c-.11.24-.21.49-.31.74l-.13,0c-.08-.2-.16-.41-.25-.6H152a.52.52,0,0,1,0-.11l-.24-.09a.09.09,0,0,1,0-.05l-.16,0a.09.09,0,0,0,0,0h-.08l-.06.1h-.08a.11.11,0,0,1,0,0h-.08l-.27.22,0,.15h0s0,.07,0,.1h0s0,.07,0,.1-.15,0-.21.29c-.2,0-.38.24-.54.34h-.08l-.1.14h-.08l-.2.24h0s0,.07,0,.1-.2,0-.26.07l-.12.3s-.06,0-.09.09l-.25,0c0,.05,0,.1,0,.16l-.36.21-.06.14-.21,0v0a1.14,1.14,0,0,0-.31.47h-.09a.77.77,0,0,1,0,.15.8.8,0,0,0-.27.22h-.09c0,.11,0,.14-.1.19a.11.11,0,0,0,0,0l-.2,0-.06.14-.17,0c0,.1,0,0-.05.1a.11.11,0,0,1,0,0l-.16,0a1.15,1.15,0,0,0-.16.29.53.53,0,0,0-.34.11c-.18,0-.06,0-.15.13h0l-.06.15c-.17,0-.26.13-.43.15a.77.77,0,0,0,0,.15l-.25,0a2.5,2.5,0,0,1-.35.47.6.6,0,0,1-.43.1c0,.06-.05.13-.07.2a.41.41,0,0,0-.39.15l-.06.1h-.07l-.1.09h-.08v.05h-.08a.11.11,0,0,1,0,.05h-.08l-.53.55-.29.06V257l-.09,0c0,.06,0,.13,0,.2a1.11,1.11,0,0,1-.27.12v.05l-.17,0s0,.07,0,.1h-.12s0,.06,0,.1l-.12,0a1.71,1.71,0,0,1-.11.14h-.08a.31.31,0,0,1,0,.1l-.28,0a1.43,1.43,0,0,1-.31.12c.06-.17.13-.33.19-.5h0s0-.07,0-.1h0c0-.12,0-.24,0-.36l.28-.22s0-.07,0-.1h0c0-.12,0-.24,0-.36l.23-.18.06-.14.09-.05c0-.16.07-.33.11-.5l.09,0a.79.79,0,0,0,.18-.39h.08l.07-.25.14-.09,0-.25.14-.09a.77.77,0,0,1,0-.15h0a.78.78,0,0,1,0-.16h0c0-.05,0-.1,0-.16l.09,0a.38.38,0,0,1,0-.1h0a1.18,1.18,0,0,1,.07-.2h0l.06-.14.13-.09c0-.12,0-.24.05-.36l.09,0s0-.06,0-.1l.09,0s0-.07,0-.1l.13-.09c0-.11,0-.24,0-.35l.13-.09c0-.1,0-.2.05-.31h0s0-.07,0-.1l.09,0a1.08,1.08,0,0,0,.08-.61l0-.21-.38-.57H144v-.05c-.06-.08-.17-.25-.35-.2a.11.11,0,0,1,0,0h-.08v.05l-.21,0-.1.15h-.08a1.71,1.71,0,0,0-.11.14H143l-.62.64c-.18.17-.35.19-.47.45h-.08l-.08.26a.58.58,0,0,0-.3.06,1.41,1.41,0,0,0-.15.5.25.25,0,0,0-.31.21c-.25,0-.26,0-.33.27l-.26.07v.05l-.18.13s0,.07,0,.11a4.15,4.15,0,0,0-.32.27s0,.06,0,.09h-.12c0,.13-.07.11-.11.24-.28,0-.19.08-.33.27l-.09,0s0,.07,0,.11l-.13,0-.19.23c-.2.17-.29.09-.4.47-.37,0-.31.16-.5.4a1,1,0,0,1-.4.15l-.12.3-.17,0-.07.25a.45.45,0,0,0-.36.21h0a.44.44,0,0,1,0,.1l-.18.13s0,.07,0,.1l-.09,0a.09.09,0,0,1,0,.05h-.08v.05c-.2.1-.28,0-.38.31-.13,0-.16.1-.3.12s0,.13-.07.2a1.81,1.81,0,0,0-.63.12c-.08.09-.17.18-.25.28a1.4,1.4,0,0,0,0,.47h0v.37l.07.06s0,.07,0,.1h0a.41.41,0,0,1,0,.21c.16.06.33.18.52.12a.43.43,0,0,0,0-.05l.17,0v-.05h.09a.41.41,0,0,1,0-.09l.17,0v-.05l.09,0s0-.07,0-.11l.42-.36a1.36,1.36,0,0,1,0-.2l.16,0c.06-.15.11-.15.2-.23s0,0,0,0l.13,0a.77.77,0,0,1,0-.15,1,1,0,0,0,.71-.68l.16,0a.27.27,0,0,1,.28-.22c.09-.27.31-.3.47-.46l.16-.24H139l.05-.1.08,0a.11.11,0,0,0,0,0h.08l.1-.15h0l.06-.15h0s0-.07,0-.1l.09-.1h.08l.06-.14.23-.18L140,255H140a.41.41,0,0,0,.05-.09l.23-.18a1.18,1.18,0,0,0,.07-.2l.37-.31s0-.07,0-.1l.08,0L141,254H141l.19-.23.42-.36s0-.06,0-.1l.09,0,.1-.14h.08l.29-.33.09,0s0-.07,0-.11l.23-.17s0-.07,0-.11.17-.06.25-.27l.2,0a.68.68,0,0,1-.26.38l-.08,0s0,.07,0,.11h0s0,.07,0,.1h0a.77.77,0,0,0,0,.15h0l0,.16h0a.77.77,0,0,1,0,.15l-.27.23a3.09,3.09,0,0,0-.14.4c-.08,0,0,0-.09,0a.62.62,0,0,0-.13.39h-.08a.09.09,0,0,0,0,.05,1.68,1.68,0,0,0-.25.33l-.14.09s0,.07,0,.1h0c-.08.16,0,.37,0,.47l-.09,0a1.23,1.23,0,0,0-.24.54c-.17,0,0,0-.14.14h0s0,.07,0,.1l-.27.17c0,.24-.07.48-.1.72-.21,0-.19.21-.31.42h0s0,.07,0,.1h0v.31l-.09,0s0,.07,0,.1l-.13.08s0,.07,0,.11h0l0,.21c0,.08,0,.16-.07.24h0c0,.14,0,.28,0,.41s.1.08.15.18h0c0,.09,0,.16,0,.21h.08c0,.19.06.26.07.43.18.05.5.27.75.2V260l.12,0,.06-.1.12,0a.43.43,0,0,1,0,0,.27.27,0,0,1,.18-.08.88.88,0,0,1,0-.16c.16,0,.24-.1.42-.1l.06-.14h.08c.07-.18.17-.2.25-.33h.09a.77.77,0,0,1,0-.15c.19,0,.23-.06.35-.16l.05-.1c.08,0,.18,0,.26-.07s0-.07,0-.1l.1-.1.08,0,.1-.15h.08a.11.11,0,0,1,0-.05l.18-.13s0-.07,0-.1h0l.1-.15.09,0a1.3,1.3,0,0,1,.1-.15h.08a.41.41,0,0,0,.05-.09h.09v-.05l.13,0a.41.41,0,0,0,.05-.09h.09a1.3,1.3,0,0,1,.1-.15l.08,0,.15-.24h.08l.11-.15.08,0c.07-.3.23-.22.38-.37s.2-.32.31-.48l.16,0,.25-.33.16,0a3.33,3.33,0,0,1,.25-.28l.16,0s0,.07,0,.1l-.16,0a2.91,2.91,0,0,0,0,.31l-.18,0c0,.1,0,.2-.08.3-.31,0-.14.09-.28.27s-.11,0-.18.13h-.08c-.07.18-.14.36-.2.55l-.08,0a1.34,1.34,0,0,1-.52.77,3.46,3.46,0,0,0-.07.87l.21.29s0,.06,0,.1.19.15.23.33c.22.09.19,0,.51,0,.09-.26.33,0,.52-.13h.15c.18-.2.25-.2.43-.4l.21,0a.07.07,0,0,1,0-.05l.08-.05s0-.06,0-.1h0l.05-.1c.09-.06,0,.06.14-.08h.08s0-.07,0-.1l.19-.14s0-.06,0-.1l.18-.13a.09.09,0,0,1,0-.05h.08a.31.31,0,0,0,.05-.1l.08,0,.15-.19.09-.05s0-.06,0-.1l.08,0a.43.43,0,0,0,0-.05l.17,0,.3-.38h.08L149,257h0c0-.09.05-.17.08-.25l.13-.09v-.05h.08l.1-.14c.15-.1.16,0,.24-.28h.09L150,256h0s0-.07,0-.1h.12c0,.22-.08.44-.13.66h.05c0,.18-.05.34-.07.51l.1.12c0,.18,0,.35,0,.52l.14.18,0,.2h0c.06.11.11.22.16.33h.09c.05.11.1.22.16.33l.34.21a.11.11,0,0,1,0,.05,2,2,0,0,0,.92,0l.05-.09h.08l.1-.14.43-.1.15-.24.17,0v-.05H153l.06-.1.25-.07.06-.09h.08l.34-.37h.08l.29-.33.08,0a.07.07,0,0,1,0,0c.1-.06.05,0,.13-.09.26.08.29.41.46.58,0,0,0,.07,0,.1a.42.42,0,0,1,.3.2l0,.11.9.06a.41.41,0,0,1,.05-.09l.28,0,.15-.18.13,0a.31.31,0,0,1,0-.1h.08a.07.07,0,0,1,0-.05l.38-.1.24-.29.17,0,.29-.33H158l.09-.09h.09v-.05h.08a.09.09,0,0,0,0,0h.08l.2-.23.17,0c.11-.12.22-.25.34-.37l.2,0,.44-.47.16,0,.24-.27.29,0c0,.11.1.23.16.34s0,.07,0,.1l.08.06a.43.43,0,0,1,0,.11l.13,0a.66.66,0,0,1,.24.34c.2,0,.35.17.5.1,0,.2.27.21.29.17s.14.06.25.08a.13.13,0,0,1,0-.06l.17,0V257h.12s0,0,0,0h.37a.47.47,0,0,0,.05-.1l.13,0a.43.43,0,0,1,0-.05h.37l.15-.18h.08l.06-.1h.08v0h.09v-.05l.12,0,.06-.1H164l.19-.23.47-.09.1-.15a1,1,0,0,1,.58-.33.88.88,0,0,0,0-.16l.13,0a.11.11,0,0,0,0,0h.08a.47.47,0,0,0,.05-.1h.09s.24-.14.27-.17,0-.07,0-.1l.18-.13a.43.43,0,0,1,0,0c.07-.05.35-.09.39-.16s0-.19.08-.25h.08l.19-.23H167c0-.06,0-.13.08-.19l.2,0c0-.07.12-.33.13-.4s.09,0,.15-.11.16-.11.21-.28h.12s0-.1,0-.15a.77.77,0,0,0,.3-.11.93.93,0,0,0,.05-.1l.14,0a.77.77,0,0,1,0-.15l.08,0s0,0,0,0c.19-.19.39-.2.49-.56H169l.15-.18.13,0a.34.34,0,0,1,0-.1h0l0-.2a.93.93,0,0,1,.36-.21,3,3,0,0,1-.11.76h0l0,.51c-.05.33-.11.65-.17,1,0,0,0,.21-.08.22a.15.15,0,0,0,0,.16l0,.2h0v.31h0a1.38,1.38,0,0,1-.17.66l-.24,0a1.09,1.09,0,0,0-.15-.43h-.08l-.09-.22h-.09a.13.13,0,0,0,0-.06c-.07-.07-.09,0-.15-.12l-.32,0s0,0,0,.05,0,0-.1.14h0c0,.08,0,.16,0,.25h0c-.05.26-.1.54-.15.81h0a1.49,1.49,0,0,1,0,.21h0a.59.59,0,0,0,.28.35,1.86,1.86,0,0,0,.05.27c.07.05.15,0,.24.08a.11.11,0,0,0,0,.05l.2,0,0,.1.12,0a.07.07,0,0,1,0,.05l.16,0v0l.15.08,0,.11H169v0h.08l0,.11h.08v.05l.15.07a.09.09,0,0,1,0,.05h.09a.11.11,0,0,0,0,.05l.2,0a.09.09,0,0,1,0,0c.25,0,.35-.15.53-.24,0-.19.05-.37.08-.56h-.09c0-.36.07-.72.11-1.08h0l0-.25h0c.07-.38.13-.75.19-1.12a7.22,7.22,0,0,1,.12-1.36h0a.77.77,0,0,1,0-.15h0c0-.16,0-.31,0-.47h0s0-.07,0-.1l.08,0,.06-.46H171c.12-.54.23-1.08.35-1.62h0a1,1,0,0,1,0-.16h0s0-.07,0-.1h0c0-.1.05-.2.08-.3h0a.77.77,0,0,0,0-.15h.05c0-.17.1-.33.14-.5h0c0-.17,0-.35.06-.51Zm-9.53,4.64h0a1.5,1.5,0,0,0,0-.2l.18-.08c0-.07,0-.13.07-.2l.13,0L163,252h.08a.47.47,0,0,1,.07-.2l0-.05.13,0s0-.07,0-.1h0s0-.06,0-.1h0c.09-.15.08-.25.24-.28s0-.12.11-.2a.43.43,0,0,0,0,0h.08l.1-.14H164l.06-.09h0l.07-.25h.08l.06-.09.13,0a.38.38,0,0,1,0-.1h0c.09-.17,0-.14.15-.19.07-.29.11-.16.24-.28s.53-.64.75-.68a.09.09,0,0,0,0,0l.16,0a.83.83,0,0,1-.26.38l-.08,0-.09.3h0a.41.41,0,0,1,0,.09h-.08c-.06.05,0,.13-.07.2l-.13.09c-.05.11-.09.23-.13.34s-.19.15-.32.22,0,.1,0,.15c-.24.05-.09.08-.2.24l-.32.21-.12.3h0a.31.31,0,0,1-.05.1c-.07,0-.12,0-.17,0s-.05.13-.07.2l-.13,0-.2.29-.07-.06,0,.2c-.23,0-.18.2-.33.32a.07.07,0,0,0,0,.05l-.16,0-.25.33c-.08,0,0,0-.08-.06h0Zm-5.54.48c.17,0,.1-.09.23-.17s0-.21,0-.31c.22,0,.11-.06.2-.23h0c0-.06.05-.13.07-.2s.15-.07.19-.23h.08c0-.08,0-.16.08-.25h0c.09-.12.16-.13.21-.34l.08,0,.27-.44h.08a2.68,2.68,0,0,1,.13-.34l.16,0c0-.07.05-.14.07-.2h.08c.05-.12.09-.23.13-.35s.17-.09.31-.11a.77.77,0,0,1,0-.15c.15,0,.2-.08.27-.23l.17,0-.09.31c-.11,0-.11,0-.18.13h0s0,.1,0,.15l-.09,0a1,1,0,0,1,0,.16h0l-.05.09h-.08a1.23,1.23,0,0,0-.24.54.85.85,0,0,0-.31.17.34.34,0,0,0,0,.1l-.09,0s0,.07,0,.1-.13.08-.18.13h0c0,.1,0,.2-.08.3a.39.39,0,0,0-.33.32h-.08c-.08.29-.11.13-.25.28h0c0,.05,0,.1,0,.15h0s0,.07,0,.1l-.09,0,0,.2-.27.18a.77.77,0,0,1,0,.15h0s0,.07,0,.1h0l-.12.29a.48.48,0,0,0-.31.17h0A1.28,1.28,0,0,0,156.8,253.28Zm-6.26.26-.18.44-.28.22c0,.07,0,.13,0,.21h0v0l-.21,0c0,.09-.05.17-.08.25l-.16,0c-.05.14,0,.12-.14.14-.07.2-.17.28-.23.49a.76.76,0,0,0-.31.11c0,.05-.06.22-.11.25l-.16,0c-.06,0-.08.2-.12.25h0a.47.47,0,0,0,0,.1c-.09.06-.06,0-.14.09h-.08c0,.05,0,.1,0,.15h-.08l-.27.43-.16,0a1.85,1.85,0,0,1-.11.24,1.52,1.52,0,0,1-.21,0l-.12.3c-.18,0-.16.08-.27.17a.09.09,0,0,1,0,.05l-.12,0s0,.08,0,.11c-.15,0-.18,0-.23.17h-.08c0,.07-.05.14-.07.2h-.12a.9.9,0,0,1,.18-.45l.09,0,0-.25.22-.08c0-.05,0-.1,0-.15l.22-.13c0-.1,0-.2,0-.3l.52-.45s0-.1,0-.16,0,0,.09,0,.05,0,.14-.14h0a.31.31,0,0,0,0-.1l.23-.18,0-.2c.15,0,.25-.17.37-.26v0h.09c.09-.13.19-.25.29-.38H149c0-.08.05-.16.08-.25h.08s0-.06,0-.1l.28-.22v0l.13,0,.25-.39.09,0c.06-.27.09-.19.24-.28a.93.93,0,0,0,.05-.1h.08l.06-.1.08,0a.13.13,0,0,1,0-.06l.13-.08s0-.07,0-.11h0s0-.07,0-.1l.09,0s0-.07,0-.1h0a1.71,1.71,0,0,0,.11-.14H151a.09.09,0,0,0,0,0l.13,0c0-.05,0-.11,0-.16h0l.06-.1h.08l.15-.24c.16-.1.22,0,.36-.21h0l-.24.59-.09,0,0,.2-.09,0-.07.25a.27.27,0,0,0-.18.08c-.11,0-.09,0-.14.14h-.08l-.12.29-.17,0a.78.78,0,0,0,0,.16Zm-6-5.59.16,0s.09.29.12.33a1.41,1.41,0,0,0,.57.33c.09-.09.1,0,.18-.08l.15-.19h0s0-.07,0-.1l.09,0,.12-.3.09,0c0-.06,0-.13.07-.2l.17-.08,0-.15h0c0-.22,0-.3,0-.42l-.08-.07v-.31l-.24-.34h-.08a.43.43,0,0,1,0,0h-.08l0-.11h-.08a.07.07,0,0,1,0,0h-.08V246l-.11-.07-.39.42-.17,0a.07.07,0,0,1,0,0h0c0,.1-.05.2-.08.3l-.18.13,0,.21-.08,0a1.5,1.5,0,0,0-.12.56h.08Z"/><path class="cls-2" d="M155.82,41.51a85.43,85.43,0,1,0,84.62,86.26A85.53,85.53,0,0,0,155.82,41.51Zm-1.63,169.61a84.18,84.18,0,1,1,85-83.37A84.28,84.28,0,0,1,154.19,211.12Z"/><path class="cls-2" d="M103.21,103.07a5.94,5.94,0,0,0-2.12-1.5.78.78,0,0,0-.73,0,.92.92,0,0,0-.41.5l-.14.42a.88.88,0,0,0,.47,1.09,4,4,0,0,1,2,2.11,4.46,4.46,0,0,1-.19,2.82,3.74,3.74,0,0,1-2,2.41,5.29,5.29,0,0,1-3.68-.07l-1.85-.6c-.81-.28-1.41-.49-1.8-.64a5.31,5.31,0,0,1-2.95-2.19,3.76,3.76,0,0,1-.1-3.12A4.56,4.56,0,0,1,91.26,102a4.08,4.08,0,0,1,2.83-.48.85.85,0,0,0,1-.57l.15-.42a.86.86,0,0,0,0-.63.8.8,0,0,0-.55-.47,5.9,5.9,0,0,0-2.62-.11,5.35,5.35,0,0,0-2.61,1.31,6.87,6.87,0,0,0-1.87,3,5.66,5.66,0,0,0,.26,5,7.73,7.73,0,0,0,4,3.1l2,.7c.89.3,1.54.51,1.94.63a9.56,9.56,0,0,0,2.64.43,6.49,6.49,0,0,0,2.44-.42,5.7,5.7,0,0,0,3.23-3.76,6.87,6.87,0,0,0,.35-3.54A5.45,5.45,0,0,0,103.21,103.07Z"/><path class="cls-2" d="M115.34,87.66l-6.66-1a4.52,4.52,0,0,0,.16-2.66,5.18,5.18,0,0,0-1.93-2.71A4.79,4.79,0,0,0,103,80.06a5.82,5.82,0,0,0-3.47,2.34l-3.17,4a.8.8,0,0,0-.18.69.91.91,0,0,0,.36.58l11.9,9.36a1,1,0,0,0,.57.22h.09a.86.86,0,0,0,.6-.34l.25-.31a1,1,0,0,0,.2-.66.91.91,0,0,0-.36-.62l-4.66-3.67,2.41-3.06,6.81,1.06a2,2,0,0,0,.72,0,1.06,1.06,0,0,0,.67-.44l.17-.21a.79.79,0,0,0,.16-.63.87.87,0,0,0-.32-.57A1.07,1.07,0,0,0,115.34,87.66ZM105.56,83a2.71,2.71,0,0,1,1.2,2,3.88,3.88,0,0,1-1,2.48l-2.3,2.92-4.52-3.56,2.29-2.92a3.93,3.93,0,0,1,2.17-1.59A2.73,2.73,0,0,1,105.56,83Zm9.72,5.1Z"/><path class="cls-2" d="M115,67.15a.78.78,0,0,0,.44-.14l.28-.18a1.44,1.44,0,0,0,.38-.33,1.51,1.51,0,0,0,.23-.46l.89-3.07a.77.77,0,0,0-.12-.59.81.81,0,0,0-.53-.39.78.78,0,0,0-.61.14l-.85.55a1.52,1.52,0,0,0-.48.46,1.79,1.79,0,0,0-.16.63l-.21,2.4a.79.79,0,0,0,.13.61A.74.74,0,0,0,115,67.15Zm.22-.47Z"/><path class="cls-2" d="M129.49,77.41a1,1,0,0,0-.57-.43.87.87,0,0,0-.7.15L122,81.2l-2.91-4.45L124.75,73a.87.87,0,0,0,.27-1.26l-.19-.28a.89.89,0,0,0-.57-.43.85.85,0,0,0-.7.14l-5.69,3.72-2.79-4.26,6.1-4a.89.89,0,0,0,.26-1.26l-.19-.29a.92.92,0,0,0-.57-.43.86.86,0,0,0-.7.14l-7.19,4.7a.85.85,0,0,0-.39.6,1,1,0,0,0,.16.66l8.28,12.67a.88.88,0,0,0,.56.41,1.13,1.13,0,0,0,.18,0,.83.83,0,0,0,.5-.16L129.42,79a1,1,0,0,0,.4-.56.93.93,0,0,0-.14-.7ZM124.68,72Zm-3.58-6.35Zm.76,17.78Z"/><path class="cls-2" d="M147.91,71.58l-9.1-13.16a1,1,0,0,0-1.16-.45l-.73.18a1,1,0,0,0-.8,1l-1.7,16,0,.32a.92.92,0,0,0,.82.66.76.76,0,0,0,.21,0l.43-.11a.79.79,0,0,0,.52-.36,1,1,0,0,0,.16-.44l.39-3.64,7-1.79,2.08,3a1.07,1.07,0,0,0,.35.31.86.86,0,0,0,.63.07l.43-.11a.8.8,0,0,0,.52-.4.9.9,0,0,0,.06-.71Zm-5.27-3.79-5.4,1.37.84-8Z"/><path class="cls-2" d="M162.89,56.16l-10.07-.44a.84.84,0,0,0-.67.26,1,1,0,0,0-.26.64V57a.91.91,0,0,0,.21.65.87.87,0,0,0,.63.29l4,.18L156.08,72a.88.88,0,0,0,.21.66.85.85,0,0,0,.63.29l.4,0h0a.91.91,0,0,0,.62-.23.88.88,0,0,0,.29-.64l.61-13.87,3.92.17a.94.94,0,0,0,.66-.22.9.9,0,0,0,.29-.65l0-.35a.93.93,0,0,0-.22-.68A.92.92,0,0,0,162.89,56.16Z"/><path class="cls-2" d="M175.19,58.87l-.4-.12a.91.91,0,0,0-.69.07.93.93,0,0,0-.42.56L169.36,73.9a.89.89,0,0,0,0,.69A.85.85,0,0,0,170,75l.39.12a.93.93,0,0,0,.27,0,.81.81,0,0,0,.43-.11.94.94,0,0,0,.42-.55L175.78,60a.9.9,0,0,0,0-.69A.91.91,0,0,0,175.19,58.87Z"/><path class="cls-2" d="M195.14,70.19a6.63,6.63,0,0,0-7.6-4.73,7.39,7.39,0,0,0-4.13,3.34q-.39.58-1,1.65c-.45.71-.78,1.27-1,1.67-2.28,3.87-1.71,6.91,1.7,9a6.73,6.73,0,0,0,3.46,1.15c2,0,3.8-1.19,5.39-3.61.52-.77.87-1.32,1.07-1.63s.53-.88,1-1.68A7.36,7.36,0,0,0,195.14,70.19ZM192,74.34l-.92,1.56c-.15.25-.49.75-1,1.51a5.44,5.44,0,0,1-2.88,2.43h0a4.2,4.2,0,0,1-4.87-3,5.43,5.43,0,0,1,.92-3.66c.23-.4.54-.91.94-1.55s.72-1.15,1-1.53a5.41,5.41,0,0,1,2.89-2.42,3.71,3.71,0,0,1,.93-.12,4,4,0,0,1,2.09.67,3.71,3.71,0,0,1,1.83,2.47A5.44,5.44,0,0,1,192,74.34Z"/><path class="cls-2" d="M213.65,87.46a.87.87,0,0,0-.21-.68l-.24-.31a.82.82,0,0,0-.63-.34,1,1,0,0,0-.65.22l-8.94,7,4.74-13.12a.94.94,0,0,0-.13-.92L207.3,79a.84.84,0,0,0-.63-.34,1,1,0,0,0-.65.22l-11.89,9.36a1,1,0,0,0-.36.59h0a.87.87,0,0,0,.19.67l.25.32a.9.9,0,0,0,.6.34.85.85,0,0,0,.68-.2l8.91-7L199.68,96a.94.94,0,0,0,.14.92l.3.38a.85.85,0,0,0,.62.34h0a1,1,0,0,0,.61-.22l11.87-9.35A.93.93,0,0,0,213.65,87.46Z"/><path class="cls-2" d="M221.93,103.61a6.79,6.79,0,0,0-1.49-2.56,4.44,4.44,0,0,0-2.17-1.28,4.21,4.21,0,0,0-2.43.12,4.52,4.52,0,0,0-2,1.22,4,4,0,0,0-.92,2,15.58,15.58,0,0,0-.23,3,29.75,29.75,0,0,1-.09,3,3.76,3.76,0,0,1-.42,1.52,1.7,1.7,0,0,1-1,.76,2.25,2.25,0,0,1-2.09-.21,4.68,4.68,0,0,1-1.6-2.48,4.45,4.45,0,0,1-.19-2.88,2.56,2.56,0,0,1,1.26-1.55.87.87,0,0,0,.46-1.09l-.14-.42a.83.83,0,0,0-.45-.5.84.84,0,0,0-.66,0,4.06,4.06,0,0,0-1.87,1.47,5.15,5.15,0,0,0-.91,2.52,7.47,7.47,0,0,0,.43,3.19A6.74,6.74,0,0,0,208,113a4.11,4.11,0,0,0,2.23.68,4.86,4.86,0,0,0,1.67-.29,4,4,0,0,0,1.95-1.28,4.63,4.63,0,0,0,.85-2.06,18.62,18.62,0,0,0,.19-3.11,25,25,0,0,1,.11-2.8,3.17,3.17,0,0,1,.46-1.43,2.26,2.26,0,0,1,3-.54,4.34,4.34,0,0,1,1.39,2.14,4,4,0,0,1,.13,2.48,2.25,2.25,0,0,1-1.2,1.48.85.85,0,0,0-.51.55,1,1,0,0,0,0,.56l.14.41a.82.82,0,0,0,.47.52.91.91,0,0,0,.65,0,4.25,4.25,0,0,0,1.74-1.34,4.9,4.9,0,0,0,1-2.36A6.4,6.4,0,0,0,221.93,103.61Z"/><path class="cls-2" d="M88.61,140.52a3.94,3.94,0,0,0,2-.8A4.37,4.37,0,0,0,91.81,138a16.45,16.45,0,0,0,.76-2.79,23.21,23.21,0,0,1,.63-2.52,2.85,2.85,0,0,1,.68-1.2A1.81,1.81,0,0,1,95,131a1.79,1.79,0,0,1,1.67.56,3.9,3.9,0,0,1,.85,2.18,3.75,3.75,0,0,1-.34,2.26,2.08,2.08,0,0,1-1.35,1.1.8.8,0,0,0-.59.41.92.92,0,0,0-.1.53l0,.41a.79.79,0,0,0,.34.58.91.91,0,0,0,.61.14,4,4,0,0,0,1.84-.89,4.51,4.51,0,0,0,1.35-2,5.8,5.8,0,0,0,.26-2.83,6.1,6.1,0,0,0-.87-2.61A4.17,4.17,0,0,0,97,129.29a4,4,0,0,0-2.25-.35,4.16,4.16,0,0,0-2,.74,3.77,3.77,0,0,0-1.22,1.62,14.23,14.23,0,0,0-.77,2.65,27.64,27.64,0,0,1-.65,2.71,3.38,3.38,0,0,1-.66,1.29,1.53,1.53,0,0,1-1,.49,2.09,2.09,0,0,1-1.84-.57,4.32,4.32,0,0,1-1-2.54,4.11,4.11,0,0,1,.36-2.63,2.39,2.39,0,0,1,1.43-1.16.83.83,0,0,0,.64-.93l0-.4a.81.81,0,0,0-.32-.57.84.84,0,0,0-.62-.15,3.76,3.76,0,0,0-2,1,4.8,4.8,0,0,0-1.31,2.13,7,7,0,0,0-.22,3,6.36,6.36,0,0,0,1.66,3.83,3.87,3.87,0,0,0,2.79,1.14A5.53,5.53,0,0,0,88.61,140.52Z"/><path class="cls-2" d="M103.68,149.2l-.27-.63a1,1,0,0,0-1-.61l-14.88.83-.3.07a.84.84,0,0,0-.44.45.81.81,0,0,0,0,.63l.17.37a.78.78,0,0,0,.43.44,1.11,1.11,0,0,0,.43.09l3.37-.19,2.66,6.1-2.44,2.34a.87.87,0,0,0-.23.37.81.81,0,0,0,0,.61l.16.38a.81.81,0,0,0,.46.43.86.86,0,0,0,.27.05,1,1,0,0,0,.42-.1l.25-.18,10.69-10.28A1,1,0,0,0,103.68,149.2Zm-3,.92-5.29,5.08-2-4.67Z"/><path class="cls-2" d="M114.93,167.38a.84.84,0,0,0,.3-.55.81.81,0,0,0-.18-.6l-.27-.34a.84.84,0,0,0-.53-.3,1.12,1.12,0,0,0-.45,0l-11.86,4.48,6.67-10.8a1.22,1.22,0,0,0,.12-.42.84.84,0,0,0-.2-.58l-.27-.33a.81.81,0,0,0-.56-.29.87.87,0,0,0-.65.24L99.21,170.6h0a1.11,1.11,0,0,0,.08,1.33l.37.44a1,1,0,0,0,.82.41,1.14,1.14,0,0,0,.47-.08l13.73-5.16Z"/><path class="cls-2" d="M123.69,172.76a5.51,5.51,0,0,0-4.36-1,6.89,6.89,0,0,0-4,3c-.25.35-.59.85-1,1.49s-.76,1.15-1,1.51c-2.26,3.52-1.83,6.37,1.27,8.46a6.08,6.08,0,0,0,3.35,1.19q2.69,0,5-3.17l1-1.48c.19-.28.52-.79,1-1.52a6.83,6.83,0,0,0,1.27-4.78A5.5,5.5,0,0,0,123.69,172.76Zm-1.17,1.73a3.44,3.44,0,0,1,1.59,2.33,5,5,0,0,1-1,3.34q-.68,1.08-.9,1.41l-1,1.37a4.92,4.92,0,0,1-2.73,2.14,3.85,3.85,0,0,1-4.36-2.94,5,5,0,0,1,1-3.34c.23-.36.54-.82.93-1.4s.7-1,1-1.38a5,5,0,0,1,2.74-2.14,3.82,3.82,0,0,1,.75-.08A3.69,3.69,0,0,1,122.52,174.49Z"/><path class="cls-2" d="M135.23,179l-.36-.14a.84.84,0,0,0-1.11.51l-5,13.15a.84.84,0,0,0,0,.66.86.86,0,0,0,.49.46l.36.13a.87.87,0,0,0,.31.07.94.94,0,0,0,.36-.08.88.88,0,0,0,.43-.5l5-13.15a.94.94,0,0,0,0-.66A.81.81,0,0,0,135.23,179Zm-6.06,14Z"/><path class="cls-2" d="M148,182.05l-4.72-.62a.85.85,0,0,0-.66.19,1,1,0,0,0-.3.59l-1.83,13.9a.9.9,0,0,0,.15.65.82.82,0,0,0,.58.33l.37,0a.84.84,0,0,0,1-.75l.72-5.42,3.53.46,2.37,5.92a2.13,2.13,0,0,0,.33.59,1,1,0,0,0,.69.33l.24,0h.1a.78.78,0,0,0,.51-.18.81.81,0,0,0,.31-.54,1,1,0,0,0-.06-.44l-2.3-5.78a4.21,4.21,0,0,0,2.17-1.13,4.77,4.77,0,0,0,1.26-2.84,4.45,4.45,0,0,0-.91-3.68A5.43,5.43,0,0,0,148,182.05Zm2.36,5.08a2.49,2.49,0,0,1-1,1.87,3.55,3.55,0,0,1-2.44.34l-3.38-.44.69-5.24,3.38.45a3.51,3.51,0,0,1,2.27,1A2.49,2.49,0,0,1,150.34,187.13Zm-7.64-4.87Z"/><path class="cls-2" d="M166.5,189.69a.79.79,0,0,0-.65-.17l-6,.75a.86.86,0,0,0-.58.33.88.88,0,0,0-.15.65l0,.29a.81.81,0,0,0,.82.77h.13l6-.75a.86.86,0,0,0,.58-.33.9.9,0,0,0,.15-.65l0-.29A.88.88,0,0,0,166.5,189.69Z"/><path class="cls-2" d="M183,184a.93.93,0,0,0-.45-.51.9.9,0,0,0-.69,0l-5.78,2.31-1.84-4.6,6.16-2.46a.87.87,0,0,0,.48-.46.85.85,0,0,0,0-.68l-.12-.3a.93.93,0,0,0-.46-.51.84.84,0,0,0-.69,0l-7.31,2.93a.8.8,0,0,0-.48.49.92.92,0,0,0,0,.65l5.21,13a.83.83,0,0,0,.44.49.78.78,0,0,0,.33.07,1,1,0,0,0,.34-.06l.34-.14a.86.86,0,0,0,.49-1.13l-2.15-5.38,5.78-2.31a.88.88,0,0,0,.48-.45.85.85,0,0,0,0-.69Zm-1-.13Zm-9.78-3.14Z"/><path class="cls-2" d="M202.44,178.87l-12.51-8a1,1,0,0,0-1.19,0l-.55.42a1,1,0,0,0-.36,1.13l4.31,14.27.15.27a.87.87,0,0,0,.53.32H193a.77.77,0,0,0,.48-.16l.32-.24a.81.81,0,0,0,.33-.53.93.93,0,0,0,0-.44l-1-3.23,5.31-4,2.84,1.82a1.1,1.1,0,0,0,.42.14.81.81,0,0,0,.59-.18l.32-.24a.74.74,0,0,0,.31-.55.8.8,0,0,0-.21-.65Zm-5.93-1.32-4.06,3.07-2.12-7Z"/><path class="cls-2" d="M199.08,162a.87.87,0,0,0-.63-.22.86.86,0,0,0-.59.32l-.24.29a.81.81,0,0,0-.2.64.9.9,0,0,0,.32.58l10.81,9a.88.88,0,0,0,.56.22h.07a.83.83,0,0,0,.58-.32l.25-.29a.81.81,0,0,0,.2-.64.92.92,0,0,0-.33-.58Zm10.07,10.41Z"/><path class="cls-2" d="M220.76,153a1.11,1.11,0,0,0-.44-.09l-6.21.28a4.17,4.17,0,0,0-.36-2.42,4.75,4.75,0,0,0-2.26-2.13,4.47,4.47,0,0,0-3.78-.35,5.47,5.47,0,0,0-2.73,2.78l-2.14,4.25a.83.83,0,0,0,0,.69.9.9,0,0,0,.45.47l12.53,6.3a.94.94,0,0,0,.42.11.8.8,0,0,0,.24,0,.82.82,0,0,0,.51-.44l.16-.33a.85.85,0,0,0,.06-.66.86.86,0,0,0-.45-.51l-4.88-2.45,1.6-3.19,6.36-.3a1.76,1.76,0,0,0,.67-.11,1.06,1.06,0,0,0,.55-.54l.11-.22a.81.81,0,0,0,0-.63A.86.86,0,0,0,220.76,153Zm-9.25,1.47L210,157.56l-4.71-2.37,1.53-3.05a3.53,3.53,0,0,1,1.66-1.82,3,3,0,0,1,3.53,1.77A3.51,3.51,0,0,1,211.51,154.51Z"/><path class="cls-2" d="M225.93,134.4a.85.85,0,0,0-.57-.36L225,134a.86.86,0,0,0-.67.12.84.84,0,0,0-.37.58l-1.22,6.77-4.79-.86,1.11-6.17a.86.86,0,0,0-.13-.65.9.9,0,0,0-.57-.37l-.32-.05a.88.88,0,0,0-.67.11.84.84,0,0,0-.37.59l-1.11,6.16-4.58-.82,1.19-6.61a.86.86,0,0,0-.13-.65.88.88,0,0,0-.57-.37l-.32,0a.91.91,0,0,0-.67.11.81.81,0,0,0-.36.59l-1.42,7.83a.8.8,0,0,0,.16.66.9.9,0,0,0,.57.33l13.81,2.49.17,0a.92.92,0,0,0,.48-.13h0a.84.84,0,0,0,.36-.56l1.44-8A.87.87,0,0,0,225.93,134.4Zm-8.49-.28Zm6.6,9.15Z"/><path class="cls-2" d="M149.8,127.65v0l0,0c-3.72,3.06-7,6.3-6.93,12.24.1,5.11,4.3,9.47,9.18,9.52a9.09,9.09,0,0,0,6.09-2.27l.1-.08a20.81,20.81,0,0,0,3.82-3.94h0v0A161.22,161.22,0,0,1,149.8,127.65Z"/><path class="cls-2" d="M150.58,122.18l0,0c2.53-2.29,7.19-6.53,7.53-10.67a6.54,6.54,0,0,0-1.5-5,4.75,4.75,0,0,0-3.63-1.69,6.48,6.48,0,0,0-6.54,6.41v.23c-.07,1.69.59,4.91,4.11,10.75Z"/><path class="cls-2" d="M155,84.2a42.77,42.77,0,1,0,42.35,43.18A42.83,42.83,0,0,0,155,84.2Zm20.39,46.26-3.8,0a36.78,36.78,0,0,1-4.87,12.39v0c2,2.25,4.17,4.53,6.33,6.79a1.81,1.81,0,0,1-.06,2.56,1.89,1.89,0,0,1-2.55-.05c-2-2.11-4-4.22-5.86-6.29l0,0,0,0a24.2,24.2,0,0,1-4.08,4.06A12.61,12.61,0,0,1,152,153,13.21,13.21,0,0,1,139.22,140c-.15-8.21,4.89-12.35,8.57-15.36l0,0,0,0c-3.4-5.54-5.07-10-4.95-13.27v-.15a10.12,10.12,0,0,1,10.2-10,8.37,8.37,0,0,1,6.31,2.93,10.1,10.1,0,0,1,2.38,7.79c-.45,5.5-5.89,10.44-8.82,13.09l-.36.33h0A147.64,147.64,0,0,0,164.11,140l0,0,0,0a33.61,33.61,0,0,0,3.71-9.56v0l-3.78,0a1.81,1.81,0,0,1,0-3.62l11.25.11a1.81,1.81,0,0,1,0,3.62Z"/><path class="cls-5" d="M132.26,217.26a.74.74,0,0,0-.65.1,1,1,0,0,0-.36.51l1.62.42a1,1,0,0,0-.08-.63A.79.79,0,0,0,132.26,217.26Z"/><path class="cls-5" d="M186.11,217.6h0c0-.13-.13-.38-.27-.77a2.27,2.27,0,0,0-1-1.33,1.59,1.59,0,0,0-.74-.18,2,2,0,0,0-.66.11,1.72,1.72,0,0,0-1.09.86,2.29,2.29,0,0,0,0,1.65c0,.2.13.46.24.79s.18.58.25.77a2.27,2.27,0,0,0,1,1.33,1.73,1.73,0,0,0,1.4.07,1.75,1.75,0,0,0,1.1-.86,2.32,2.32,0,0,0,0-1.66C186.22,218,186.15,217.72,186.11,217.6Z"/><path class="cls-5" d="M153.71,219.89l-1.48,0-.14,5.54,1.53,0a2.72,2.72,0,0,0,1.21-.17,1.06,1.06,0,0,0,.58-.56,3.34,3.34,0,0,0,.25-1.22c0-.21,0-.46,0-.78s0-.55,0-.76a2.23,2.23,0,0,0-.44-1.55A2.16,2.16,0,0,0,153.71,219.89Z"/><path class="cls-5" d="M200.18,199.38l-.07-.11-.11.07a85,85,0,0,1-45,12.9h-.82a84.85,84.85,0,0,1-45.6-13.79l-.11-.08L97.55,215.08l-.08.11.12.08a105.35,105.35,0,0,0,113.42.94l.12-.08ZM144.1,217l.81-.76a.64.64,0,0,1,.27-.19.63.63,0,0,1,.34,0l.48.06a.43.43,0,0,1,.41.51.45.45,0,0,1-.16.3l-1.27.81a.81.81,0,0,1-.25.1h-.41a.47.47,0,0,1-.3-.16.39.39,0,0,1-.08-.32A.45.45,0,0,1,144.1,217Zm-25.54-3.29h0a2.62,2.62,0,0,1-.8,1,4.37,4.37,0,0,1-1.3.64l-2.66,1,2.61,1.19a.5.5,0,0,1,.28.29.49.49,0,0,1,0,.39l-.07.14a.47.47,0,0,1-.29.26l-.15,0a.54.54,0,0,1-.22-.05L112,216.82a.43.43,0,0,1-.26-.27.5.5,0,0,1,0-.38l.07-.15a.87.87,0,0,1,.58-.43l3.58-1.34a4.27,4.27,0,0,0,1-.46,1.64,1.64,0,0,0,.46-.61,1.22,1.22,0,0,0,.08-1,1.55,1.55,0,0,0-1.73-.78,1.53,1.53,0,0,0-.78.68.5.5,0,0,1-.32.25.49.49,0,0,1-.34,0l-.18-.08A.47.47,0,0,1,114,212a.45.45,0,0,1,0-.36,2.68,2.68,0,0,1,.74-.91,2.38,2.38,0,0,1,1.17-.5,2.51,2.51,0,0,1,1.43.24,2.35,2.35,0,0,1,1.4,1.4A2.42,2.42,0,0,1,118.56,213.67Zm8.8,1.33,0,.16a.55.55,0,0,1-.25.29.53.53,0,0,1-.39,0l-2.61-.9-.68,1.51a3.21,3.21,0,0,1,1,.18,3.27,3.27,0,0,1,1.23.73,2.5,2.5,0,0,1,.67,1.18,2.64,2.64,0,0,1-.11,1.46,2.77,2.77,0,0,1-.83,1.28,2.39,2.39,0,0,1-1.27.55l-.34,0a3.24,3.24,0,0,1-1.08-.19,3,3,0,0,1-1.21-.74,2.32,2.32,0,0,1-.62-1.06,2.06,2.06,0,0,1,0-1.13.44.44,0,0,1,.26-.3.5.5,0,0,1,.34,0l.19.06a.51.51,0,0,1,.27.2.57.57,0,0,1,.08.4,1.17,1.17,0,0,0,.24.91,1.71,1.71,0,0,0,.81.57,1.63,1.63,0,0,0,1.23,0,1.61,1.61,0,0,0,.84-1.73,1.29,1.29,0,0,0-.37-.65,1.91,1.91,0,0,0-.72-.45,2.35,2.35,0,0,0-.58-.1,2.86,2.86,0,0,0-.52.11,2.26,2.26,0,0,1-.34.08.66.66,0,0,1-.34,0l-.18-.06a.49.49,0,0,1-.28-.25.43.43,0,0,1,0-.41l1.4-3.13a.58.58,0,0,1,.24-.27.44.44,0,0,1,.39,0l3.22,1.1a.49.49,0,0,1,.29.25A.46.46,0,0,1,127.36,215Zm6.06,3.68,0,.09a.3.3,0,0,1-.12.17.27.27,0,0,1-.2,0l-2-.5a1.19,1.19,0,0,0,0,.42.88.88,0,0,0,.2.41.7.7,0,0,0,.38.23.93.93,0,0,0,.8-.15.42.42,0,0,1,.15-.1.34.34,0,0,1,.17,0l.1,0a.31.31,0,0,1,.15.1.24.24,0,0,1,0,.2.63.63,0,0,1-.29.33,1.49,1.49,0,0,1-.56.21,1.24,1.24,0,0,1-.27,0,1.72,1.72,0,0,1-.44-.06,1.37,1.37,0,0,1-.9-.66h0a1.84,1.84,0,0,1-.15-1.18l.12-.48a1.77,1.77,0,0,1,.69-1,1.46,1.46,0,0,1,2,.56A1.8,1.8,0,0,1,133.42,218.68Zm13.63.42a.47.47,0,0,1-.19.34.54.54,0,0,1-.36.09l-3.37-.39-.25,2.12,3.14.37a.43.43,0,0,1,.34.18.48.48,0,0,1,.1.38l0,.15a.49.49,0,0,1-.19.35.56.56,0,0,1-.36.09l-3.14-.37-.26,2.23,3.44.4a.5.5,0,0,1,.35.18.51.51,0,0,1,.1.38l0,.16a.49.49,0,0,1-.19.34.54.54,0,0,1-.3.1h-.06l-4.15-.48a.49.49,0,0,1-.33-.18.48.48,0,0,1-.1-.37l.79-6.81a.52.52,0,0,1,.18-.33.53.53,0,0,1,.36-.11l4.07.47a.48.48,0,0,1,.44.56Zm9.83,3.64c0,.35,0,.63,0,.84a4.64,4.64,0,0,1-.35,1.71,2.07,2.07,0,0,1-1,1,4,4,0,0,1-1.63.28h-.18l-2.28-.06a.47.47,0,0,1-.35-.15.5.5,0,0,1-.13-.36l.18-6.85a.48.48,0,0,1,.14-.35.49.49,0,0,1,.36-.14l2.23.06a4.15,4.15,0,0,1,1.83.39,2.06,2.06,0,0,1,1,1.1,4.46,4.46,0,0,1,.27,1.67C156.89,222.11,156.88,222.39,156.88,222.74Zm5.64,3.46a.46.46,0,0,1-.35.16l-.23,0a.48.48,0,0,1-.33-.12.46.46,0,0,1-.16-.34l-.47-6.85a.5.5,0,0,1,.11-.36.51.51,0,0,1,.35-.17h.2a.48.48,0,0,1,.37.11.54.54,0,0,1,.16.35l.46,6.85A.5.5,0,0,1,162.52,226.2Zm9-7.82a.47.47,0,0,1-.33.19l-1.77.26.9,6.14a.45.45,0,0,1-.1.37.47.47,0,0,1-.33.19l-.19,0h-.08a.5.5,0,0,1-.29-.09l0,0a.58.58,0,0,1-.16-.31l-.9-6.14-1.79.26a.45.45,0,0,1-.36-.08.48.48,0,0,1-.2-.33l0-.16a.54.54,0,0,1,.08-.37.46.46,0,0,1,.33-.2l4.75-.7a.55.55,0,0,1,.38.08.51.51,0,0,1,.19.35l0,.15A.43.43,0,0,1,171.54,218.38Zm6.37,5.49a.55.55,0,0,1-.32.21l-.19,0h-.12a.46.46,0,0,1-.26-.07.5.5,0,0,1-.22-.32l-1.53-6.69a.5.5,0,0,1,.06-.38.48.48,0,0,1,.32-.21l.19-.05a.5.5,0,0,1,.38.06.49.49,0,0,1,.21.31l1.53,6.7A.49.49,0,0,1,177.91,223.87Zm7.65-1.86a4,4,0,0,1-1.18.2c-1.24,0-2.13-.77-2.66-2.28l-.28-.84-.26-.85a3.35,3.35,0,0,1,.1-2.48,3,3,0,0,1,1.83-1.44,3,3,0,0,1,2.32.11,3.32,3.32,0,0,1,1.52,2c.14.4.24.68.29.84s.14.44.25.85C188.07,220.07,187.4,221.42,185.56,222Zm12.28-5.09a.46.46,0,0,1-.27.29l-.21.09a.53.53,0,0,1-.5,0l-5.15-3.35,2,4.47a.49.49,0,0,1-.26.66l-.17.08a.54.54,0,0,1-.22,0l-.17,0a.48.48,0,0,1-.27-.27l-2.77-6.27a.53.53,0,0,1,0-.37.51.51,0,0,1,.27-.29l.2-.09a.55.55,0,0,1,.5,0l5.18,3.36-2-4.48a.55.55,0,0,1,0-.38.46.46,0,0,1,.27-.28l.17-.08a.51.51,0,0,1,.4,0,.48.48,0,0,1,.27.27l2.76,6.26A.46.46,0,0,1,197.84,216.92Z"/><path class="cls-6" d="M35.54,286.75a.38.38,0,0,0,0,.25,1,1,0,0,1,0,.26.31.31,0,0,1-.05.17,1,1,0,0,0-.11.15c-.06.14-.11.22-.16.24a.12.12,0,0,1-.14,0,.45.45,0,0,1-.14-.11.33.33,0,0,0-.16-.11c-.05,0-.08-.05-.08-.08a.31.31,0,0,1,0-.1.15.15,0,0,0,0-.09l0-.07a1.51,1.51,0,0,1-.08-.34,1.46,1.46,0,0,0-.1-.32,1.25,1.25,0,0,0-.21-.35,4.15,4.15,0,0,1-.24-.34l-.24-.36-.17-.23a2.3,2.3,0,0,0-.22-.2,3.22,3.22,0,0,0-.34-.26.18.18,0,0,0-.07-.05l-.08-.05v0l-.43.54a3.17,3.17,0,0,1-.48.49,3,3,0,0,1-.3.23l-.32.21-.22.2a1.15,1.15,0,0,1-.14.17.93.93,0,0,1-.18.16,1.42,1.42,0,0,1-.35.17,1.2,1.2,0,0,0-.39.23,2.87,2.87,0,0,1-.33.24.07.07,0,0,1-.1,0,.28.28,0,0,1-.12,0l-.11.05-.19,0-.29.09-.28.11q-.12.06-.12.12a.14.14,0,0,1-.14.08c-.06,0-.08-.05-.08-.13l0,0a.74.74,0,0,1-.33.12.62.62,0,0,1-.34-.1,1.58,1.58,0,0,1-.7,0,1.33,1.33,0,0,1-.51-.24,2.32,2.32,0,0,1-.42-.41c-.14-.16-.28-.32-.45-.49-.07,0-.12,0-.16,0a.13.13,0,0,1,0-.08s0,0,.07-.05a1.12,1.12,0,0,0-.14-.46.41.41,0,0,0-.12-.2.4.4,0,0,1-.12-.19s0-.06.05-.06v-.38a.87.87,0,0,1,.08-.37s.07-.07.14-.07l.05,0a.15.15,0,0,0,0-.08.19.19,0,0,1,.05-.09l0-.05v-.06a.36.36,0,0,1,.15-.13.44.44,0,0,0,.15-.1.28.28,0,0,1-.14-.09v-.07a.13.13,0,0,1,.13-.1h0l0,0h0l.35-.32.34-.31a2.67,2.67,0,0,1,1-.54l.14-.06.14,0a3.52,3.52,0,0,0,.39-.17,2.22,2.22,0,0,1,.39-.12,3.62,3.62,0,0,1,.82-.09s.07,0,.07.08.06,0,.07,0a.52.52,0,0,0,.33.09l.35,0a1.93,1.93,0,0,1,.34,0,.67.67,0,0,1,.35.17.54.54,0,0,1,.24,0,2.29,2.29,0,0,1,.28.09l.24.09c.07,0,.11,0,.13,0a.25.25,0,0,0,.1-.08.08.08,0,0,1,.12,0s.07.06.06.09a.3.3,0,0,0,0,.1l0,.06h0v0a.25.25,0,0,1,.18-.07h.2a.88.88,0,0,0,.14-.38,1.18,1.18,0,0,1,.09-.37c0-.13.11-.25.16-.37a1.82,1.82,0,0,0,.14-.39,4,4,0,0,1,.21-.7,3.42,3.42,0,0,1,.34-.66.35.35,0,0,1-.07-.33,1.43,1.43,0,0,1,.12-.35l.06-.1.05-.1,0-.06a.11.11,0,0,1,0-.08,1.1,1.1,0,0,1,0-.18l.05-.15a.41.41,0,0,0,0-.16,1.15,1.15,0,0,1,0-.19s0,0,0-.08-.06,0-.06-.1a.1.1,0,0,1,0-.07l0,0a.67.67,0,0,0,.15-.38c0-.15,0-.29,0-.43a1.54,1.54,0,0,0-.12-.23c0-.05,0-.12.09-.22l-.06,0-.05-.06h0a.82.82,0,0,1,0-.18l-.08-.09s0-.07,0-.09,0-.16,0-.16l.11-.11v-.11a.35.35,0,0,0,0-.13h0l-.07.05s0,0-.06-.05,0-.06,0-.06l.05,0-.07-.11-.09-.16-.09-.17a.58.58,0,0,1,0-.13,4.3,4.3,0,0,0-.09-.47.37.37,0,0,0-.33-.3l-.14.06a.09.09,0,0,1-.13,0,.14.14,0,0,1,0-.14.54.54,0,0,1,.07-.13h0s0-.07,0-.14-.12.08-.16,0l-.06.13a.39.39,0,0,1-.08.1h0l0,.05v0l0,.11-.11.13-.14.11a.14.14,0,0,1-.14,0c-.05,0-.08,0-.09-.07s0-.11,0-.2a.4.4,0,0,0,.07-.19.22.22,0,0,0-.18,0,.2.2,0,0,1-.2-.05,2.32,2.32,0,0,0-.35.35,1.85,1.85,0,0,1-.37.31l-.27.15-.27.17a1.7,1.7,0,0,0-.24.22,2.4,2.4,0,0,1-.22.24,1.7,1.7,0,0,1-.22.45l-.3.41h.36a.13.13,0,0,1,.11.05s0,.08,0,.15a.32.32,0,0,1-.28.19.6.6,0,0,0-.33.1,2.21,2.21,0,0,0-.58.56.94.94,0,0,0-.12.22c0,.09-.05.17-.07.25s-.12.35-.19.52a4.72,4.72,0,0,0-.18.53,1.3,1.3,0,0,1-.14.39,1.27,1.27,0,0,0-.12.39,0,0,0,0,0,0,0V280a1.46,1.46,0,0,0,.13.53.86.86,0,0,0,.36.41.13.13,0,0,0,.11,0,.16.16,0,0,1,.14.05v0a.24.24,0,0,1,.11-.14h.1a.35.35,0,0,1,.1.08l.1.12h0a.3.3,0,0,0,.18-.08.3.3,0,0,1,.18-.05,3.7,3.7,0,0,1,.41-.37l.46-.37a5.33,5.33,0,0,0,.42-.4,2.94,2.94,0,0,0,.35-.44,2.46,2.46,0,0,0,.18-.37,3.08,3.08,0,0,0,.11-.39s0-.06.07-.06h0c.07-.09.13-.18.2-.26a.55.55,0,0,1,.27-.17.44.44,0,0,0,.16-.06.3.3,0,0,1,.17,0c.07,0,.11,0,.11.1v0a.91.91,0,0,1,.17.17.36.36,0,0,1,.08.23.07.07,0,0,1,0,.06l-.06.05.08.07s0,.07,0,.11,0,.05-.06.09,0,0,0,.05,0,0,0,.05l0,.1a1.16,1.16,0,0,1-.08.42c-.06.13-.12.26-.2.4a.19.19,0,0,1-.11.11.13.13,0,0,0-.09.1h0l0,0s0,.07-.12.16l-.15.19a3.15,3.15,0,0,1-.39.41c-.13.11-.29.23-.47.36a4.24,4.24,0,0,1-.87.5,3.62,3.62,0,0,1-1,.25.47.47,0,0,1-.43.1l-.43-.14a.88.88,0,0,0-.41-.08h-.08l0-.06a.18.18,0,0,1-.09,0,1.24,1.24,0,0,1-.31-.3,2.5,2.5,0,0,1-.29-.41,2,2,0,0,1-.21-.44,1.46,1.46,0,0,1-.08-.42c-.05,0-.07-.05-.06-.08a.1.1,0,0,1,.09,0,.76.76,0,0,0,0-.31,1.12,1.12,0,0,1,.06-.35,1.23,1.23,0,0,1,.15-.31l.18-.33a3.18,3.18,0,0,1,.16-.32l.15-.33a1.7,1.7,0,0,0,.12-.34c0-.11.08-.22.13-.33l.15-.31c.06-.11.11-.21.16-.32s0-.06,0-.08.05,0,.09,0a2.55,2.55,0,0,1,.25-.43,4.68,4.68,0,0,0,.27-.4l.09-.2a.39.39,0,0,1,.11-.17.89.89,0,0,1,.3-.24.8.8,0,0,0,.29-.23l.23-.32a3.92,3.92,0,0,1,.25-.32.18.18,0,0,1,.15-.12.09.09,0,0,1,.06.06,2.08,2.08,0,0,1,.21-.21,1.3,1.3,0,0,1,.26-.17,1.09,1.09,0,0,0,.25-.23.9.9,0,0,1,.27-.21l.19-.1a.86.86,0,0,0,.18-.14l.1,0a1,1,0,0,0,.38,0l.34-.11a1.14,1.14,0,0,1,.37,0,1.15,1.15,0,0,1,.46.13.23.23,0,0,0,.05-.1s0-.05.1,0,.07,0,.07.06a.23.23,0,0,0,0,.11l.34.22a.92.92,0,0,1,.28.24,2.58,2.58,0,0,1,.35.51,3.71,3.71,0,0,1,.23.5l.21.5a5.13,5.13,0,0,0,.25.54s0,.06,0,.07l-.05.06h0s.06.07.06.09l-.09.19a.39.39,0,0,0-.05.2,1.41,1.41,0,0,0,.07.47c.05.15.09.3.13.44a1.72,1.72,0,0,1,.06.44,1,1,0,0,1-.15.49.59.59,0,0,1,.08.35.48.48,0,0,1-.08.22l-.14.17a.37.37,0,0,0-.08.25s0,0,0,.06a.13.13,0,0,1,0,.06.53.53,0,0,0,0,.13.22.22,0,0,0,.06.13.25.25,0,0,1-.07.09h0a1.57,1.57,0,0,1-.08.31,2.83,2.83,0,0,0-.11.31l-.22.79c-.08.27-.17.53-.27.79s-.09.27-.13.41a1.43,1.43,0,0,1-.15.39.16.16,0,0,1,0,.11v0c0,.07,0,.16,0,.26a.37.37,0,0,1-.08.23s-.05,0-.05.06,0,0,0,.09,0,0,0,.05l0,.06.13.19a1.1,1.1,0,0,0,.15.16,1.54,1.54,0,0,0,.31.27,1.9,1.9,0,0,1,.29.28,1.94,1.94,0,0,1,.23.33,3,3,0,0,0,.21.33.74.74,0,0,1,.15.34,1.26,1.26,0,0,0,.13.34l.17.35a1.64,1.64,0,0,1,.14.39h0v.06A.22.22,0,0,1,35.54,286.75Zm-3.88-2.46-.1-.14a.54.54,0,0,1-.07-.13h0a.9.9,0,0,1-.32-.09,1.87,1.87,0,0,1-.28-.16l-.09-.08a.25.25,0,0,0-.1-.08,1.45,1.45,0,0,0-.36,0,2,2,0,0,1-.35,0l-.36-.05a1,1,0,0,0-.34,0,1.05,1.05,0,0,0-.3.07l-.37.15-.34.19a1.42,1.42,0,0,0-.24.19l0,.05-.05,0h-.11l-.06,0h-.14l-.13,0h-.13c-.05.11-.1.22-.16.33a1.55,1.55,0,0,1-.2.32l-.31.39a.77.77,0,0,0-.15.46.31.31,0,0,0,.07.15,1.19,1.19,0,0,1,.1.17.71.71,0,0,0,.17.28.43.43,0,0,0,.21.11,1.09,1.09,0,0,0,.26,0l.3,0,.31.1.27.09a1.52,1.52,0,0,1,.32-.11l.31-.08a.47.47,0,0,0,.15-.06.55.55,0,0,1,.15-.08l.24-.06a.7.7,0,0,0,.23-.11L30,286a.91.91,0,0,1,.35-.12,1.33,1.33,0,0,1,.34-.42l-.05,0a.16.16,0,0,1,.12-.15l.19-.07a.31.31,0,0,0,.19-.16,2.44,2.44,0,0,0,.1-.24l.09-.21a.14.14,0,0,1,.12-.09l0,0h0l.05,0,0,0,.09,0a.07.07,0,0,0,0,0A.07.07,0,0,1,31.66,284.29Z"/><path class="cls-6" d="M46.85,286.15h-.27l-.17,0a.41.41,0,0,0-.16.05l-.23.14a.6.6,0,0,1-.16.24.67.67,0,0,1-.22.13l-.25.1a.79.79,0,0,0-.25.17,2.4,2.4,0,0,1-2-.5l-.19-.16a.93.93,0,0,0-.18-.16l-.08-.05-.07-.07a.73.73,0,0,1-.12-.36c0-.14,0-.28-.07-.41a.73.73,0,0,0-.16-.33.52.52,0,0,0-.44-.13,2.3,2.3,0,0,1-.41.62,4.09,4.09,0,0,1-.61.57,4.21,4.21,0,0,1-.71.41,1.77,1.77,0,0,1-.71.16.89.89,0,0,1-.41.5,2.27,2.27,0,0,1-.6.26l-.12,0-.1,0a.48.48,0,0,1-.33-.07l-.22-.19a1,1,0,0,0-.22-.19.49.49,0,0,0-.32-.09l-.32-.75a2.83,2.83,0,0,1-.23-.75.21.21,0,0,0,.13-.18,1.69,1.69,0,0,0,0-.23c-.15,0-.23-.11-.24-.18a.66.66,0,0,1,0-.23l.11-.22a.15.15,0,0,0,0-.19,5.32,5.32,0,0,1,.51-1.72A3.75,3.75,0,0,1,38.2,281a.38.38,0,0,1,0-.42.47.47,0,0,1,.33-.16.68.68,0,0,1,.39.09.39.39,0,0,1,.18.35.46.46,0,0,1,0,.2,1.8,1.8,0,0,0-.05.19,4,4,0,0,1-.27.85c-.12.28-.24.55-.38.81l-.42.79a6,6,0,0,0-.36.82c-.11.08-.15.16-.11.25a1.28,1.28,0,0,0,.15.25.47.47,0,0,1,.1.25c0,.07-.08.15-.27.22a.3.3,0,0,0,0,.35,3.05,3.05,0,0,1,.22.32H38a.25.25,0,0,0,.19-.13.28.28,0,0,0,.31,0l.29-.18a1.59,1.59,0,0,1,.34-.18.49.49,0,0,1,.42,0,.92.92,0,0,0,.17-.25,2.44,2.44,0,0,1,.14-.28.76.76,0,0,1,.18-.22.38.38,0,0,1,.31-.06,1.86,1.86,0,0,1,.55-.6,7.38,7.38,0,0,1,.68-.46,5.14,5.14,0,0,0,.61-.47,1.15,1.15,0,0,0,.35-.65c.18-.29.37-.62.56-1a3.36,3.36,0,0,1,.67-.91.45.45,0,0,1,.14-.19.65.65,0,0,1,.22-.08.49.49,0,0,1,.24,0,.53.53,0,0,1,.2.13,1,1,0,0,1-.06.48c-.07.15-.13.29-.21.43a2.2,2.2,0,0,0-.17.45,1,1,0,0,0,0,.54,2.58,2.58,0,0,1-.41.2,3.07,3.07,0,0,0-.36.2.93.93,0,0,0-.46.68c.26.1.42.22.47.37a1.85,1.85,0,0,1,.07.48,3.12,3.12,0,0,0,0,.52.84.84,0,0,0,.37.54l.08.06a.23.23,0,0,0,.09.06.49.49,0,0,0,.27,0l.23-.1a.45.45,0,0,1,.23,0,.45.45,0,0,1,.29.18c.14-.19.28-.19.41,0,.11-.21.22-.34.32-.37a.69.69,0,0,1,.28,0,.72.72,0,0,0,.29,0c.1,0,.2-.15.32-.36l.13.13c.06-.16.13-.23.22-.23a1,1,0,0,1,.24.05.34.34,0,0,0,.2,0c.06,0,.09-.14.09-.35a.44.44,0,0,0,.23-.06l.19-.13a.72.72,0,0,1,.21-.12.61.61,0,0,1,.28-.05l-.38.92Z"/><path class="cls-6" d="M58.32,282.4l-.19.2-.12.14-.12.14-.2.22c-.07.08-.15.16-.22.25a.84.84,0,0,1-.23.23.27.27,0,0,0-.27.05,1.09,1.09,0,0,0-.18.19l-.14.21a.18.18,0,0,1-.17.08,5.64,5.64,0,0,1-.71.33,2.76,2.76,0,0,0-.67.4l-.12-.11-1.52.73-.15.09-.14.1a5.79,5.79,0,0,1-.67.31c-.23.1-.46.18-.68.26l-.19.06c.08.19.08.33,0,.41a.73.73,0,0,1-.34.17,3.31,3.31,0,0,1-.48.06,1,1,0,0,0-.41.1L50,287l-.37,0-.39,0a1.89,1.89,0,0,1-.38-.05h0a.57.57,0,0,1-.43.06,1,1,0,0,1-.33-.22,4,4,0,0,1-.27-.37c-.08-.14-.17-.27-.25-.39a3.11,3.11,0,0,1-.22-.33,2.92,2.92,0,0,1-.23-.47,2.36,2.36,0,0,1-.12-.51.65.65,0,0,1,.11-.44,1.65,1.65,0,0,0,.21-.42,1.3,1.3,0,0,0,.08-.51v-.19a1.15,1.15,0,0,1,0-.19h.33a.26.26,0,0,0,.13-.06.23.23,0,0,0,.05-.18.13.13,0,0,0-.05-.12.24.24,0,0,1-.06-.09,1,1,0,0,1,.16-.21,1,1,0,0,0,.14-.16.56.56,0,0,0,.09-.19.62.62,0,0,0,0-.3,2.25,2.25,0,0,1,.41-.55c.16-.16.33-.31.51-.46s.36-.28.54-.41.36-.29.53-.44a.5.5,0,0,0,.45,0,2.55,2.55,0,0,0,.3-.26,1.38,1.38,0,0,1,.26-.23c.09-.05.2,0,.35.08l0,0a1,1,0,0,1,.8-.36,1.32,1.32,0,0,1,.69.27,1,1,0,0,1,.37.5.28.28,0,0,1-.16.39.52.52,0,0,1,.16.38.6.6,0,0,1-.12.38,3.48,3.48,0,0,0-.22.36c-.07.12-.13.25-.2.39s-.21.44-.32.64a1.49,1.49,0,0,1-.5.5q-.27-.07-.36.06a1,1,0,0,0-.14.29.91.91,0,0,1-.1.24c0,.06-.12,0-.25-.06l0,0,0,0a.87.87,0,0,0-.18.26.46.46,0,0,1-.19.22l-.27-.07-.28-.06a.87.87,0,0,1-.12.49,1,1,0,0,1-.3.28,2,2,0,0,1-.42.18,2.8,2.8,0,0,0-.46.16,2.13,2.13,0,0,0-.42.23,1,1,0,0,0-.32.39.53.53,0,0,0,.37.18,1.69,1.69,0,0,0,.45,0l.46,0a.73.73,0,0,1,.41.12h0a3.17,3.17,0,0,0,.69-.17l.64-.26c.21-.1.43-.18.65-.27a3.57,3.57,0,0,1,.68-.18.25.25,0,0,0,.19.13.69.69,0,0,0,.25,0v0l.06-.19.09-.18a.75.75,0,0,1,.25-.25,1.07,1.07,0,0,1,.31-.13,1.93,1.93,0,0,1,.36-.06l.38,0h0v-.05a.48.48,0,0,1,.16-.24.72.72,0,0,1,.2-.09l.24-.05a.59.59,0,0,0,.24-.09.45.45,0,0,0,.44-.05l.34-.31.11.15,0-.06.33-.31a1.68,1.68,0,0,1,.21-.18,1.43,1.43,0,0,1,.24-.16l.39-.25c.14-.08.27-.17.4-.26l.39-.29a.1.1,0,0,1,.07.11v.15a.64.64,0,0,0,0,.09S58.3,282.38,58.32,282.4Zm-6.06-1.83,0,0h0a1.09,1.09,0,0,0-.51-.16.81.81,0,0,0-.37.12,1.36,1.36,0,0,0-.31.28c-.09.11-.19.21-.29.31a1.07,1.07,0,0,1-.36.21.79.79,0,0,1-.5,0c0,.16-.06.31-.08.46s0,.31,0,.47a.93.93,0,0,0-.39.24,1.69,1.69,0,0,0-.23.36,2.43,2.43,0,0,0-.18.4,1.53,1.53,0,0,1-.21.4l.06.07a.13.13,0,0,1,.13.05l.1.1a1.35,1.35,0,0,1,.43-.39,6,6,0,0,1,.56-.3l.55-.3a1,1,0,0,0,.39-.43,1.14,1.14,0,0,0,.71-.53,4.75,4.75,0,0,0,.39-.82l.11-.25A1.36,1.36,0,0,0,52.26,280.57Z"/><path class="cls-6" d="M66,282.07a.81.81,0,0,1-.08.43c-.06.14-.12.26-.17.36l-.46.5-.28.84-.35.23a2.7,2.7,0,0,0-.33.22,2.54,2.54,0,0,0-.28.29,1.82,1.82,0,0,1-.27.28,1.33,1.33,0,0,1-.35.2l-.36.18-.55.37c-.17.13-.34.25-.53.37l-.11.06a.23.23,0,0,1-.11.07,2.41,2.41,0,0,1-.38.12l-.74.19-.75.2-.4.09-.54,0h-.56l-.22.14a3,3,0,0,0-.35-.23,1.61,1.61,0,0,1-.32-.21q-.15-.13-.3-.3l-.26-.32-.15-.4c0-.13-.08-.26-.11-.39l-.08-.56c0-.18,0-.36,0-.54s0-.36,0-.54c.17-.46.32-.92.45-1.39a9.6,9.6,0,0,1,.49-1.36l.14-.33a2.52,2.52,0,0,1,.14-.33,2.59,2.59,0,0,1,.19-.33,2.48,2.48,0,0,0,.17-.32,2.53,2.53,0,0,0,.12-.36,1.7,1.7,0,0,1,.12-.34l.14-.26.22-.35c.08-.12.16-.24.23-.36s.14-.21.18-.28l.24-.28a1,1,0,0,0,.19-.29,3.17,3.17,0,0,0,.28-.63,4.21,4.21,0,0,1,.29-.67,3.67,3.67,0,0,1,.42-.61,6,6,0,0,0,.44-.59,7.23,7.23,0,0,0,.43-.68l.64-.47.3.3.7-.12.44.66c0,.15,0,.31-.07.5l-.06.56c0,.19,0,.38,0,.56a2.29,2.29,0,0,0,0,.47,3.42,3.42,0,0,1-.21.55,2.31,2.31,0,0,1-.32.49l-.06.79-.58.53-.08.75-.5.59c0,.13-.05.27-.08.41a2.77,2.77,0,0,1-.12.41,3.91,3.91,0,0,1-.18.35c-.06.13-.13.25-.2.38a6.14,6.14,0,0,0-.6.56,7.76,7.76,0,0,0-.56.61,2.62,2.62,0,0,0-.24.34,3,3,0,0,1-.23.35,8.75,8.75,0,0,1-.82.91c-.29.28-.58.57-.86.87l.32.58.63.19.64.16.34-.07.4-.09.4-.1.33-.12a5.53,5.53,0,0,0,.67-.35l.65-.4.95-.6c.32-.2.63-.42.92-.64a6,6,0,0,0,.62-.56l.61-.64c.19-.2.36-.36.51-.49S66,282,66,282.07Zm-4-6.92c-.21.34-.42.67-.65,1s-.44.65-.64,1a3,3,0,0,0-.18.36,1.57,1.57,0,0,1-.19.36,2.27,2.27,0,0,1-.22.32,3.07,3.07,0,0,0-.2.36,7.45,7.45,0,0,0-.32.7c-.09.25-.19.5-.3.73a3.8,3.8,0,0,1-.41.66,5.32,5.32,0,0,0-.42.66l-.24.47a.58.58,0,0,1,0,.11.36.36,0,0,0-.06.11,1,1,0,0,0-.06.35,1.34,1.34,0,0,1-.05.35,1.09,1.09,0,0,1-.13.34,3.18,3.18,0,0,0-.16.32,2.19,2.19,0,0,0-.12.33,2.07,2.07,0,0,1-.1.33,1.71,1.71,0,0,1,.26-.21l.27-.22a2.26,2.26,0,0,0,.25-.28,2.13,2.13,0,0,1,.26-.26,1.94,1.94,0,0,1,.29-.21l.3-.2a5.59,5.59,0,0,0,.41-.66,1.69,1.69,0,0,0,.15-.36,1.8,1.8,0,0,1,.17-.37,1.31,1.31,0,0,1,.23-.31,3.15,3.15,0,0,0,.24-.3,3,3,0,0,0,.2-.34,2.21,2.21,0,0,1,.18-.34,6.85,6.85,0,0,1,.45-.61l.08-.93.52-.61.08-.56.36-.51.05-.82Z"/><path class="cls-6" d="M73.87,282.07a.92.92,0,0,1-.09.43c-.06.14-.12.26-.16.36l-.47.5-.28.84-.35.23a2.18,2.18,0,0,0-.61.51,1.2,1.2,0,0,1-.27.28,1.19,1.19,0,0,1-.35.2l-.35.18a5.85,5.85,0,0,0-.55.37c-.17.13-.35.25-.54.37l-.11.06a.23.23,0,0,1-.11.07,2.05,2.05,0,0,1-.38.12l-.74.19-.75.2-.4.09a4.75,4.75,0,0,1-.54,0h-.56l-.22.14a2.36,2.36,0,0,0-.35-.23,1.61,1.61,0,0,1-.32-.21,2.76,2.76,0,0,1-.29-.3l-.27-.32c0-.14-.1-.27-.14-.4a2.91,2.91,0,0,1-.12-.39l-.07-.56-.06-.54c0-.18,0-.36,0-.54.17-.46.32-.92.45-1.39a11,11,0,0,1,.49-1.36c0-.11.1-.22.14-.33a2.52,2.52,0,0,1,.14-.33,2.59,2.59,0,0,1,.19-.33,1.66,1.66,0,0,0,.17-.32,2.53,2.53,0,0,0,.12-.36,1.7,1.7,0,0,1,.12-.34c0-.06.08-.15.15-.26s.14-.23.22-.35l.22-.36.19-.28.23-.28a1,1,0,0,0,.19-.29,3.17,3.17,0,0,0,.28-.63,4.21,4.21,0,0,1,.29-.67,3.67,3.67,0,0,1,.42-.61c.16-.19.31-.39.45-.59s.28-.43.42-.68l.65-.47.29.3.7-.12.44.66c0,.15,0,.31-.07.5s0,.37-.05.56a5.4,5.4,0,0,0,0,.56,2.29,2.29,0,0,0,0,.47A3.42,3.42,0,0,1,71,277a2.31,2.31,0,0,1-.32.49l-.06.79-.58.53-.08.75-.49.59-.09.41a2.77,2.77,0,0,1-.12.41l-.17.35-.21.38a6.14,6.14,0,0,0-.6.56,7.76,7.76,0,0,0-.56.61,2.62,2.62,0,0,0-.24.34,3,3,0,0,1-.23.35,8.75,8.75,0,0,1-.82.91c-.29.28-.58.57-.86.87l.32.58.63.19.65.16.33-.07.4-.09.4-.1.33-.12a4.88,4.88,0,0,0,.67-.35l.65-.4,1-.6c.32-.2.63-.42.92-.64a6,6,0,0,0,.62-.56l.61-.64c.19-.2.36-.36.51-.49S73.81,282,73.87,282.07Zm-4-6.92a11.09,11.09,0,0,1-.65,1c-.23.32-.44.65-.64,1a2,2,0,0,0-.17.36,3.13,3.13,0,0,1-.19.36l-.22.32a2.12,2.12,0,0,0-.21.36,5.51,5.51,0,0,0-.31.7c-.1.25-.2.5-.3.73a5.59,5.59,0,0,1-.41.66,4.41,4.41,0,0,0-.43.66l-.23.47a.54.54,0,0,1-.06.11A.36.36,0,0,0,66,282a1,1,0,0,0-.06.35,1.34,1.34,0,0,1,0,.35,1.43,1.43,0,0,1-.14.34l-.16.32a2.13,2.13,0,0,0-.11.33c0,.11-.07.22-.11.33a1.71,1.71,0,0,1,.26-.21l.27-.22a2.26,2.26,0,0,0,.25-.28l.26-.26a1.94,1.94,0,0,1,.29-.21l.3-.2a4.53,4.53,0,0,0,.41-.66,1.69,1.69,0,0,0,.15-.36,1.8,1.8,0,0,1,.17-.37,1.66,1.66,0,0,1,.23-.31,3.15,3.15,0,0,0,.24-.3,3,3,0,0,0,.2-.34,2.21,2.21,0,0,1,.18-.34,5.41,5.41,0,0,1,.46-.61l.07-.93.53-.61.07-.56.37-.51,0-.82Z"/><path class="cls-6" d="M82.93,282.4l-.2.2-.11.14-.12.14-.2.22a2.62,2.62,0,0,0-.22.25,1,1,0,0,1-.23.23.27.27,0,0,0-.27.05,1.09,1.09,0,0,0-.18.19l-.14.21a.18.18,0,0,1-.17.08,5.64,5.64,0,0,1-.71.33,2.58,2.58,0,0,0-.67.4l-.12-.11-1.52.73-.15.09-.14.1a5.79,5.79,0,0,1-.67.31c-.23.1-.46.18-.68.26l-.19.06c.08.19.08.33,0,.41a.73.73,0,0,1-.34.17,3.5,3.5,0,0,1-.48.06,1,1,0,0,0-.41.1l-.36,0-.37,0-.39,0a1.89,1.89,0,0,1-.38-.05h0a.57.57,0,0,1-.43.06,1,1,0,0,1-.33-.22,2.07,2.07,0,0,1-.27-.37c-.08-.14-.17-.27-.25-.39a3.11,3.11,0,0,1-.22-.33,2.92,2.92,0,0,1-.23-.47,1.89,1.89,0,0,1-.12-.51.65.65,0,0,1,.11-.44,1.65,1.65,0,0,0,.21-.42,1.3,1.3,0,0,0,.08-.51v-.19a1.15,1.15,0,0,1,0-.19h.33a.26.26,0,0,0,.13-.06.28.28,0,0,0,0-.18.17.17,0,0,0,0-.12.28.28,0,0,1-.07-.09,1.39,1.39,0,0,1,.17-.21,1,1,0,0,0,.14-.16.56.56,0,0,0,.09-.19.62.62,0,0,0,0-.3,2.25,2.25,0,0,1,.41-.55c.16-.16.33-.31.51-.46s.36-.28.54-.41.36-.29.53-.44a.48.48,0,0,0,.44,0,1.56,1.56,0,0,0,.3-.26,1.84,1.84,0,0,1,.27-.23c.09-.05.2,0,.35.08l0,0a1,1,0,0,1,.8-.36,1.32,1.32,0,0,1,.69.27,1,1,0,0,1,.37.5.28.28,0,0,1-.16.39.52.52,0,0,1,.16.38.6.6,0,0,1-.12.38,2.32,2.32,0,0,0-.22.36c-.07.12-.13.25-.2.39s-.21.44-.32.64a1.49,1.49,0,0,1-.5.5q-.27-.07-.36.06a1,1,0,0,0-.14.29.91.91,0,0,1-.1.24c0,.06-.13,0-.25-.06l0,0,0,0a.87.87,0,0,0-.18.26.46.46,0,0,1-.19.22l-.28-.07-.27-.06a.87.87,0,0,1-.12.49,1,1,0,0,1-.3.28,2,2,0,0,1-.42.18,2.8,2.8,0,0,0-.46.16,2.13,2.13,0,0,0-.42.23,1,1,0,0,0-.32.39.53.53,0,0,0,.37.18,1.69,1.69,0,0,0,.45,0l.46,0a.68.68,0,0,1,.4.12h0a3.17,3.17,0,0,0,.69-.17l.64-.26c.21-.1.42-.18.64-.27a3.88,3.88,0,0,1,.69-.18.23.23,0,0,0,.19.13.69.69,0,0,0,.25,0v0l.06-.19a1.5,1.5,0,0,1,.09-.18.67.67,0,0,1,.25-.25,1.07,1.07,0,0,1,.31-.13,1.93,1.93,0,0,1,.36-.06l.38,0h0v-.05a.48.48,0,0,1,.16-.24.72.72,0,0,1,.2-.09l.24-.05a.59.59,0,0,0,.24-.09.45.45,0,0,0,.44-.05l.34-.31.11.15.05-.06.33-.31a1.68,1.68,0,0,1,.21-.18,1.43,1.43,0,0,1,.24-.16l.39-.25.4-.26.39-.29a.1.1,0,0,1,.07.11v.15a.64.64,0,0,0,0,.09S82.91,282.38,82.93,282.4Zm-6.06-1.83,0,0h0a1.09,1.09,0,0,0-.51-.16.77.77,0,0,0-.37.12,1.36,1.36,0,0,0-.31.28c-.09.11-.19.21-.29.31a1.17,1.17,0,0,1-.36.21.79.79,0,0,1-.5,0c0,.16-.06.31-.08.46s0,.31-.05.47a.93.93,0,0,0-.39.24,1.69,1.69,0,0,0-.23.36,2.43,2.43,0,0,0-.18.4,1.53,1.53,0,0,1-.21.4l.06.07a.13.13,0,0,1,.13.05l.1.1a1.35,1.35,0,0,1,.43-.39,6,6,0,0,1,.56-.3l.55-.3a1,1,0,0,0,.39-.43,1.14,1.14,0,0,0,.71-.53,4.75,4.75,0,0,0,.39-.82l.11-.25A1.36,1.36,0,0,0,76.87,280.57Z"/><path class="cls-6" d="M96,285l-.74.74-.69.68c-.24.22-.48.43-.73.63a6.77,6.77,0,0,1-.83.59,3.28,3.28,0,0,1-.43.26,4,4,0,0,1-.47.22l-.15.06-.15.06a3.22,3.22,0,0,0-.29.2l-.32.23c-.22.13-.44.28-.67.44a3.59,3.59,0,0,0-.62.54,2.23,2.23,0,0,0-.45.65,1.61,1.61,0,0,0-.14.8.78.78,0,0,0-.36.36,1.57,1.57,0,0,0-.16.49,4.51,4.51,0,0,0-.07.53,3.92,3.92,0,0,1-.07.51,1.26,1.26,0,0,1-.07.25l-.1.23a.13.13,0,0,0,0,.07.14.14,0,0,1,0,.06,2.41,2.41,0,0,1-.19.33.48.48,0,0,0,0,.38c-.12,0-.19.06-.21.13a.55.55,0,0,0,0,.26v.3a.3.3,0,0,1-.1.24.3.3,0,0,0-.2.07.64.64,0,0,0-.11.16l-.08.2a.46.46,0,0,1-.09.17,2,2,0,0,1-.21.7c-.12.21-.24.42-.37.62s-.26.41-.37.62a2,2,0,0,0-.24.69q-.14.18-.27.39a1.55,1.55,0,0,1-.31.36,1.34,1.34,0,0,1-.37.25.94.94,0,0,1-.48.06,1.75,1.75,0,0,1-.81-.28,3.54,3.54,0,0,1-.7-.59,4.57,4.57,0,0,1-.57-.76,5.75,5.75,0,0,1-.41-.75.36.36,0,0,0,.11-.22.77.77,0,0,0,0-.25,2.56,2.56,0,0,0-.11-.24.63.63,0,0,1-.08-.23,1.66,1.66,0,0,0,.3-.81,5,5,0,0,1,.17-.86,1.7,1.7,0,0,0,.48-.57,1,1,0,0,0,.1-.73,3.16,3.16,0,0,1,.54-.56l.63-.53a6.06,6.06,0,0,0,.58-.55,1.86,1.86,0,0,0,.41-.62.53.53,0,0,0,.39-.08,2.09,2.09,0,0,0,.28-.24l.27-.26a.69.69,0,0,1,.36-.15,1.48,1.48,0,0,1,.19-.27,1,1,0,0,1,.27-.23.53.53,0,0,1,.3-.09.55.55,0,0,1,.31.13.27.27,0,0,0,.3-.08,2.56,2.56,0,0,0,.2-.26,1,1,0,0,1,.18-.21c.07-.05.16,0,.27.07a.36.36,0,0,0,.17-.22.28.28,0,0,0,0-.26c.22-.62.43-1.23.61-1.84s.36-1.23.55-1.85l.36-1.25c0-.08,0-.16.07-.26a2.76,2.76,0,0,1,.08-.27,2.4,2.4,0,0,1,.11-.23c0-.08.09-.16.14-.24s.16-.24.25-.35a.7.7,0,0,1,.28-.22.36.36,0,0,1,.32,0,.72.72,0,0,1,.32.33c0,.23-.08.48-.12.73s-.1.52-.17.77a5.23,5.23,0,0,1-.26.73,2.32,2.32,0,0,1-.39.62,1,1,0,0,1,.09.52,2.42,2.42,0,0,1-.1.45c0,.14-.1.3-.16.45a1.12,1.12,0,0,0-.08.49l-.16.15a.18.18,0,0,0-.07.2c.09.08.23.07.44,0a5.23,5.23,0,0,0,.66-.34l.68-.43a1.61,1.61,0,0,1,.49-.24l-.09-.1a.14.14,0,0,1,0-.15,6,6,0,0,1,.63-.28l.49-.16a2.9,2.9,0,0,0,.47-.23,3.69,3.69,0,0,0,.57-.46,1.12,1.12,0,0,1,.54-.31A1.73,1.73,0,0,1,96,285Zm-7.44,5.5a.77.77,0,0,0-.51.07,1.76,1.76,0,0,0-.37.29l-.31.35a.72.72,0,0,1-.36.24.59.59,0,0,1-.23,0l-.23,0a.38.38,0,0,0-.21.05.36.36,0,0,0-.15.21,1.28,1.28,0,0,0-.37.32l-.28.38a2.15,2.15,0,0,1-.32.35,1.22,1.22,0,0,1-.45.25,8,8,0,0,1-.51.9c-.19.28-.37.56-.53.85a5.2,5.2,0,0,0-.41.9,2.92,2.92,0,0,0-.11,1,3.65,3.65,0,0,1,.31.36l.3.38a2.63,2.63,0,0,0,.34.33,1,1,0,0,0,.42.21l.15,0h.15a.5.5,0,0,0,.31-.17,1.33,1.33,0,0,0,.21-.33,3,3,0,0,0,.15-.38,1.36,1.36,0,0,1,.16-.32,1.48,1.48,0,0,0,.41-.37,2.34,2.34,0,0,0,.24-.44c.07-.16.13-.32.19-.48a2.38,2.38,0,0,1,.22-.49l-.1-.11.34-.37q-.21-.26-.15-.39a.71.71,0,0,1,.21-.26,2.29,2.29,0,0,0,.27-.27.38.38,0,0,0,0-.38.44.44,0,0,0,.27-.15.39.39,0,0,0,0-.24,1,1,0,0,0,0-.29,1,1,0,0,1,0-.29.5.5,0,0,1,.07-.27.37.37,0,0,0,.24-.62,1.12,1.12,0,0,1,.2-.33l.27-.28A.45.45,0,0,0,88.55,290.5ZM91.44,278a.33.33,0,0,0-.26.19,2,2,0,0,0-.09.33l0,.36a.54.54,0,0,1-.06.27.22.22,0,0,1-.2.11,1,1,0,0,1-.42-.19.49.49,0,0,1-.29-.17.9.9,0,0,1-.13-.28,3,3,0,0,1-.08-.32.67.67,0,0,0-.1-.3l.84-1a1,1,0,0,1,.3.18.74.74,0,0,1,.2.23c0,.09.09.18.14.27A3.31,3.31,0,0,0,91.44,278Z"/><path class="cls-6" d="M104.49,282.28a.46.46,0,0,1,0,.37.81.81,0,0,1-.28.27,3.13,3.13,0,0,1-.36.22,1.33,1.33,0,0,0-.33.21,10.89,10.89,0,0,1-1.2.21c-.35,0-.75.1-1.17.17a.86.86,0,0,1-.36,0,1.37,1.37,0,0,0-.35,0H100c-.23,0-.38.09-.44.23a1.83,1.83,0,0,0-.17.45c-.05.17-.1.33-.16.48a.58.58,0,0,1-.41.32.11.11,0,0,0,0,.13l.08.1a.46.46,0,0,0-.33.27,2.46,2.46,0,0,0-.14.38,1.09,1.09,0,0,1-.17.32q-.1.14-.42.09a3.64,3.64,0,0,1-1.07.78,4.15,4.15,0,0,1-1.27.39,1.14,1.14,0,0,1-.23-.15l-.22-.16a1,1,0,0,0-.23-.11.71.71,0,0,0-.29,0,1.81,1.81,0,0,0-.12-.58,2.43,2.43,0,0,0-.29-.49.89.89,0,0,1,.07-.49l.19-.45a2.75,2.75,0,0,0,.17-.45.85.85,0,0,0,0-.52.54.54,0,0,0,.2-.2,1,1,0,0,0,.07-.25,1.55,1.55,0,0,1,.07-.23.4.4,0,0,1,.2-.18.53.53,0,0,1,0-.52,1.86,1.86,0,0,1,.37-.3,3.3,3.3,0,0,0,.41-.29.5.5,0,0,0,.15-.49.8.8,0,0,1,.21-.15l.22-.11.21-.1a.79.79,0,0,0,.2-.17c-.07-.05-.1-.09-.1-.14a.53.53,0,0,1,0-.16l.06-.17a.2.2,0,0,0,0-.17,1.06,1.06,0,0,0,.69-.11l.57-.34a1.68,1.68,0,0,1,.55-.25.82.82,0,0,1,.65.17l.09.3c0,.13.09.27.13.4s.09.27.13.4a2.2,2.2,0,0,1,.07.28v1.17a2.07,2.07,0,0,0,.85.3,1.28,1.28,0,0,0,.85-.2c.11.1.21.13.31.08a1.51,1.51,0,0,0,.28-.15.67.67,0,0,1,.29-.1c.1,0,.19.08.29.25a1,1,0,0,1,.43-.25,2.14,2.14,0,0,1,.45-.05l.46,0A1,1,0,0,0,104.49,282.28Zm-5.73,1.42a.92.92,0,0,1-.5-.14,4.25,4.25,0,0,1-.43-.31,4.59,4.59,0,0,0-.44-.33,1.06,1.06,0,0,0-.55-.19,1.93,1.93,0,0,1-.31.33,3.08,3.08,0,0,0-.3.33,1.23,1.23,0,0,0-.19.38.74.74,0,0,0,.07.47.84.84,0,0,0-.45.46,2.69,2.69,0,0,0-.16.65l-.06.71a1.65,1.65,0,0,1-.19.63l.32-.22a.2.2,0,0,1,.09.09.12.12,0,0,1,0,.13.87.87,0,0,1,.26-.18,1.82,1.82,0,0,1,.3-.11l.31-.06a1.71,1.71,0,0,0,.3-.09c.25.14.42.17.53.09a.79.79,0,0,0,.26-.35c.07-.16.15-.32.22-.5a.54.54,0,0,1,.38-.31l-.1-.1a5.31,5.31,0,0,0,.45-.64A1.34,1.34,0,0,0,98.76,283.7Zm.1-1.17a1.65,1.65,0,0,1,.08-.47,3.11,3.11,0,0,0,.11-.49,1.19,1.19,0,0,0,0-.46.73.73,0,0,0-.29-.4.75.75,0,0,0-.26.24l-.21.31a1.2,1.2,0,0,1-.24.26.47.47,0,0,1-.36.06.28.28,0,0,0,0,.28,1.68,1.68,0,0,0,.18.21l.2.2a.28.28,0,0,1,.06.26.48.48,0,0,0,.16.08.78.78,0,0,0,.22,0,.5.5,0,0,0,.21,0A.22.22,0,0,0,98.86,282.53Z"/><path class="cls-6" d="M109.43,284.3a.92.92,0,0,1-.06.46.8.8,0,0,1-.15.21.8.8,0,0,0-.15.17.58.58,0,0,0-.07.33,4.48,4.48,0,0,1-.54.54,2.82,2.82,0,0,1-.4.27l-.42.25a6.62,6.62,0,0,0-.65.41h-.1c0,.15-.08.23-.15.26a1,1,0,0,1-.25,0l-.27,0c-.09,0-.16.11-.22.25a1.19,1.19,0,0,1-.43.06h-.45l-.23,0a.55.55,0,0,0-.23,0,.25.25,0,0,0-.12.08l-.14.11a.21.21,0,0,1-.15,0s-.09,0-.13-.12a.58.58,0,0,1-.32,0,.85.85,0,0,1-.28-.15,1.36,1.36,0,0,1-.24-.24l-.21-.26-.16-.16a.73.73,0,0,1-.16-.14,1,1,0,0,1-.24-.41,2.27,2.27,0,0,1-.09-.52,3,3,0,0,1,0-.52,2.62,2.62,0,0,1,.09-.47.78.78,0,0,0,.18-.3l.09-.35a2.14,2.14,0,0,1,.09-.34.67.67,0,0,1,.18-.3,1,1,0,0,1,.06-.35,1.92,1.92,0,0,1,.18-.31,1.6,1.6,0,0,1,.25-.27l.26-.24h.23a.78.78,0,0,1,.22,0,.37.37,0,0,1,.18.08.64.64,0,0,1,.11.22.78.78,0,0,1,0,.63,3.9,3.9,0,0,1-.34.46,2.19,2.19,0,0,0-.31.46.66.66,0,0,0,.06.6q-.17,0-.21.09a.54.54,0,0,0-.08.19.79.79,0,0,1-.06.22.3.3,0,0,1-.18.14.47.47,0,0,1,.1.31,2.72,2.72,0,0,0,0,.42.63.63,0,0,0,.13.31c.06.08.18.09.36,0a.61.61,0,0,0,.46.13,3,3,0,0,1,.51,0,.72.72,0,0,1,.35-.13.65.65,0,0,1,.28,0l.28.06a.65.65,0,0,0,.35,0c0-.17.1-.27.2-.3a1.6,1.6,0,0,1,.29-.05.87.87,0,0,0,.28-.05c.08,0,.14-.12.16-.29a.42.42,0,0,1,.28-.17l.33-.05a.71.71,0,0,0,.31-.13.56.56,0,0,0,.2-.37l.36-.28.18-.16.19-.13Zm-2.85-6.56a.41.41,0,0,0-.29.31,1.91,1.91,0,0,0,0,.42,2.68,2.68,0,0,1,0,.41c0,.13-.12.21-.3.25a1.31,1.31,0,0,0-.25-.33c-.1-.1-.21-.2-.3-.31a1.27,1.27,0,0,1-.24-.33.71.71,0,0,1-.06-.42l.74-.85a1.22,1.22,0,0,1,.28.14,1.2,1.2,0,0,1,.17.21c0,.08.1.16.14.24S106.53,277.65,106.58,277.74Z"/><path class="cls-6" d="M119.23,282.4l-.2.2-.12.14-.12.14-.19.22a1.71,1.71,0,0,0-.22.25,1,1,0,0,1-.24.23.27.27,0,0,0-.27.05,1.66,1.66,0,0,0-.18.19l-.14.21a.18.18,0,0,1-.17.08,5.52,5.52,0,0,1-.7.33,2.64,2.64,0,0,0-.68.4l-.11-.11-1.53.73a.42.42,0,0,0-.14.09l-.15.1a5.79,5.79,0,0,1-.67.31c-.23.1-.45.18-.68.26l-.19.06c.08.19.08.33,0,.41a.73.73,0,0,1-.34.17,3.14,3.14,0,0,1-.48.06,1,1,0,0,0-.41.1l-.36,0-.37,0-.38,0a1.73,1.73,0,0,1-.38-.05h0a.58.58,0,0,1-.43.06.83.83,0,0,1-.33-.22,2.75,2.75,0,0,1-.28-.37,3.73,3.73,0,0,0-.25-.39l-.22-.33a2.92,2.92,0,0,1-.23-.47,2.36,2.36,0,0,1-.12-.51.71.71,0,0,1,.11-.44,2.1,2.1,0,0,0,.22-.42,1.52,1.52,0,0,0,.08-.51c0-.07,0-.13,0-.19a1.15,1.15,0,0,1,0-.19h.33a.23.23,0,0,0,.13-.06.23.23,0,0,0,.06-.18.14.14,0,0,0-.06-.12.24.24,0,0,1-.06-.09,1,1,0,0,1,.17-.21l.14-.16a.84.84,0,0,0,.08-.19.62.62,0,0,0,0-.3,2.58,2.58,0,0,1,.42-.55c.16-.16.33-.31.5-.46l.54-.41c.19-.14.36-.29.53-.44a.5.5,0,0,0,.45,0,2.55,2.55,0,0,0,.3-.26,1.79,1.79,0,0,1,.26-.23c.09-.05.21,0,.35.08l0,0a1,1,0,0,1,.8-.36,1.32,1.32,0,0,1,.69.27,1,1,0,0,1,.37.5.28.28,0,0,1-.16.39.52.52,0,0,1,.16.38.66.66,0,0,1-.11.38,2.41,2.41,0,0,0-.23.36l-.2.39a6.36,6.36,0,0,1-.32.64,1.41,1.41,0,0,1-.5.5c-.18-.05-.29,0-.36.06a1,1,0,0,0-.14.29.91.91,0,0,1-.1.24c0,.06-.12,0-.25-.06l0,0,0,0a.87.87,0,0,0-.18.26.45.45,0,0,1-.18.22l-.28-.07-.28-.06a.87.87,0,0,1-.12.49,1,1,0,0,1-.3.28,2,2,0,0,1-.42.18,2.8,2.8,0,0,0-.46.16,2.13,2.13,0,0,0-.42.23,1,1,0,0,0-.32.39.53.53,0,0,0,.37.18,1.7,1.7,0,0,0,.45,0l.47,0a.7.7,0,0,1,.4.12h0a3.22,3.22,0,0,0,.68-.17l.64-.26c.21-.1.43-.18.65-.27a3.77,3.77,0,0,1,.68-.18.25.25,0,0,0,.2.13.65.65,0,0,0,.24,0v0l.06-.19.09-.18a.75.75,0,0,1,.25-.25,1.2,1.2,0,0,1,.31-.13,2.25,2.25,0,0,1,.36-.06l.38,0h0l0-.05a.55.55,0,0,1,.15-.24.67.67,0,0,1,.21-.09l.23-.05a.59.59,0,0,0,.24-.09.45.45,0,0,0,.44-.05l.34-.31.12.15,0-.06.33-.31a1.68,1.68,0,0,1,.21-.18,1.43,1.43,0,0,1,.24-.16l.39-.25c.14-.08.27-.17.4-.26a4,4,0,0,0,.39-.29.11.11,0,0,1,.08.11v.15a.46.46,0,0,0,0,.09A.12.12,0,0,0,119.23,282.4Zm-6.07-1.83,0,0h0a1.16,1.16,0,0,0-.52-.16.81.81,0,0,0-.37.12,1.6,1.6,0,0,0-.31.28c-.09.11-.19.21-.29.31a1.07,1.07,0,0,1-.36.21.79.79,0,0,1-.5,0c0,.16,0,.31-.08.46s0,.31,0,.47a1.08,1.08,0,0,0-.39.24,1.69,1.69,0,0,0-.23.36c-.06.12-.12.26-.18.4a1.53,1.53,0,0,1-.21.4l.06.07a.13.13,0,0,1,.13.05l.1.1a1.39,1.39,0,0,1,.44-.39,5.86,5.86,0,0,1,.55-.3l.55-.3a1,1,0,0,0,.4-.43,1.14,1.14,0,0,0,.7-.53,4.79,4.79,0,0,0,.4-.82,1.92,1.92,0,0,1,.11-.25A2.18,2.18,0,0,0,113.16,280.57Z"/><path class="cls-6" d="M137.57,283.68a8.38,8.38,0,0,1-.58,1.14,3.22,3.22,0,0,1-.58.67,4.64,4.64,0,0,1-.73.49c-.27.15-.61.36-1,.63a2.47,2.47,0,0,0-.54.11,1.82,1.82,0,0,0-.5.26,2.84,2.84,0,0,1-.8-.19,1.93,1.93,0,0,1-.69-.47,1,1,0,0,1-.13-.16c0-.06-.09-.11-.13-.16a1,1,0,0,1-.21-.34,2.18,2.18,0,0,1-.07-.38,1.09,1.09,0,0,0-.18-.48c-.08-.1-.23-.05-.45.14l-.13-.11,0,0-.22.17-.16.16-.15.16-.18.23-.38.45a1.22,1.22,0,0,1-.5.32l-.07.08s-.05,0-.1.05a.31.31,0,0,1-.21,0,.62.62,0,0,1-.19-.12.54.54,0,0,0-.28.08,1.17,1.17,0,0,0-.24.21l-.2.25a1.49,1.49,0,0,1-.21.22.68.68,0,0,0-.44,0l-.38.11a1.31,1.31,0,0,1-.39.05.59.59,0,0,1-.38-.23c0-.29-.1-.56-.14-.81s-.08-.4-.11-.58,0-.3,0-.34a.26.26,0,0,0,.07-.2,1.12,1.12,0,0,0,0-.21s0,0,0,0l0,0a.3.3,0,0,0,.11-.14.42.42,0,0,1,.11-.15c0-.08-.06-.17-.1-.26a.8.8,0,0,1-.06-.3.32.32,0,0,1,.08-.13l.17,0a.57.57,0,0,0,0-.14.33.33,0,0,1,0-.14.55.55,0,0,1,.06-.26l.14-.22a1.36,1.36,0,0,0,.13-.24.75.75,0,0,0,.06-.31v-.07a.31.31,0,0,0,.29-.12.7.7,0,0,0,.09-.29c0-.11,0-.21,0-.32a.33.33,0,0,1,.08-.24.21.21,0,0,1,.11-.05h.13l.12-.15s0-.1,0-.2a.34.34,0,0,0,.16,0,.4.4,0,0,0,.1-.12l.07-.15a.41.41,0,0,1,.1-.13.58.58,0,0,1,.19-.51,1.8,1.8,0,0,1,.43-.25,3.41,3.41,0,0,0,.48-.22.84.84,0,0,0,.36-.47c.13.08.23.09.32,0a2.43,2.43,0,0,0,.25-.2.52.52,0,0,1,.27-.15c.09,0,.22,0,.36.2a.38.38,0,0,1,.36-.3.83.83,0,0,1,.49.12v0h0a.52.52,0,0,1,.35.22,2.6,2.6,0,0,1,.2.41c0,.16.11.3.17.45a.79.79,0,0,0,.27.35c.06-.25.12-.51.17-.78a2.44,2.44,0,0,1,.27-.74c.09.11.18.13.28.06v0a1,1,0,0,1,.09-.43l.19-.37a1.29,1.29,0,0,0,.12-.38.73.73,0,0,0-.14-.45.6.6,0,0,0,.36-.28,1.92,1.92,0,0,0,.17-.44l.15-.49a1,1,0,0,1,.26-.43s0-.06,0-.09a.28.28,0,0,1,0-.09.4.4,0,0,1,.09-.2l.16-.18a.7.7,0,0,0,.15-.19.42.42,0,0,0,.06-.27,2.4,2.4,0,0,0,.26-.51c.08-.21.16-.41.25-.59a1.09,1.09,0,0,1,.31-.42.38.38,0,0,1,.45,0,.74.74,0,0,1,0,.32.48.48,0,0,1-.16.28.75.75,0,0,1,.13.15,4.73,4.73,0,0,1-.16.9c-.09.3-.17.59-.25.87l.06.06.06.06a4.17,4.17,0,0,0-.4.7,7.51,7.51,0,0,0-.27.76,3.38,3.38,0,0,0-.08.34,2.42,2.42,0,0,1-.1.32l-.17.32a2.68,2.68,0,0,0-.18.33,5.72,5.72,0,0,0-.28.68c-.09.23-.17.46-.25.69s-.19.56-.3.84a5.23,5.23,0,0,1-.37.8v.24a.31.31,0,0,1-.1.23l-.2.11-.21.15a.56.56,0,0,0-.15.31v0h0a.87.87,0,0,1,.07.6,4.56,4.56,0,0,1-.18.52,2.05,2.05,0,0,0-.14.51.59.59,0,0,0,.2.51.7.7,0,0,0,.11.46,1.22,1.22,0,0,0,.31.29,3.35,3.35,0,0,0,.36.21.8.8,0,0,1,.27.24,1.14,1.14,0,0,1,.32-.22,1.51,1.51,0,0,1,.33-.13l.34-.08.33-.09a1.24,1.24,0,0,0,.53-.25c.09-.1.14-.16.14-.19a.28.28,0,0,1,.16-.27,1.36,1.36,0,0,1,.32-.08l.37-.06a.42.42,0,0,0,.27-.22.35.35,0,0,0,.28-.11,2.68,2.68,0,0,0,.23-.26,2.3,2.3,0,0,1,.2-.22A.16.16,0,0,1,137.57,283.68Zm-6-2.25a.89.89,0,0,1-.31-.4,2.64,2.64,0,0,1-.13-.46,3,3,0,0,0-.14-.45.71.71,0,0,0-.31-.36h0l-.16,0-.18.05a.53.53,0,0,1,.15.17.26.26,0,0,1,0,.15.55.55,0,0,1-.08.15.93.93,0,0,0-.08.2s0,0-.11,0l-.14-.08a.88.88,0,0,1-.57.4l-.71.19s0,.09.05.13l.06.13a1.71,1.71,0,0,0-.63.71,9.19,9.19,0,0,0-.36.86,6.63,6.63,0,0,1-.36.87,1.9,1.9,0,0,1-.65.71,1.15,1.15,0,0,1,.1.23.27.27,0,0,0,.19.18,1.24,1.24,0,0,1,0,.33c0,.11,0,.22,0,.33s0,.22,0,.33a1.32,1.32,0,0,0,0,.34l0,0a.89.89,0,0,0,.71,0,1.67,1.67,0,0,0,.45-.34,5.3,5.3,0,0,1,.43-.38.83.83,0,0,1,.66-.09l.06-.08c0-.05,0-.1,0-.13a.59.59,0,0,1,0-.14.47.47,0,0,1,.09-.25,1.74,1.74,0,0,1,.19-.22,2.31,2.31,0,0,0,.2-.24l.18-.28a.93.93,0,0,1,.21-.23.3.3,0,0,1,.31,0l.27-1.06c0-.05.06-.09.14-.13a.91.91,0,0,0,.22-.13.26.26,0,0,0,.12-.19c0-.08,0-.18-.17-.31a.58.58,0,0,0,.05-.14.85.85,0,0,1,0-.17.3.3,0,0,1,.07-.11.15.15,0,0,1,.15,0Z"/><path class="cls-6" d="M147.23,282.4l-.2.2-.12.14-.11.14-.2.22a2.62,2.62,0,0,0-.22.25,1,1,0,0,1-.24.23.28.28,0,0,0-.27.05,1,1,0,0,0-.17.19l-.15.21a.17.17,0,0,1-.17.08,5.52,5.52,0,0,1-.7.33,2.64,2.64,0,0,0-.68.4l-.11-.11-1.53.73-.14.09-.15.1a5.11,5.11,0,0,1-.67.31c-.22.1-.45.18-.68.26l-.19.06c.08.19.08.33,0,.41a.74.74,0,0,1-.33.17,3.46,3.46,0,0,1-.49.06,1.07,1.07,0,0,0-.41.1l-.36,0-.37,0-.38,0a1.81,1.81,0,0,1-.38-.05h0a.58.58,0,0,1-.43.06.91.91,0,0,1-.33-.22,2.07,2.07,0,0,1-.27-.37c-.09-.14-.17-.27-.26-.39l-.22-.33a4.09,4.09,0,0,1-.23-.47,1.87,1.87,0,0,1-.11-.51.6.6,0,0,1,.11-.44,2.74,2.74,0,0,0,.21-.42,1.52,1.52,0,0,0,.08-.51,1.15,1.15,0,0,0,0-.19c0-.06,0-.12,0-.19h.33a.3.3,0,0,0,.14-.06.28.28,0,0,0,.05-.18.17.17,0,0,0-.05-.12.18.18,0,0,1-.07-.09,1,1,0,0,1,.17-.21l.14-.16a.56.56,0,0,0,.09-.19.81.81,0,0,0,0-.3,2.58,2.58,0,0,1,.42-.55c.16-.16.33-.31.5-.46s.36-.28.55-.41.36-.29.52-.44a.5.5,0,0,0,.45,0,2.55,2.55,0,0,0,.3-.26,2.53,2.53,0,0,1,.26-.23c.09-.05.21,0,.36.08l0,0a1,1,0,0,1,.8-.36,1.32,1.32,0,0,1,.69.27.93.93,0,0,1,.37.5.28.28,0,0,1-.16.39.52.52,0,0,1,.16.38.59.59,0,0,1-.11.38,2.41,2.41,0,0,0-.23.36l-.2.39a4.78,4.78,0,0,1-.32.64,1.41,1.41,0,0,1-.5.5q-.25-.07-.36.06a1,1,0,0,0-.14.29.67.67,0,0,1-.1.24c0,.06-.12,0-.25-.06l0,0,0,0a1.51,1.51,0,0,0-.18.26.4.4,0,0,1-.18.22l-.28-.07-.28-.06a.87.87,0,0,1-.12.49.81.81,0,0,1-.3.28,2.2,2.2,0,0,1-.41.18,2.51,2.51,0,0,0-.46.16,2,2,0,0,0-.43.23.93.93,0,0,0-.31.39.5.5,0,0,0,.36.18,1.77,1.77,0,0,0,.46,0l.46,0a.7.7,0,0,1,.4.12h0a3.22,3.22,0,0,0,.68-.17l.64-.26c.21-.1.43-.18.65-.27a4,4,0,0,1,.68-.18.27.27,0,0,0,.2.13.65.65,0,0,0,.24,0v0l.06-.19.09-.18a.75.75,0,0,1,.25-.25,1.13,1.13,0,0,1,.32-.13,2,2,0,0,1,.35-.06l.38,0h0l0-.05a.55.55,0,0,1,.15-.24.78.78,0,0,1,.21-.09l.23-.05a.5.5,0,0,0,.24-.09.44.44,0,0,0,.44-.05l.34-.31.12.15,0-.06.33-.31a1.68,1.68,0,0,1,.21-.18,1.43,1.43,0,0,1,.24-.16l.39-.25.41-.26.38-.29a.11.11,0,0,1,.08.11v.15a.2.2,0,0,0,0,.09A.09.09,0,0,0,147.23,282.4Zm-6.07-1.83,0,0h0a1.16,1.16,0,0,0-.51-.16.85.85,0,0,0-.38.12,1.32,1.32,0,0,0-.3.28l-.3.31a1.07,1.07,0,0,1-.36.21.76.76,0,0,1-.49,0l-.09.46c0,.16,0,.31-.05.47a1,1,0,0,0-.38.24,1.41,1.41,0,0,0-.24.36,3.7,3.7,0,0,0-.17.4,1.94,1.94,0,0,1-.22.4l.06.07a.13.13,0,0,1,.13.05l.11.1a1.25,1.25,0,0,1,.43-.39,5.86,5.86,0,0,1,.55-.3l.55-.3a1,1,0,0,0,.4-.43,1.12,1.12,0,0,0,.7-.53,4.79,4.79,0,0,0,.4-.82,1.92,1.92,0,0,1,.11-.25A2.18,2.18,0,0,0,141.16,280.57Z"/><path class="cls-6" d="M165.22,281.25a1.41,1.41,0,0,1-.24.58,2.13,2.13,0,0,1-.44.46,2.44,2.44,0,0,1-.55.35,2.66,2.66,0,0,1-.58.2,6.05,6.05,0,0,1-.81.28,5,5,0,0,1-.76.13,6.88,6.88,0,0,1-.79,0l-.92,0a.31.31,0,0,0-.19.14.59.59,0,0,0-.05.22,1,1,0,0,0,0,.24.88.88,0,0,1,0,.23.21.21,0,0,0-.21.09l-.15.18a.77.77,0,0,1-.09.46,1.2,1.2,0,0,1-.24.26l-.31.23a1.18,1.18,0,0,0-.29.36.47.47,0,0,0-.07.17c0,.06,0,.12,0,.2a.3.3,0,0,1-.2.25,1.65,1.65,0,0,1-.32.06,1.4,1.4,0,0,0-.29.09.35.35,0,0,0-.15.32,2.49,2.49,0,0,0-.63.28l-.61.39a2.88,2.88,0,0,1-.62.29,1.18,1.18,0,0,1-.67,0l-.2-.09a.7.7,0,0,1-.18-.12l-.08-.11-.08-.11a1.92,1.92,0,0,1-.22-.51,3.78,3.78,0,0,1-.1-.57,5.44,5.44,0,0,1,0-.57c0-.2,0-.39,0-.56a.14.14,0,0,0,.14,0l.11-.1-.13-.37a.13.13,0,0,0,.14,0,.52.52,0,0,0,.11-.1c-.15-.08-.23-.16-.23-.24a.57.57,0,0,1,.07-.27,1.47,1.47,0,0,1,.18-.28.53.53,0,0,0,.11-.31,4.72,4.72,0,0,1,.08-.67c0-.21.09-.41.15-.62l.19-.61a6.16,6.16,0,0,0,.18-.65.7.7,0,0,0,.45-.23l.41-.37a.92.92,0,0,1,.44-.22.63.63,0,0,1,.52.22,1.14,1.14,0,0,1-.06.64,4.23,4.23,0,0,1-.25.58,4.94,4.94,0,0,0-.26.57,1.15,1.15,0,0,0,0,.64,1.26,1.26,0,0,0-.73.72,4.52,4.52,0,0,0-.23,1c0,.11,0,.22,0,.34a1.29,1.29,0,0,1-.1.35.56.56,0,0,1,0,.4c0,.13-.08.26-.11.39a.88.88,0,0,0,0,.35.46.46,0,0,0,.23.31,4.87,4.87,0,0,0,1.66-.82,6.3,6.3,0,0,0,1.26-1.35c.21-.3.41-.6.59-.9a5.59,5.59,0,0,0,.45-.92,3.9,3.9,0,0,0,.23-1,3.34,3.34,0,0,0-.06-1.08.41.41,0,0,0,.27-.15l.23-.23a.4.4,0,0,1,.24-.09c.08,0,.16.07.25.22s.22.15.22.24a.73.73,0,0,1,0,.29,2.45,2.45,0,0,0-.08.29.28.28,0,0,0,.13.28.44.44,0,0,0-.1.12.88.88,0,0,0-.1.22c0,.09-.06.16-.08.24a.27.27,0,0,0,0,.15c.09.16.18.24.29.24a.83.83,0,0,0,.34-.05,1.35,1.35,0,0,1,.36-.08.41.41,0,0,1,.34.14l.66-.1.56-.11c.18,0,.37-.08.56-.13s.41-.11.65-.17a.92.92,0,0,1,.43-.32Z"/><path class="cls-6" d="M172.84,282.28a.42.42,0,0,1,0,.37.87.87,0,0,1-.27.27l-.37.22a1.33,1.33,0,0,0-.33.21,11.17,11.17,0,0,1-1.19.21c-.36,0-.75.1-1.18.17a.86.86,0,0,1-.36,0,1.35,1.35,0,0,0-.35,0h-.36a.48.48,0,0,0-.44.23,1.83,1.83,0,0,0-.17.45,3.38,3.38,0,0,1-.16.48.56.56,0,0,1-.4.32.11.11,0,0,0,0,.13l.08.1a.46.46,0,0,0-.33.27c-.05.12-.1.25-.14.38a.9.9,0,0,1-.17.32q-.1.14-.42.09a3.6,3.6,0,0,1-1.06.78,4.3,4.3,0,0,1-1.28.39,1.5,1.5,0,0,1-.23-.15l-.22-.16a1,1,0,0,0-.23-.11.7.7,0,0,0-.29,0,1.81,1.81,0,0,0-.12-.58,2,2,0,0,0-.29-.49,1,1,0,0,1,.07-.49c.06-.15.13-.31.2-.45a4.13,4.13,0,0,0,.17-.45,1,1,0,0,0,0-.52.48.48,0,0,0,.2-.2.72.72,0,0,0,.07-.25,1.55,1.55,0,0,1,.07-.23.39.39,0,0,1,.21-.18c-.08-.24-.07-.41,0-.52a1.94,1.94,0,0,1,.38-.3l.41-.29a.53.53,0,0,0,.14-.49.8.8,0,0,1,.21-.15,1.51,1.51,0,0,0,.22-.11l.22-.1a.75.75,0,0,0,.19-.17c-.07-.05-.1-.09-.1-.14a1.24,1.24,0,0,1,0-.16c0-.05,0-.11.07-.17a.2.2,0,0,0,0-.17,1.06,1.06,0,0,0,.69-.11l.57-.34a1.78,1.78,0,0,1,.55-.25.82.82,0,0,1,.65.17l.09.3c.05.13.09.27.14.4l.12.4a2.2,2.2,0,0,1,.07.28v1.17a2.12,2.12,0,0,0,.85.3,1.27,1.27,0,0,0,.85-.2c.11.1.21.13.31.08a2,2,0,0,0,.29-.15.59.59,0,0,1,.28-.1c.1,0,.2.08.29.25a1,1,0,0,1,.43-.25,2.3,2.3,0,0,1,.45-.05l.46,0A.89.89,0,0,0,172.84,282.28Zm-5.73,1.42a.92.92,0,0,1-.5-.14c-.14-.09-.28-.2-.43-.31a3.61,3.61,0,0,0-.44-.33,1.06,1.06,0,0,0-.54-.19,2.42,2.42,0,0,1-.31.33,2.38,2.38,0,0,0-.31.33,1,1,0,0,0-.18.38.67.67,0,0,0,.06.47.88.88,0,0,0-.45.46,2.69,2.69,0,0,0-.16.65l-.06.71a1.5,1.5,0,0,1-.19.63l.32-.22a.28.28,0,0,1,.1.09.15.15,0,0,1,0,.13.8.8,0,0,1,.27-.18,1.33,1.33,0,0,1,.3-.11l.3-.06a1.58,1.58,0,0,0,.31-.09c.24.14.42.17.52.09A.89.89,0,0,0,166,286c.06-.16.14-.32.22-.5a.5.5,0,0,1,.38-.31l-.11-.1a5.31,5.31,0,0,0,.45-.64A1.34,1.34,0,0,0,167.11,283.7Zm.11-1.17a1.62,1.62,0,0,1,.07-.47,5,5,0,0,0,.12-.49,1.18,1.18,0,0,0,0-.46.68.68,0,0,0-.29-.4.85.85,0,0,0-.26.24l-.2.31a1,1,0,0,1-.25.26.47.47,0,0,1-.36.06.34.34,0,0,0,0,.28,1.68,1.68,0,0,0,.18.21l.2.2a.28.28,0,0,1,.06.26.54.54,0,0,0,.17.08.65.65,0,0,0,.21,0,.5.5,0,0,0,.21,0A.24.24,0,0,0,167.22,282.53Z"/><path class="cls-6" d="M181.18,286.15h-.27l-.17,0a.33.33,0,0,0-.16.05l-.24.14a.7.7,0,0,1-.15.24,1,1,0,0,1-.22.13l-.26.1a.79.79,0,0,0-.25.17,2.41,2.41,0,0,1-2-.5.93.93,0,0,1-.18-.16l-.19-.16s-.07-.06-.08-.05l-.06-.07a.73.73,0,0,1-.13-.36,2.7,2.7,0,0,0-.06-.41.74.74,0,0,0-.17-.33.5.5,0,0,0-.43-.13,2.61,2.61,0,0,1-.42.62,3.3,3.3,0,0,1-.61.57,3.85,3.85,0,0,1-.71.41,1.77,1.77,0,0,1-.71.16.88.88,0,0,1-.4.5,2.34,2.34,0,0,1-.61.26l-.12,0-.1,0a.45.45,0,0,1-.32-.07l-.22-.19a1.3,1.3,0,0,0-.22-.19.53.53,0,0,0-.32-.09l-.33-.75a3.83,3.83,0,0,1-.23-.75.23.23,0,0,0,.14-.18c0-.07,0-.15,0-.23-.16,0-.24-.11-.25-.18a.5.5,0,0,1,.05-.23l.1-.22a.14.14,0,0,0-.05-.19,5.87,5.87,0,0,1,.51-1.72,3.85,3.85,0,0,1,1.13-1.4.4.4,0,0,1,0-.42.5.5,0,0,1,.34-.16.65.65,0,0,1,.38.09.39.39,0,0,1,.18.35.45.45,0,0,1,0,.2l-.06.19a4,4,0,0,1-.27.85,7.49,7.49,0,0,1-.38.81l-.41.79a5,5,0,0,0-.36.82c-.12.08-.16.16-.12.25a1.28,1.28,0,0,0,.15.25.49.49,0,0,1,.11.25c0,.07-.09.15-.27.22a.3.3,0,0,0,0,.35,2,2,0,0,1,.22.32h.23a.25.25,0,0,0,.18-.13.28.28,0,0,0,.31,0l.3-.18a1.32,1.32,0,0,1,.33-.18.49.49,0,0,1,.42,0,.74.74,0,0,0,.17-.25,2.44,2.44,0,0,1,.14-.28,1,1,0,0,1,.18-.22.41.41,0,0,1,.32-.06,1.72,1.72,0,0,1,.54-.6,7.38,7.38,0,0,1,.68-.46,5.29,5.29,0,0,0,.62-.47,1.14,1.14,0,0,0,.34-.65,10.93,10.93,0,0,0,.56-1,3.58,3.58,0,0,1,.67-.91.4.4,0,0,1,.15-.19.58.58,0,0,1,.22-.08.45.45,0,0,1,.23,0,.57.57,0,0,1,.21.13,1,1,0,0,1-.07.48c-.06.15-.13.29-.2.43a1.74,1.74,0,0,0-.17.45.94.94,0,0,0,0,.54,3,3,0,0,1-.4.2,3.22,3.22,0,0,0-.37.2.89.89,0,0,0-.29.26,1,1,0,0,0-.17.42c.26.1.42.22.47.37a1.51,1.51,0,0,1,.07.48,3.12,3.12,0,0,0,0,.52.88.88,0,0,0,.37.54l.08.06.1.06a.45.45,0,0,0,.26,0l.23-.1a.45.45,0,0,1,.23,0c.09,0,.18.06.29.18.15-.19.28-.19.41,0,.12-.21.22-.34.32-.37a.72.72,0,0,1,.29,0,.69.69,0,0,0,.28,0c.1,0,.21-.15.32-.36l.14.13c.06-.16.13-.23.21-.23a1,1,0,0,1,.24.05.37.37,0,0,0,.21,0s.08-.14.08-.35a.41.41,0,0,0,.23-.06l.19-.13a.88.88,0,0,1,.21-.12.61.61,0,0,1,.28-.05l-.38.92Z"/><path class="cls-6" d="M191.81,283.22a3.83,3.83,0,0,1-.17.69,1.46,1.46,0,0,1-.26.4,1.8,1.8,0,0,1-.39.29,5.17,5.17,0,0,0-.56.4l-.22.17a1.4,1.4,0,0,0-.2.17,4.9,4.9,0,0,0-.72.29l-.87.39c-.3.13-.58.25-.85.35a1.59,1.59,0,0,1-.65.11.44.44,0,0,1-.31.15l-.34,0-.38,0a.64.64,0,0,0-.35.17l0,0s0,0,0,0h0s0,0,0,.05a.54.54,0,0,1-.33.2.76.76,0,0,1-.33-.05,1.73,1.73,0,0,1-.33-.17,1.14,1.14,0,0,0-.34-.15.77.77,0,0,0-.34,0,.69.69,0,0,0-.35.24.45.45,0,0,0-.33-.3,2.12,2.12,0,0,0-.44-.05,2.82,2.82,0,0,1-.43-.05.34.34,0,0,1-.28-.27h0l-.31-.27,0,.05a.61.61,0,0,0-.12.16.86.86,0,0,1-.1.16c-.08.12-.16.23-.25.34a1.7,1.7,0,0,1-.3.3,1.78,1.78,0,0,1-.36.19.94.94,0,0,1-.41,0,1.06,1.06,0,0,1,.2-.64l.38-.58a1.54,1.54,0,0,0,.23-.59.76.76,0,0,0-.24-.63.74.74,0,0,0-.18-.41c-.12-.13-.22-.26-.32-.39a.83.83,0,0,1-.17-.39c0-.13.07-.25.26-.38a.26.26,0,0,1-.18-.1.53.53,0,0,1,0-.16l.07-.15a.42.42,0,0,0,.18,0l.17-.06h.15a.3.3,0,0,1,.13.14,1.46,1.46,0,0,1,.07.19,1.72,1.72,0,0,0,.07.21,2.65,2.65,0,0,0,.3.55,2.93,2.93,0,0,0,.39.48l0,0a.15.15,0,0,1,.06-.07l.14-.13.13-.12.08-.09.34-.31a4,4,0,0,0,.29-.3,1.31,1.31,0,0,0,.19-.35,1.6,1.6,0,0,0,.06-.46c.31-.21.6-.44.9-.68s.59-.49.89-.73a8.69,8.69,0,0,1,.95-.63,3.44,3.44,0,0,1,1.06-.38,1.15,1.15,0,0,0,.31.37l.34.26a2.36,2.36,0,0,1,.31.32,1.22,1.22,0,0,1,.19.53,3,3,0,0,1,0,1.19,9.44,9.44,0,0,1-.31,1.15c-.08.24-.15.48-.22.72a3.2,3.2,0,0,0-.09.75l.1,0a.56.56,0,0,1,.3-.22,2,2,0,0,1,.35-.06l.34-.05a.53.53,0,0,0,.29-.21.5.5,0,0,0,.36,0,1.35,1.35,0,0,0,.33-.18l.32-.25a.8.8,0,0,1,.33-.17v-.12a2.72,2.72,0,0,1,.45-.25l.36-.15a2.36,2.36,0,0,0,.32-.2,2.29,2.29,0,0,0,.36-.44.32.32,0,0,1,.17,0A.15.15,0,0,1,191.81,283.22Zm-5.11-1.45-.15-.06a.44.44,0,0,1-.16-.06,1.2,1.2,0,0,0-.25-.13.36.36,0,0,0-.28,0v0h0a10.25,10.25,0,0,0-1.38,1.25q-.65.68-1.35,1.32L183,284a.52.52,0,0,0-.11.28v.28a1,1,0,0,1,0,.25.4.4,0,0,1-.18.22l0,0c0,.13.09.22.17.25a.46.46,0,0,0,.23.05l.24,0a.29.29,0,0,1,.19,0,.15.15,0,0,1,.06.09.38.38,0,0,1,0,.1h.33a1,1,0,0,1,.34,0,.23.23,0,0,1,.21.22l.6-.24a1,1,0,0,0,.5-.43l.11.1h0s0,0,0,0a1.54,1.54,0,0,0,.58-.65,3.83,3.83,0,0,0,.31-.92,6.71,6.71,0,0,0,.13-1C186.69,282.31,186.7,282,186.7,281.77Z"/><path class="cls-6" d="M209.87,284a1,1,0,0,0-.46.39,2.22,2.22,0,0,0-.18.49,3.71,3.71,0,0,1-.16.47.75.75,0,0,1-.4.38.54.54,0,0,1-.29.36,4.68,4.68,0,0,1-.45.19,1.44,1.44,0,0,0-.41.21.51.51,0,0,0-.19.45,4.61,4.61,0,0,1-.63.3,4.23,4.23,0,0,1-.72.19,3.11,3.11,0,0,1-.74,0,1.93,1.93,0,0,1-.69-.14,2.2,2.2,0,0,1-.43-.27L204,287a.67.67,0,0,1-.14-.11,1.55,1.55,0,0,1-.3-.41,3.7,3.7,0,0,1-.19-.5,4.52,4.52,0,0,1-.11-.53c0-.17-.06-.34-.08-.49l.54-1.47a2.66,2.66,0,0,1-.68-.78,4,4,0,0,0-.65-.83.66.66,0,0,1-.19.18.19.19,0,0,0-.09.23l.15.13a12.62,12.62,0,0,0-1,1.2,5.92,5.92,0,0,0-.77,1.34.53.53,0,0,0-.46.15,1.57,1.57,0,0,0-.22.38,1.87,1.87,0,0,1-.22.39.44.44,0,0,1-.44.15c0,.1-.09.22-.14.34a1.83,1.83,0,0,1-.18.34.93.93,0,0,1-.25.27.55.55,0,0,1-.36.11.4.4,0,0,1-.14-.24.69.69,0,0,1,0-.28,1.59,1.59,0,0,1,.12-.27,1.3,1.3,0,0,0,.1-.27,1.84,1.84,0,0,1,.43-.77l.61-.69a4.11,4.11,0,0,0,.53-.73,1.45,1.45,0,0,0,.18-.89,1.84,1.84,0,0,0,.38-.08,1.41,1.41,0,0,0,.37-.18.7.7,0,0,0,.26-.28.58.58,0,0,0,.07-.4.21.21,0,0,1-.13-.17.81.81,0,0,1,0-.22,1.07,1.07,0,0,0,.52-.36,5.21,5.21,0,0,0,.36-.55l.31-.6a1.89,1.89,0,0,1,.41-.52,2.22,2.22,0,0,0,.41.2l.39.21a.8.8,0,0,0-.16.34,1.84,1.84,0,0,0,0,.33V281a.75.75,0,0,1-.09.34,1.86,1.86,0,0,1,.4.48,1.55,1.55,0,0,0,.41.47.71.71,0,0,1,.39-.14h.45a1.51,1.51,0,0,0,.43,0,.48.48,0,0,0,.34-.24.24.24,0,0,0,.18.06H206a.56.56,0,0,1,.2,0,.19.19,0,0,1,.11.14.41.41,0,0,1,0,.17s0,.07-.05.14,0,.12,0,.12,0,0,0,.1a.58.58,0,0,1-.24.32l-.33.26a1.38,1.38,0,0,0-.31.28.56.56,0,0,0-.14.39.78.78,0,0,0-.45.34,1.41,1.41,0,0,0-.18.51,5.61,5.61,0,0,0-.06.59,1.92,1.92,0,0,1-.1.55l.13.15.12-.15a.82.82,0,0,0,.49.36,1.67,1.67,0,0,0,.59.05,1.17,1.17,0,0,1,.35-.35,2.1,2.1,0,0,1,.42-.22l.47-.16a3.66,3.66,0,0,0,.46-.18,1.41,1.41,0,0,0,.3-.19l.27-.23c.29-.28.59-.55.87-.81l.88-.81a.11.11,0,0,1,.11.09.64.64,0,0,1,0,.2,1.62,1.62,0,0,1,0,.22Z"/><path class="cls-6" d="M220,282.4l-.2.2-.12.14-.11.14-.2.22a2.62,2.62,0,0,0-.22.25,1.25,1.25,0,0,1-.23.23.29.29,0,0,0-.28.05,1,1,0,0,0-.17.19c-.06.08-.1.15-.15.21a.17.17,0,0,1-.17.08,5.52,5.52,0,0,1-.7.33,2.58,2.58,0,0,0-.67.4l-.12-.11-1.52.73-.15.09-.15.1a5,5,0,0,1-.66.31c-.23.1-.46.18-.68.26l-.2.06c.08.19.08.33,0,.41a.69.69,0,0,1-.33.17,3.46,3.46,0,0,1-.49.06,1.07,1.07,0,0,0-.41.1l-.35,0-.38,0-.38,0a1.81,1.81,0,0,1-.38-.05h0a.58.58,0,0,1-.43.06,1,1,0,0,1-.33-.22,2.07,2.07,0,0,1-.27-.37,3.77,3.77,0,0,0-.26-.39l-.22-.33a2.86,2.86,0,0,1-.22-.47,1.58,1.58,0,0,1-.12-.51.6.6,0,0,1,.11-.44,1.65,1.65,0,0,0,.21-.42,1.52,1.52,0,0,0,.08-.51,1.15,1.15,0,0,0,0-.19V283h.33a.31.31,0,0,0,.13-.06.28.28,0,0,0,.05-.18.17.17,0,0,0-.05-.12.18.18,0,0,1-.07-.09,1.39,1.39,0,0,1,.17-.21l.14-.16a.56.56,0,0,0,.09-.19.64.64,0,0,0,0-.3,2.58,2.58,0,0,1,.42-.55c.16-.16.33-.31.51-.46s.35-.28.54-.41.36-.29.52-.44a.5.5,0,0,0,.45,0,2.55,2.55,0,0,0,.3-.26,1.84,1.84,0,0,1,.27-.23c.08-.05.2,0,.35.08l0,0a1,1,0,0,1,.79-.36,1.32,1.32,0,0,1,.69.27,1,1,0,0,1,.38.5.28.28,0,0,1-.16.39.57.57,0,0,1,.16.38.6.6,0,0,1-.12.38,3.61,3.61,0,0,0-.23.36l-.2.39a4.78,4.78,0,0,1-.32.64,1.33,1.33,0,0,1-.5.5c-.17-.05-.29,0-.35.06a.78.78,0,0,0-.14.29.9.9,0,0,1-.11.24c0,.06-.12,0-.25-.06l0,0,0,0a1.15,1.15,0,0,0-.19.26.4.4,0,0,1-.18.22l-.28-.07-.28-.06a1,1,0,0,1-.11.49,1,1,0,0,1-.3.28,2.65,2.65,0,0,1-.42.18,2.51,2.51,0,0,0-.46.16,2.22,2.22,0,0,0-.43.23,1,1,0,0,0-.31.39.5.5,0,0,0,.36.18,1.77,1.77,0,0,0,.46,0l.46,0a.7.7,0,0,1,.4.12h0a3.08,3.08,0,0,0,.68-.17l.65-.26c.21-.1.42-.18.64-.27a4,4,0,0,1,.68-.18.27.27,0,0,0,.2.13.65.65,0,0,0,.24,0l0,0a1.8,1.8,0,0,0,.05-.19,1.5,1.5,0,0,1,.09-.18.75.75,0,0,1,.25-.25,1.13,1.13,0,0,1,.32-.13,1.93,1.93,0,0,1,.36-.06l.38,0h0v-.05a.55.55,0,0,1,.15-.24,1,1,0,0,1,.21-.09l.23-.05a.58.58,0,0,0,.25-.09.43.43,0,0,0,.43-.05l.34-.31.12.15,0-.06.33-.31.21-.18a1.2,1.2,0,0,1,.25-.16l.38-.25.41-.26.39-.29a.11.11,0,0,1,.07.11v.15a.2.2,0,0,0,0,.09A.09.09,0,0,0,220,282.4Zm-6.07-1.83,0,0h0a1.13,1.13,0,0,0-.51-.16.85.85,0,0,0-.38.12,1.32,1.32,0,0,0-.3.28c-.1.11-.19.21-.3.31a1.07,1.07,0,0,1-.36.21.76.76,0,0,1-.49,0c0,.16-.06.31-.08.46a2.5,2.5,0,0,0-.05.47.93.93,0,0,0-.39.24,1.74,1.74,0,0,0-.24.36,3.7,3.7,0,0,0-.17.4,1.94,1.94,0,0,1-.22.4l.06.07a.12.12,0,0,1,.13.05l.11.1a1.25,1.25,0,0,1,.43-.39,6,6,0,0,1,.56-.3l.55-.3a1.08,1.08,0,0,0,.39-.43,1.12,1.12,0,0,0,.7-.53,4.79,4.79,0,0,0,.4-.82l.11-.25A2.18,2.18,0,0,0,213.92,280.57Z"/><path class="cls-6" d="M228.46,276.29a.7.7,0,0,1-.46.23,2.7,2.7,0,0,1-.49,0,2.56,2.56,0,0,0-.47,0,.52.52,0,0,0-.39.24,1.28,1.28,0,0,0-.48,0l-.51.1-.53.13a1.9,1.9,0,0,1-.53,0l-.25-.25a.39.39,0,0,1-.28.2.44.44,0,0,1-.36-.08,1,1,0,0,1-.62.19l-.6,0a1.08,1.08,0,0,0-.55.12,1,1,0,0,0-.43.6c-.09.23-.17.46-.25.68s-.15.46-.23.69c-.22.58-.43,1.16-.65,1.73s-.47,1.14-.74,1.69a10,10,0,0,0,0,1.34c0,.45.08.89.13,1.33a.92.92,0,0,0,0,.37,2,2,0,0,0,.1.38,2.92,2.92,0,0,0,.17.36,2.32,2.32,0,0,0,.22.3l.27-.25.36.51c.1-.13.22-.26.35-.4a5.14,5.14,0,0,1,.41-.4,2.94,2.94,0,0,1,.47-.31,1.76,1.76,0,0,1,.49-.16l.19-.22a.91.91,0,0,1,.19-.2.94.94,0,0,1,.22-.12.52.52,0,0,1,.3,0,3,3,0,0,0,.84-.66l.73-.81a8.91,8.91,0,0,1,.77-.74,2.36,2.36,0,0,1,.95-.47,9.48,9.48,0,0,1-.9,1.65,8.39,8.39,0,0,1-1.21,1.43,1.73,1.73,0,0,1-.44.36L224,286l-.25.15c-.26.18-.52.37-.76.57a7.31,7.31,0,0,0-.71.66.2.2,0,0,0-.11-.11.47.47,0,0,0-.17,0h-.36a2.15,2.15,0,0,1-.73.33,1.68,1.68,0,0,1-.79.05l-.28-.11a1.62,1.62,0,0,1-.27-.14,2.39,2.39,0,0,1-.85-.94,3,3,0,0,1-.32-1.24l-.11-.12a.85.85,0,0,0,.24-.35,1.1,1.1,0,0,0,0-.36,2.87,2.87,0,0,0-.08-.38,2.57,2.57,0,0,1-.06-.4.8.8,0,0,1,0-.22l.06-.21c.07-.31.15-.61.22-.91s.14-.6.22-.9c.19-.74.42-1.48.68-2.21s.53-1.44.81-2.16a2,2,0,0,0-.47-.11l-.48,0H219a1.67,1.67,0,0,1-.48-.11l-.1-.05h-.11l-.21,0-.26,0a1,1,0,0,1-.25,0,.15.15,0,0,1-.12-.13v-.15a.43.43,0,0,1,.1-.31.42.42,0,0,1,.22-.11l.3,0a.55.55,0,0,0,.3-.09,6.2,6.2,0,0,0,.78.12,2.81,2.81,0,0,0,.71,0,2.69,2.69,0,0,0,.67-.19,2.81,2.81,0,0,0,.66-.44,4.56,4.56,0,0,0,.35-1c.08-.34.17-.69.27-1a4.16,4.16,0,0,1,.4-.94,2.06,2.06,0,0,1,.76-.73.68.68,0,0,1,.41.06l.35.19c0,.14-.08.28-.11.43s-.06.29-.1.44a2.9,2.9,0,0,1-.12.42,1.11,1.11,0,0,1-.22.38c.12.05.2.11.22.18a.29.29,0,0,1,0,.22,2.36,2.36,0,0,1-.15.25.55.55,0,0,0-.1.23.35.35,0,0,0-.27.21,1.47,1.47,0,0,1-.23.29.34.34,0,0,0,0,.42l.29.34a.46.46,0,0,0,.26,0l.24-.08a.6.6,0,0,1,.22,0,.24.24,0,0,1,.19.11.35.35,0,0,1,.29-.14,1.57,1.57,0,0,1,.29.08,1,1,0,0,0,.3,0c.09,0,.19-.08.27-.23a.44.44,0,0,1,.33,0,1.25,1.25,0,0,1,.29.11,1.39,1.39,0,0,0,.26.1.27.27,0,0,0,.25-.05,2.57,2.57,0,0,0,.49,0,5,5,0,0,0,.54-.06l.55-.11.49-.11a.6.6,0,0,1,.26.23.31.31,0,0,1,0,.21,1.23,1.23,0,0,1-.06.22A.62.62,0,0,0,228.46,276.29Z"/><path class="cls-6" d="M235.46,284a1,1,0,0,0-.46.39,2.88,2.88,0,0,0-.18.49,3.71,3.71,0,0,1-.16.47.75.75,0,0,1-.4.38.54.54,0,0,1-.29.36,4.68,4.68,0,0,1-.45.19,1.44,1.44,0,0,0-.41.21.51.51,0,0,0-.19.45,4.61,4.61,0,0,1-.63.3,4.23,4.23,0,0,1-.72.19,3.11,3.11,0,0,1-.74,0,2,2,0,0,1-.69-.14,1.88,1.88,0,0,1-.42-.27l-.14-.09a.67.67,0,0,1-.14-.11,1.55,1.55,0,0,1-.3-.41,3.7,3.7,0,0,1-.19-.5c0-.17-.08-.35-.11-.53s-.06-.34-.08-.49l.55-1.47a2.56,2.56,0,0,1-.69-.78,4,4,0,0,0-.65-.83.66.66,0,0,1-.19.18.19.19,0,0,0-.09.23l.15.13a12.62,12.62,0,0,0-1,1.2,5.92,5.92,0,0,0-.77,1.34.53.53,0,0,0-.46.15,2,2,0,0,0-.22.38,1.5,1.5,0,0,1-.22.39.44.44,0,0,1-.44.15l-.14.34a1.83,1.83,0,0,1-.18.34.93.93,0,0,1-.25.27.53.53,0,0,1-.36.11.34.34,0,0,1-.13-.24.9.9,0,0,1,0-.28,1.59,1.59,0,0,1,.12-.27,1.3,1.3,0,0,0,.1-.27,1.84,1.84,0,0,1,.43-.77l.61-.69a3.67,3.67,0,0,0,.53-.73,1.45,1.45,0,0,0,.18-.89,2.08,2.08,0,0,0,.39-.08,1.52,1.52,0,0,0,.36-.18.81.81,0,0,0,.27-.28.64.64,0,0,0,.06-.4.21.21,0,0,1-.13-.17.81.81,0,0,1,0-.22,1.07,1.07,0,0,0,.52-.36,5.21,5.21,0,0,0,.36-.55c.11-.2.21-.4.31-.6a1.89,1.89,0,0,1,.41-.52,2.22,2.22,0,0,0,.41.2l.39.21a.8.8,0,0,0-.16.34,1.84,1.84,0,0,0,0,.33V281a.75.75,0,0,1-.09.34,1.86,1.86,0,0,1,.4.48,1.55,1.55,0,0,0,.41.47.71.71,0,0,1,.39-.14h.45a1.51,1.51,0,0,0,.43,0,.48.48,0,0,0,.34-.24.24.24,0,0,0,.18.06h.23a.66.66,0,0,1,.21,0,.21.21,0,0,1,.1.14.29.29,0,0,1,0,.17s0,.07,0,.14,0,.12,0,.12a.3.3,0,0,1,0,.1.66.66,0,0,1-.25.32l-.33.26a1.38,1.38,0,0,0-.31.28.56.56,0,0,0-.14.39.81.81,0,0,0-.45.34,1.41,1.41,0,0,0-.18.51,5.61,5.61,0,0,0-.06.59,1.92,1.92,0,0,1-.1.55l.13.15.12-.15a.84.84,0,0,0,.49.36,1.67,1.67,0,0,0,.59.05,1.17,1.17,0,0,1,.35-.35,2.1,2.1,0,0,1,.42-.22l.47-.16a3.14,3.14,0,0,0,.46-.18,1.41,1.41,0,0,0,.3-.19l.27-.23.87-.81.88-.81a.11.11,0,0,1,.11.09.64.64,0,0,1,0,.2v.22A1.16,1.16,0,0,0,235.46,284Z"/><path class="cls-6" d="M244.58,282.28a.42.42,0,0,1,0,.37.87.87,0,0,1-.27.27,3.28,3.28,0,0,1-.37.22,1.33,1.33,0,0,0-.33.21,10.75,10.75,0,0,1-1.19.21c-.36,0-.75.1-1.18.17a.86.86,0,0,1-.36,0,1.3,1.3,0,0,0-.34,0h-.37a.49.49,0,0,0-.44.23,2.35,2.35,0,0,0-.17.45,2.46,2.46,0,0,1-.16.48.56.56,0,0,1-.4.32.12.12,0,0,0,0,.13l.08.1a.51.51,0,0,0-.33.27c0,.12-.1.25-.14.38a.9.9,0,0,1-.17.32c-.07.09-.21.12-.41.09a3.78,3.78,0,0,1-1.07.78,4.21,4.21,0,0,1-1.28.39,1.07,1.07,0,0,1-.22-.15l-.22-.16a1.28,1.28,0,0,0-.24-.11.66.66,0,0,0-.28,0,1.82,1.82,0,0,0-.13-.58,2.39,2.39,0,0,0-.28-.49,1,1,0,0,1,.06-.49c.07-.15.13-.31.2-.45a4.13,4.13,0,0,0,.17-.45,1,1,0,0,0,0-.52.51.51,0,0,0,.19-.2,1,1,0,0,0,.08-.25.86.86,0,0,1,.06-.23.39.39,0,0,1,.21-.18c-.08-.24-.07-.41,0-.52a1.94,1.94,0,0,1,.38-.3l.41-.29a.5.5,0,0,0,.14-.49.8.8,0,0,1,.21-.15l.23-.11.21-.1a.75.75,0,0,0,.19-.17c-.07-.05-.1-.09-.1-.14a1.24,1.24,0,0,1,0-.16c0-.05,0-.11.07-.17a.2.2,0,0,0,0-.17,1.09,1.09,0,0,0,.7-.11l.57-.34a1.59,1.59,0,0,1,.55-.25.8.8,0,0,1,.64.17c0,.07.05.17.1.3s.08.27.13.4l.12.4a2.83,2.83,0,0,1,.08.28v1.17a2,2,0,0,0,.85.3,1.25,1.25,0,0,0,.84-.2c.11.1.21.13.31.08a1.59,1.59,0,0,0,.29-.15.63.63,0,0,1,.28-.1c.1,0,.2.08.3.25a1,1,0,0,1,.42-.25,2.31,2.31,0,0,1,.46-.05l.46,0A.9.9,0,0,0,244.58,282.28Zm-5.72,1.42a.93.93,0,0,1-.51-.14c-.14-.09-.28-.2-.42-.31s-.29-.23-.44-.33a1.1,1.1,0,0,0-.55-.19,1.93,1.93,0,0,1-.31.33,2.38,2.38,0,0,0-.31.33,1,1,0,0,0-.18.38.73.73,0,0,0,.06.47.88.88,0,0,0-.45.46,2.29,2.29,0,0,0-.15.65c0,.24,0,.47-.07.71a1.5,1.5,0,0,1-.19.63l.32-.22a.28.28,0,0,1,.1.09.19.19,0,0,1,0,.13.68.68,0,0,1,.26-.18,1.82,1.82,0,0,1,.3-.11l.31-.06a1.71,1.71,0,0,0,.3-.09c.24.14.42.17.52.09a.89.89,0,0,0,.27-.35l.22-.5a.52.52,0,0,1,.38-.31l-.1-.1a6.62,6.62,0,0,0,.44-.64A1.26,1.26,0,0,0,238.86,283.7Zm.1-1.17a1.62,1.62,0,0,1,.07-.47,5,5,0,0,0,.12-.49,1,1,0,0,0,0-.46.71.71,0,0,0-.28-.4.78.78,0,0,0-.27.24l-.2.31a1.2,1.2,0,0,1-.24.26.48.48,0,0,1-.36.06.28.28,0,0,0,0,.28,1.57,1.57,0,0,0,.17.21l.2.2a.28.28,0,0,1,.07.26.48.48,0,0,0,.16.08.78.78,0,0,0,.21,0,.5.5,0,0,0,.21,0A.24.24,0,0,0,239,282.53Z"/><path class="cls-6" d="M252.92,286.15h-.27l-.17,0a.37.37,0,0,0-.16.05l-.24.14a.7.7,0,0,1-.15.24.8.8,0,0,1-.22.13l-.26.1a.92.92,0,0,0-.25.17,2.41,2.41,0,0,1-2-.5.93.93,0,0,1-.18-.16,1.37,1.37,0,0,0-.18-.16l-.08-.05-.07-.07a.73.73,0,0,1-.13-.36,2.7,2.7,0,0,0-.06-.41.74.74,0,0,0-.17-.33.5.5,0,0,0-.43-.13,2.61,2.61,0,0,1-.42.62,3.3,3.3,0,0,1-.61.57,3.85,3.85,0,0,1-.71.41,1.73,1.73,0,0,1-.71.16.88.88,0,0,1-.4.5,2.2,2.2,0,0,1-.61.26l-.12,0-.1,0a.45.45,0,0,1-.32-.07l-.22-.19a1.3,1.3,0,0,0-.22-.19.53.53,0,0,0-.32-.09c-.11-.26-.22-.5-.32-.75a3.28,3.28,0,0,1-.24-.75.21.21,0,0,0,.14-.18c0-.07,0-.15,0-.23-.16,0-.24-.11-.24-.18a.49.49,0,0,1,0-.23l.1-.22a.13.13,0,0,0,0-.19,5.87,5.87,0,0,1,.51-1.72,3.85,3.85,0,0,1,1.13-1.4.4.4,0,0,1,.05-.42.52.52,0,0,1,.34-.16.65.65,0,0,1,.38.09.39.39,0,0,1,.18.35.45.45,0,0,1,0,.2l-.06.19a4.66,4.66,0,0,1-.26.85c-.12.28-.25.55-.38.81l-.42.79a6,6,0,0,0-.36.82c-.12.08-.16.16-.12.25a1,1,0,0,0,.16.25.57.57,0,0,1,.1.25c0,.07-.09.15-.27.22a.3.3,0,0,0,0,.35,2,2,0,0,1,.22.32h.23a.25.25,0,0,0,.18-.13.3.3,0,0,0,.32,0l.29-.18a1.22,1.22,0,0,1,.34-.18.47.47,0,0,1,.41,0,.74.74,0,0,0,.17-.25c.05-.1.09-.19.14-.28a1,1,0,0,1,.18-.22.41.41,0,0,1,.32-.06,1.94,1.94,0,0,1,.54-.6c.23-.17.45-.32.68-.46a5.29,5.29,0,0,0,.62-.47,1.14,1.14,0,0,0,.34-.65,10.88,10.88,0,0,0,.57-1,3.56,3.56,0,0,1,.66-.91.4.4,0,0,1,.15-.19.58.58,0,0,1,.22-.08.44.44,0,0,1,.23,0,.57.57,0,0,1,.21.13.87.87,0,0,1-.07.48c-.06.15-.13.29-.2.43a1.74,1.74,0,0,0-.17.45.94.94,0,0,0,0,.54,2.49,2.49,0,0,1-.4.2c-.13.06-.25.13-.37.2a.89.89,0,0,0-.29.26,1,1,0,0,0-.17.42c.27.1.42.22.47.37a1.51,1.51,0,0,1,.07.48,4.73,4.73,0,0,0,0,.52.93.93,0,0,0,.37.54l.09.06a.17.17,0,0,0,.09.06.45.45,0,0,0,.26,0l.23-.1a.47.47,0,0,1,.24,0c.08,0,.17.06.28.18.15-.19.28-.19.41,0,.12-.21.23-.34.32-.37a.74.74,0,0,1,.29,0,.67.67,0,0,0,.28,0q.15,0,.33-.36l.13.13c.06-.16.13-.23.21-.23a1,1,0,0,1,.24.05.37.37,0,0,0,.21,0c.06,0,.09-.14.09-.35a.4.4,0,0,0,.22-.06l.19-.13a.94.94,0,0,1,.22-.12.57.57,0,0,1,.27-.05l-.38.92Z"/><path class="cls-6" d="M264.49,281.25a1.55,1.55,0,0,1-.24.58,2.13,2.13,0,0,1-.44.46,2.44,2.44,0,0,1-.55.35,2.57,2.57,0,0,1-.59.2,5.6,5.6,0,0,1-.81.28,4.91,4.91,0,0,1-.75.13,6.91,6.91,0,0,1-.79,0l-.93,0a.29.29,0,0,0-.18.14.9.9,0,0,0-.06.22,1.93,1.93,0,0,0,0,.24.88.88,0,0,1,0,.23.21.21,0,0,0-.21.09l-.16.18a.77.77,0,0,1-.09.46.85.85,0,0,1-.24.26l-.3.23a1,1,0,0,0-.29.36.47.47,0,0,0-.07.17c0,.06,0,.12-.05.2a.29.29,0,0,1-.19.25,1.8,1.8,0,0,1-.32.06,1.1,1.1,0,0,0-.29.09.35.35,0,0,0-.15.32,2.49,2.49,0,0,0-.63.28l-.61.39a3,3,0,0,1-.63.29,1.15,1.15,0,0,1-.66,0l-.2-.09a.56.56,0,0,1-.18-.12l-.08-.11-.09-.11a2.31,2.31,0,0,1-.22-.51,5.67,5.67,0,0,1-.1-.57,5.43,5.43,0,0,1,0-.57c0-.2,0-.39,0-.56a.14.14,0,0,0,.14,0l.11-.1-.14-.37a.16.16,0,0,0,.15,0l.1-.1c-.14-.08-.22-.16-.22-.24a.46.46,0,0,1,.06-.27,1.54,1.54,0,0,1,.19-.28.53.53,0,0,0,.11-.31,3.61,3.61,0,0,1,.08-.67c0-.21.09-.41.15-.62s.12-.41.19-.61a6.16,6.16,0,0,0,.18-.65.75.75,0,0,0,.45-.23l.41-.37a.93.93,0,0,1,.43-.22.62.62,0,0,1,.52.22,1.24,1.24,0,0,1-.05.64,4.29,4.29,0,0,1-.26.58,4.91,4.91,0,0,0-.25.57,1.14,1.14,0,0,0,0,.64,1.27,1.27,0,0,0-.72.72,4,4,0,0,0-.23,1c0,.11,0,.22,0,.34a1.3,1.3,0,0,1-.11.35.56.56,0,0,1,0,.4c0,.13-.07.26-.11.39a1.08,1.08,0,0,0,0,.35.43.43,0,0,0,.23.31,4.87,4.87,0,0,0,1.66-.82,6.84,6.84,0,0,0,1.26-1.35c.21-.3.41-.6.59-.9a5.59,5.59,0,0,0,.45-.92,4.38,4.38,0,0,0,.23-1,3.34,3.34,0,0,0-.06-1.08.41.41,0,0,0,.27-.15,1.67,1.67,0,0,1,.23-.23.4.4,0,0,1,.23-.09c.08,0,.16.07.25.22s.23.15.23.24a1,1,0,0,1,0,.29,1,1,0,0,0-.08.29.28.28,0,0,0,.13.28.44.44,0,0,0-.11.12c0,.07-.07.14-.1.22s-.05.16-.07.24a.3.3,0,0,0,0,.15q.14.24.3.24a.78.78,0,0,0,.33-.05,1.55,1.55,0,0,1,.36-.08.42.42,0,0,1,.35.14l.66-.1.56-.11c.18,0,.37-.08.56-.13s.4-.11.65-.17a.92.92,0,0,1,.43-.32Z"/><path class="cls-6" d="M273.1,282.4l-.19.2-.12.14-.12.14-.2.22c-.07.08-.15.16-.22.25a.84.84,0,0,1-.23.23.27.27,0,0,0-.27.05,1.66,1.66,0,0,0-.18.19l-.14.21a.18.18,0,0,1-.17.08,6.26,6.26,0,0,1-.7.33,2.64,2.64,0,0,0-.68.4l-.12-.11-1.52.73-.15.09a.71.71,0,0,1-.14.1,5.79,5.79,0,0,1-.67.31c-.23.1-.45.18-.68.26l-.19.06c.08.19.08.33,0,.41a.73.73,0,0,1-.34.17,3.14,3.14,0,0,1-.48.06,1,1,0,0,0-.41.1l-.36,0-.37,0-.38,0a1.73,1.73,0,0,1-.38-.05h0a.6.6,0,0,1-.44.06,1,1,0,0,1-.33-.22,4,4,0,0,1-.27-.37c-.08-.14-.17-.27-.25-.39l-.22-.33a2.92,2.92,0,0,1-.23-.47,2.36,2.36,0,0,1-.12-.51.71.71,0,0,1,.11-.44,2.1,2.1,0,0,0,.22-.42,1.52,1.52,0,0,0,.08-.51c0-.07,0-.13,0-.19a1.15,1.15,0,0,1,0-.19h.33a.26.26,0,0,0,.13-.06.23.23,0,0,0,.05-.18.13.13,0,0,0-.05-.12.24.24,0,0,1-.06-.09,1,1,0,0,1,.17-.21.91.91,0,0,0,.13-.16A.56.56,0,0,0,263,282a.62.62,0,0,0,0-.3,2.06,2.06,0,0,1,.42-.55c.16-.16.32-.31.5-.46l.54-.41c.19-.14.36-.29.53-.44a.5.5,0,0,0,.45,0,2.55,2.55,0,0,0,.3-.26,1.38,1.38,0,0,1,.26-.23c.09-.05.21,0,.35.08l0,0a1,1,0,0,1,.8-.36,1.32,1.32,0,0,1,.69.27,1,1,0,0,1,.37.5.28.28,0,0,1-.16.39.52.52,0,0,1,.16.38.6.6,0,0,1-.12.38,3.48,3.48,0,0,0-.22.36c-.07.12-.13.25-.2.39s-.21.44-.32.64a1.49,1.49,0,0,1-.5.5q-.27-.07-.36.06a1,1,0,0,0-.14.29.91.91,0,0,1-.1.24c0,.06-.12,0-.25-.06l0,0,0,0a.87.87,0,0,0-.18.26.51.51,0,0,1-.18.22l-.28-.07-.28-.06a.87.87,0,0,1-.12.49,1,1,0,0,1-.3.28,2,2,0,0,1-.42.18,2.8,2.8,0,0,0-.46.16,2.13,2.13,0,0,0-.42.23,1,1,0,0,0-.32.39.53.53,0,0,0,.37.18,1.69,1.69,0,0,0,.45,0l.46,0a.71.71,0,0,1,.41.12h0a3.22,3.22,0,0,0,.68-.17l.64-.26c.21-.1.43-.18.65-.27a3.77,3.77,0,0,1,.68-.18.25.25,0,0,0,.2.13.65.65,0,0,0,.24,0v0l.06-.19a1.5,1.5,0,0,1,.09-.18.75.75,0,0,1,.25-.25,1.07,1.07,0,0,1,.31-.13,1.93,1.93,0,0,1,.36-.06l.38,0h0l0-.05a.47.47,0,0,1,.15-.24.72.72,0,0,1,.2-.09l.24-.05a.59.59,0,0,0,.24-.09.45.45,0,0,0,.44-.05l.34-.31.11.15.05-.06.33-.31.21-.18a1.43,1.43,0,0,1,.24-.16l.39-.25c.14-.08.27-.17.4-.26L273,282a.1.1,0,0,1,.07.11v.15a.64.64,0,0,0,0,.09S273.08,282.38,273.1,282.4ZM267,280.57l0,0h0a1.16,1.16,0,0,0-.52-.16.81.81,0,0,0-.37.12,1.36,1.36,0,0,0-.31.28c-.09.11-.19.21-.29.31a1.07,1.07,0,0,1-.36.21.79.79,0,0,1-.5,0c0,.16,0,.31-.08.46s0,.31-.05.47a.93.93,0,0,0-.39.24,1.69,1.69,0,0,0-.23.36,3.7,3.7,0,0,0-.18.4,1.53,1.53,0,0,1-.21.4l.06.07a.13.13,0,0,1,.13.05l.1.1a1.35,1.35,0,0,1,.43-.39c.19-.11.37-.21.56-.3l.55-.3a1,1,0,0,0,.4-.43,1.14,1.14,0,0,0,.7-.53,4.11,4.11,0,0,0,.39-.82l.11-.25A1.36,1.36,0,0,0,267,280.57Z"/><path class="cls-6" d="M281.57,284a1,1,0,0,0-.45.39,2.92,2.92,0,0,0-.19.49,2.6,2.6,0,0,1-.16.47.71.71,0,0,1-.4.38.51.51,0,0,1-.29.36l-.44.19a1.38,1.38,0,0,0-.42.21.53.53,0,0,0-.18.45,5.4,5.4,0,0,1-.64.3,4.23,4.23,0,0,1-.72.19,3.07,3.07,0,0,1-.74,0,2,2,0,0,1-.69-.14,2.47,2.47,0,0,1-.42-.27l-.14-.09a1.1,1.1,0,0,1-.14-.11,1.52,1.52,0,0,1-.29-.41,2.72,2.72,0,0,1-.19-.5,4.54,4.54,0,0,1-.12-.53c0-.17-.05-.34-.07-.49l.54-1.47a2.85,2.85,0,0,1-.69-.78,4.28,4.28,0,0,0-.64-.83.81.81,0,0,1-.19.18.19.19,0,0,0-.09.23l.14.13a14.39,14.39,0,0,0-1,1.2,6.32,6.32,0,0,0-.77,1.34.51.51,0,0,0-.45.15,1.57,1.57,0,0,0-.22.38,1.87,1.87,0,0,1-.22.39.46.46,0,0,1-.44.15c-.05.1-.1.22-.15.34a2.69,2.69,0,0,1-.17.34,1.09,1.09,0,0,1-.25.27.56.56,0,0,1-.37.11.39.39,0,0,1-.13-.24.69.69,0,0,1,0-.28c0-.09.07-.18.11-.27a1.4,1.4,0,0,0,.11-.27,1.94,1.94,0,0,1,.42-.77l.62-.69a4.05,4.05,0,0,0,.52-.73,1.45,1.45,0,0,0,.18-.89,1.62,1.62,0,0,0,.76-.26.7.7,0,0,0,.26-.28.64.64,0,0,0,.06-.4.23.23,0,0,1-.13-.17.81.81,0,0,1,0-.22,1,1,0,0,0,.52-.36,5.21,5.21,0,0,0,.36-.55l.32-.6a1.68,1.68,0,0,1,.4-.52,2.58,2.58,0,0,0,.41.2,3,3,0,0,1,.4.21.83.83,0,0,0-.17.34,1.84,1.84,0,0,0,0,.33V281a.73.73,0,0,1-.08.34,2,2,0,0,1,.39.48,1.7,1.7,0,0,0,.41.47.72.72,0,0,1,.4-.14h.44a1.58,1.58,0,0,0,.44,0,.46.46,0,0,0,.33-.24.24.24,0,0,0,.18.06h.23a.66.66,0,0,1,.21,0,.18.18,0,0,1,.1.14.29.29,0,0,1,0,.17s0,.07-.05.14,0,.12,0,.12,0,0,0,.1a.7.7,0,0,1-.24.32l-.34.26a2,2,0,0,0-.31.28.56.56,0,0,0-.14.39.85.85,0,0,0-.45.34,1.41,1.41,0,0,0-.18.51,3.81,3.81,0,0,0-.05.59,1.92,1.92,0,0,1-.11.55l.13.15.12-.15a.84.84,0,0,0,.49.36,1.7,1.7,0,0,0,.6.05,1.14,1.14,0,0,1,.34-.35,2.1,2.1,0,0,1,.42-.22l.47-.16a3.14,3.14,0,0,0,.46-.18,1.82,1.82,0,0,0,.31-.19l.27-.23q.44-.42.87-.81t.87-.81a.12.12,0,0,1,.12.09.64.64,0,0,1,0,.2c0,.07,0,.15,0,.22A1.16,1.16,0,0,0,281.57,284Z"/><path class="cls-6" d="M288.06,285.81l.07.07c-.05.07-.12.14-.19.22a1.45,1.45,0,0,1-.22.21.81.81,0,0,1-.27.15.39.39,0,0,1-.28,0,.45.45,0,0,1-.35-.1.39.39,0,0,1-.14-.33.51.51,0,0,1,.11-.29,2.11,2.11,0,0,0,.19-.23l-.05-.06a.3.3,0,0,1,0-.16.57.57,0,0,0,.06-.15.48.48,0,0,1,.21-.34.64.64,0,0,1,.37-.11.62.62,0,0,1,.36.14.47.47,0,0,1,.19.34.24.24,0,0,1,0,.17.51.51,0,0,1-.07.17.75.75,0,0,0,.17.1ZM292.38,274a.79.79,0,0,1,0,.34c0,.12-.05.24-.08.36s-.05.24-.08.36a1.21,1.21,0,0,0,0,.38l-.24.31.1.07a.51.51,0,0,0-.27.29,3,3,0,0,0-.09.43,2.13,2.13,0,0,1-.1.42.46.46,0,0,1-.28.28,2,2,0,0,1-.18.67c-.1.22-.2.43-.31.65l-.12.18a1.18,1.18,0,0,0-.1.19,1.9,1.9,0,0,0-.09.29,2,2,0,0,1-.11.28,2.68,2.68,0,0,1-.18.33,3.21,3.21,0,0,0-.19.31l-.06.16a.77.77,0,0,1-.07.16c-.09.18-.17.35-.26.51a1.54,1.54,0,0,0-.15.55,1,1,0,0,0-.31.41,4,4,0,0,0-.21.47,4.28,4.28,0,0,1-.2.43,1,1,0,0,1-.28.33.46.46,0,0,1-.17-.17.63.63,0,0,1-.08-.23,1,1,0,0,1,0-.25,1.57,1.57,0,0,0,0-.23.49.49,0,0,0,.27-.28,1.5,1.5,0,0,0,.05-.37c0-.13,0-.27,0-.4a.88.88,0,0,1,.1-.36.49.49,0,0,1,.08-.1l.11-.09a1.15,1.15,0,0,0,.28-.43,4.07,4.07,0,0,0,.2-.59c.06-.2.12-.41.17-.62a2.61,2.61,0,0,1,.18-.52l.32-.33-.1-.08a2.11,2.11,0,0,0,.24-.44c.06-.15.11-.3.17-.44a2.49,2.49,0,0,1,.22-.43,1.3,1.3,0,0,1,.35-.35,1.49,1.49,0,0,1,0-.59,2.28,2.28,0,0,1,.18-.52,3.74,3.74,0,0,1,.32-.49q.18-.22.36-.48a.46.46,0,0,1,.12-.48.35.35,0,0,0,.17,0l.18,0a.21.21,0,0,1,.14,0A.24.24,0,0,1,292.38,274Z"/></g></g></svg>