<svg xmlns="http://www.w3.org/2000/svg" viewBox="0 0 267.36 266.36"><defs><style>.cls-1{fill:#657064;}.cls-2{fill:#3c3c3b;}.cls-3{fill:#e63323;}.cls-4{fill:#c3c6c0;}.cls-5{fill:#ef7c53;}</style></defs><g id="Calque_2" data-name="Calque 2"><g id="Calque_1-2" data-name="Calque 1"><g id="Calque_2-2" data-name="Calque 2"><g id="Calque_1-2-2" data-name="Calque 1-2"><path class="cls-1" d="M130.81,0A93.73,93.73,0,0,0,77.13,171.2l1.36-2.09a91.26,91.26,0,1,1,101.42.94l1.37,2.09A93.73,93.73,0,0,0,130.81,0Z"/><path class="cls-2" d="M107.34,212.39a6.11,6.11,0,0,1,2.36-.93v-.08c-.18-1.61-1.42-1.44-2.23-1.17h0v-.89m0,0a4.49,4.49,0,0,1,3.36.07c.67.35,1,.86,1.41,2.4.1.42.21,1,.52,2.27.15.62.31.84.65.78v1h-.93a2,2,0,0,1-1.52-.57,3.18,3.18,0,0,1-3.08.4,1.87,1.87,0,0,1-1.08-2.42,1.89,1.89,0,0,1,.54-.77Zm2.87,5.21s.11-.07.1-.11l-.53-1.89h-.09c-1.35.42-.87,2.77.53,2Z"/><path class="cls-2" d="M120,208.93a1.14,1.14,0,0,0,.9-1.35,1.15,1.15,0,0,0-2.28.21A1.29,1.29,0,0,0,120,208.93Z"/><path class="cls-2" d="M124.76,213.32s-.11,0,0,.19a1.63,1.63,0,0,0,1.88,1.3,2.81,2.81,0,0,0,1.1-.33c.17-.09.14,0,.14.08v.79c0,.13,0,.18-.22.26a5,5,0,0,1-3.8-.1,3.45,3.45,0,0,1-1.76-3.15,3.22,3.22,0,0,1,3.1-3.32l.48,0a3.1,3.1,0,0,1,3,3c0,.08,0,.19-.07.23Zm1.36-1.32a.21.21,0,0,0,.2-.25,2.47,2.47,0,0,0-.35-1.26.71.71,0,0,0-1-.22.74.74,0,0,0-.31.41,4.25,4.25,0,0,0-.21,1.58c0,.15,0,.16.17.13Z"/><path class="cls-2" d="M106,215.15a.92.92,0,0,0,.09.47h-2.47a1.19,1.19,0,0,0,.09-.47v-3.87a.62.62,0,0,0-.61-.66h0a.88.88,0,0,0-.83.91v3.6a.92.92,0,0,0,.08.47H99.88a1.19,1.19,0,0,0,.09-.47v-3.85a.62.62,0,0,0-.61-.66h0a.91.91,0,0,0-.83.91v3.59a.92.92,0,0,0,.09.47H96a1.19,1.19,0,0,0,.09-.47v-4.72A1.11,1.11,0,0,0,96,210v-.06l2.36-1.06h0v1.1h0v-.06c.81-1.22,3.31-1.39,3.69.08h0a2.19,2.19,0,0,1,2-1c2,0,1.68,1.72,1.67,2.76v3.1Z"/><path class="cls-2" d="M116.41,215.25a.92.92,0,0,0,.09.47h-2.59a1.18,1.18,0,0,0,.09-.46v-4.59a2.19,2.19,0,0,0-.14-.56h0s1.06-.53,2.52-1.19h0V210s0,0,.05,0h0a1.74,1.74,0,0,1,2.07-.92c.09,0,.08,0,0,.15s-.34,1.4-.37,1.49,0,.1-.13.09c-.82-.19-1.73.07-1.74,1.1v3.23Z"/><path class="cls-2" d="M121.19,215.3a.92.92,0,0,0,.09.47h-2.6a1.18,1.18,0,0,0,.09-.46h0v-5.08c0-.13,0-.13.09-.17h0s.84-.41,2.25-1.06h.08c0,.2-.06,5.79-.06,6.32Z"/><path class="cls-2" d="M136,214.79a1.56,1.56,0,0,1-2-.29,3.15,3.15,0,0,1-.76-2.19c0-2.15,1.52-2.42,2.65-1.77v-1.11a4,4,0,0,0-2.11-.34,3.42,3.42,0,0,0-3,3.56c0,2,1.21,4.33,5.21,3.28Z"/><path class="cls-2" d="M139.13,215.22s.07-8.53.07-8.49L136.51,208c.09.07.28.4.27,1.49v6.21a1.68,1.68,0,0,1-.09.32h2.66A6.71,6.71,0,0,1,139.13,215.22Z"/><path class="cls-2" d="M140.6,212.48a4,4,0,0,1,1.75-.69l.51-.09h.06c-.1-1.75-1.51-1.6-2.29-1.32h0v-.93h0a4.52,4.52,0,0,1,3.39.09,2.61,2.61,0,0,1,1.3,1.72s.66,3.15.73,3.5a.57.57,0,0,0,.51.51c.12,0,.13,0,.13.14v.76c0,.06,0,.1-.06.09h-1a2.06,2.06,0,0,1-1.62-.63,3,3,0,0,1-3,.38,1.94,1.94,0,0,1-.36-3.53Zm1.54,1.08a1.29,1.29,0,0,0,.31,1.22,1,1,0,0,0,1.13.06s.07,0,0-.09l-.54-2.09h0A1.36,1.36,0,0,0,142.14,213.56Z"/><path class="cls-2" d="M148.6,209.12a1.19,1.19,0,0,0,.93-1.4,1.19,1.19,0,0,0-2.36.22A1.34,1.34,0,0,0,148.6,209.12Z"/><path class="cls-2" d="M149.79,215.57v.14a.92.92,0,0,0,.11.4h-2.76a.74.74,0,0,0,.11-.39v-.15c0-.81.05-4.79.06-5.28,0-.12.06-.12.06-.12s.93-.47,2.45-1.16m.05,0c0,.21-.07,6-.08,6.56Z"/><path class="cls-2" d="M155.25,211a2.71,2.71,0,0,0-1.06.06,1,1,0,0,0-.69.93v3.75a1,1,0,0,0,.1.39h-2.66a.88.88,0,0,0,.11-.39v-.14c0-.79,0-4.42,0-4.74a1.48,1.48,0,0,0-.11-.45h0l2.52-1.13h0v1m.05,0,.05-.06a1.75,1.75,0,0,1,2.07-.86c.08,0,.07,0,0,.15s-.33,1.35-.36,1.44,0,.05-.07.05Z"/><path class="cls-2" d="M157.94,213.8s-.1,0,0,.18a1.63,1.63,0,0,0,1.89,1.3,2.72,2.72,0,0,0,1.08-.33c.18-.08.15,0,.15.09v.79c0,.13,0,.17-.22.25A5,5,0,0,1,157,216a3.42,3.42,0,0,1-1.76-3.16,3.21,3.21,0,0,1,3.09-3.31,4,4,0,0,1,.49,0,3.1,3.1,0,0,1,3,3c0,.07,0,.19-.07.23S158,213.77,157.94,213.8Zm1.36-1.29a.21.21,0,0,0,.2-.24,2.44,2.44,0,0,0-.35-1.26.71.71,0,0,0-1-.22.74.74,0,0,0-.31.41,4.25,4.25,0,0,0-.21,1.58c0,.15,0,.15.17.12s1.18-.3,1.46-.39Z"/><path class="cls-3" d="M134.08,213.82h.24v.05l.4.11h.08l.06-.15H135l.06-.15h0c0-.06,0-.13.07-.2h0v-.11l.14-.08h.08l.06-.1.22-.12v-.31c.36,0,.57-.59.89-.77a1.62,1.62,0,0,0,0-.62l-.07-.06v-.1h0v-.32h0v-.1h0v-.15l-.32,0a1.2,1.2,0,0,1-.17.34h-.09v.1h-.09v.11h-.08v.11l-.13.08v.11l-.13.08v.1s-.16.11-.23.23h-.08a.84.84,0,0,1-.17.34h-.13c0,.07,0,.15-.07.19h-.08l-.15.19h0v.11h0v.21L134,213c0,.24-.09.49,0,.62A.66.66,0,0,0,134.08,213.82ZM146.77,215c-.09-.19-.19-.38-.29-.56h-.21v.05h0v-.06h-.13l-.21.39h-.08V215h-.09c0,.07,0,.19-.12.24h-.12v.25h0a1.36,1.36,0,0,1-.07.25h-.09c-.07.2-.19.23-.26.43H145v.15l-.32.22-.1.14h-.2v0h0c0,.19-.1.21-.17.34H144c-.14.47-.25.23-.47.46l-.06.14-.14.09-.12.29h-.13a.17.17,0,0,1-.06.15l-.22.07a.67.67,0,0,1,0,.2c-.14,0-.17.1-.31.12s0,.1,0,.15a.57.57,0,0,0-.51.45h-.08l-.1.14h-.09l-.14.09a.38.38,0,0,1,0,.15h0c-.14.15,0,0-.18.08v0h-.12a.52.52,0,0,1-.07.15L141,220c-.08.19-.13.12-.24.22l-.15.24h-.08l-.1.1h-.08v.05h-.08a0,0,0,0,1,0,.05l-.13.08-.06.15c-.12.11-.1.13-.19.36l-.26.07c-.09.24,0,0-.18.13a.31.31,0,0,1,0,.1h0v.11l-.13.08h0c-.1.06-.2,0-.29,0l-.24.28-.26.07v.05h-.08l-.05.09h-.21a0,0,0,0,1,0,0h-.17v.05h-.24v.06h-.12v0h-.28a.06.06,0,0,1,0,.06H137c-.09,0-.19-.39-.28-.4h0c-.09-.13,0-.13-.18-.19l.06-.14c.13,0,.28,0,.34-.14h.2l.15-.19h0v-.1l.23-.18V221a.55.55,0,0,0,.3-.11v-.1l.09-.09h.13v-.1h.08a0,0,0,0,0,0-.05h.12a.5.5,0,0,0,.1-.14h0v-.11l.18-.13.06-.14h.16l.06-.1h.12a.43.43,0,0,0,0-.16l.14-.08.12-.3h0l.06-.1h.08v-.1a1.07,1.07,0,0,0,.4-.51h.17v-.16l.28-.22v-.11l.28-.22v-.1l.14-.09v-.15h0l.06-.15h.08c.07-.25.08-.14.2-.28h0l.09-.3h.08a.57.57,0,0,0,.18-.39h.08v-.36l.13-.08a2.89,2.89,0,0,0,0-.83l-.11-.07c0-.16,0-.13-.06-.21h-.08s0-.26-.07-.3,0-.07,0-.1H141v-.11c-.1,0-.32-.16-.48-.11a0,0,0,0,1,0,.05h-.16c-.17.08-.21.35-.47.33,0,.15-.1.16-.19.23h-.12l-.12.29h0l-.06.09h-.12v.06h0a.38.38,0,0,1,0,.15h-.12c-.23,0-.12.16-.25.33l-.31.16v.16h0v.1l-.09,0v.09h0l-.12-.07-.15.19h0v.2l-.19.13a.38.38,0,0,1,0,.15l-.3.12v.26h0a.31.31,0,0,1,0,.1c-.07,0-.09,0-.18.07h0a.43.43,0,0,1,0,.16h0a.8.8,0,0,0-.07.2c-.16,0-.22.19-.36.26s-.11.18-.16.35a1,1,0,0,0-.3.14v.16l-.14.08v.1h-.09v.05h-.08v.15h0v.11h0l-.09.35h-.09a.69.69,0,0,0-.17.34h-.08v.36c0,.12,0,0-.09,0a1.17,1.17,0,0,0-.16.6.59.59,0,0,0-.43.41c-.17,0-.24.13-.39.16-.09.23,0,0-.19.13l-.1.14h0V222l-.35.11-.06.14h-.16c0,.07-.05.13-.07.2h-.21a1.18,1.18,0,0,1-.07.2h-.2c-.09.24,0,0-.18.14l-.15.18h-.17v.1l-.26.07v.09h-.17v0a.49.49,0,0,1-.17,0,.06.06,0,0,1,0,.06h-.12v.05h-.08v0H132v.06h-.28c-.06,0-.39.09-.46,0h0c-.07-.08-.06-.09-.18-.13v-.16a.64.64,0,0,0,.27-.22v-.1s.1,0,.17,0h0a.38.38,0,0,0,0-.15h.08l.37-.26v-.16h0v-.1H132a0,0,0,0,0,0,0h.08c.1-.25.14-.11.24-.22l.06-.2.14-.09v-.05h.08v-.05h.08a.38.38,0,0,0,0-.15h.13l.31-.42h.08a1,1,0,0,1,.13-.34l.18-.13v-.1h0v-.1l.13-.09a0,0,0,0,0,0-.05h.08l.06-.09h0v-.1h0v-.11h.09a1,1,0,0,1,.07-.2h.09l.06-.19h.13l.12-.34c.12,0,.13-.08.23-.13s0-.2.08-.3.11,0,.18-.13h0a.38.38,0,0,0,0-.15h0v-.11h0v-.15h0V218H135l.13-.09v-.1h0v-.15h0v-.2h0v-.16h0v-.1h.09c0-.06,0-.13.07-.2h.09v-.26a1.24,1.24,0,0,0,.07-.51h0v-.1h0v-.1h0V216h0a.26.26,0,0,0-.06-.21,0,0,0,0,0,0-.05h-.09c-.06-.15-.12-.3-.19-.44a1.16,1.16,0,0,0-.69,0V215h-.08a0,0,0,0,1,0,.05h-.12l-.19.24h-.13v.05H134a.84.84,0,0,0-.3.32h-.07c0,.23-.09.21-.18.34s0,0-.12,0c-.12.25-.16.28-.37.36a2.58,2.58,0,0,0-.09.35c-.22,0-.38.29-.45.57h-.08c-.05.12,0,.07-.1.14v.05h-.08a1.09,1.09,0,0,0-.28.53c-.24.05-.14.21-.29.33h-.13v.16l-.13.08v.11l-.17.08-.15.5h-.09a.76.76,0,0,0-.28.53h-.17a1.11,1.11,0,0,1-.08.3h-.09a.75.75,0,0,0-.19.49h-.08c-.08,0-.05.28-.15.44l-.13.09a1,1,0,0,0-.19.44h-.08c-.05.24-.11.51-.15.81h-.08v.21a.75.75,0,0,0-.35.16v.1l-.14.08V223h-.09v.06h-.26l-.1.15c-.1.08-.13,0-.23.17H128a.43.43,0,0,1,0,.16.5.5,0,0,0-.38,0v.1h-.08v.09h-.29L127,224h-.28v.1h-.09v.09h-.78V224h0a.21.21,0,0,1,.07-.14,5.35,5.35,0,0,1,.07-.56h0v-.25h0a2.37,2.37,0,0,1,.11-.5h.08a1.18,1.18,0,0,0,.07-.2h.09a3.57,3.57,0,0,1,.14-.71l.18-.13c0-.06,0-.13.07-.2h0c0-.22.11-.44.17-.66l.23-.17a1.56,1.56,0,0,1,.14-.45h.09c.11-.13.09-.22.09-.4l.12.07c.11-.22.25-.43.37-.63s0-.13.07-.2l.32-.27c.05-.08.08-.31.14-.4l.23-.17v-.26l.23-.18v-.2l.18-.13.25-.6.18-.13v-.1h0l.09-.36.22-.12c.07-.15.13-.3.19-.44h.08l.18-.45h.09V215h.05v-.26l.13-.08v-.11h0l.09-.35h0c0-.13,0-.11.14-.13l.09-.35H131c.05-.23.1-.2.17-.34s0-.1,0-.15h0v-.1h0c.05-.24.1-.47.14-.71h0v-.1h0a1.9,1.9,0,0,0,.12-.82c-.36-.15-.34-.52-.7-.66,0,0-.11,0-.13.08v.1h0c-.1.19.07.18-.15.24a1.63,1.63,0,0,1-.2.49c0,.14,0,.12-.14.14s0,.1,0,.1v.3h-.09v.1h0v.3l-.19.13a.43.43,0,0,1,0,.16l-.13.09v.1h-.09c-.06.19-.13.37-.19.55s-.11.1-.21.29h0a.17.17,0,0,1,0,.1h0v.15l-.18.13v.21l-.14.09a.17.17,0,0,1,0,.1l-.09.09h0l-.15.5-.23.13-.09.4-.14.09-.06.14h0l-.09.4-.19.13a.45.45,0,0,1-.08.31h0l-.3.74h-.13c-.09-.2-.17-.4-.25-.6H127V217l-.24-.09a0,0,0,0,0,0,0h-.24v.1h-.16l-.28.22v.15h0v.1h0v.11s-.14,0-.2.28c-.2,0-.38.24-.54.34h-.08l-.1.15h-.09l-.19.24h0v.1s-.2,0-.25.07a3,3,0,0,0-.13.3c-.05.1-.06,0-.09.09h-.24v.16l-.36.21-.06.15h-.21a1.24,1.24,0,0,0-.31.48h-.08v.15a1,1,0,0,0-.28.22h-.08a.27.27,0,0,1-.11.19h-.21l-.06.14h-.16v.09h-.16a2.19,2.19,0,0,0-.17.29.68.68,0,0,0-.34.11c-.17,0,0,0-.14.14h0l-.06.15c-.18,0-.27.13-.44.15a.38.38,0,0,1,0,.15h-.25a1.8,1.8,0,0,1-.35.47.53.53,0,0,1-.42.1c0,.07,0,.14-.07.2a.46.46,0,0,0-.4.15.17.17,0,0,1,0,.1h-.08l-.1.09h-.17v.05h-.08l-.53.55-.3.07v.05h-.09v.2a.68.68,0,0,1-.26.12v.05h-.16v.11h-.13v.1h-.13l-.1.14h-.08l-.06.09h-.28a.91.91,0,0,1-.31.12c.07-.17.13-.33.2-.49h0v-.1h0v-.35l.28-.23v-.1h0V223l.23-.18.06-.14h.09a2.33,2.33,0,0,1,.11-.51h.08a.7.7,0,0,0,.18-.39h.08a.31.31,0,0,1,.08-.25l.13-.08v-.26l.14-.08a.43.43,0,0,0,0-.16h0a.43.43,0,0,0,0-.16h0a.38.38,0,0,0,0-.15h.09v-.11h0l.06-.2h0a.34.34,0,0,0,.06-.15l.14-.09a.83.83,0,0,1,0-.35l.09,0v-.1h.09v-.11l.14-.08v-.36l.14-.09v-.3h0v-.1h.08a1,1,0,0,0,.08-.61v-.21l-.37-.57h-.09V217c-.06-.08-.17-.25-.34-.2h-.29l-.1.14H118l-.1.14h-.08l-.62.64c-.18.17-.35.19-.48.46h-.08a.32.32,0,0,1-.08.25,1.36,1.36,0,0,0-.29.06,1.52,1.52,0,0,0-.15.5.29.29,0,0,0-.32.22h0c-.24,0-.26,0-.32.26l-.26.07v.05l-.18.14v.1l-.33.27v.1h-.12c0,.14-.07.11-.12.25-.28,0-.19.07-.32.26l-.09,0v.1H114l-.2.24c-.2.17-.29.08-.39.46-.37,0-.31.17-.51.4a1.11,1.11,0,0,1-.39.16l-.12.29h-.17a.81.81,0,0,1-.08.25.52.52,0,0,0-.36.21h0v.1l-.18.13v.1h-.16v.05c-.2.11-.27,0-.37.32-.13,0-.16.09-.3.11s0,.14-.07.2a2.34,2.34,0,0,0-.64.12l-.24.28a1.24,1.24,0,0,0,0,.47h0v.36l.08.06v.1h0a.42.42,0,0,1,.06.21c.16.06.33.19.51.13a.06.06,0,0,0,0-.06h.17v-.05h.08v-.1h.17v-.05H111v-.11l.42-.35v-.21h.16c.06-.15.1-.15.2-.23v0h.13v-.16a1,1,0,0,0,.71-.68h.16a.29.29,0,0,1,.28-.22c.1-.27.32-.3.47-.46a.65.65,0,0,0,.16-.24h.08l.06-.09h.33l.1-.14h0l.06-.15h0v-.1l.1-.09h.08l.06-.14.23-.18v-.09h.08l.06-.1.23-.18a.25.25,0,0,1,.07-.2l.37-.31v-.1h.09l.1-.14h.08c.07-.08.13-.16.2-.23l.42-.36v-.11h.09l.1-.14h.08c.1-.11.2-.21.29-.33h.09a.17.17,0,0,0,0-.1l.24-.18v-.1c.09-.13.16-.07.24-.28h.2a.63.63,0,0,1-.25.38h-.09v.1h0v.1h0v.15h0v.15h0v.16l-.28.22c-.05.14-.09.27-.13.4h-.09a.62.62,0,0,0-.14.39h-.08a0,0,0,0,1,0,.05,1.59,1.59,0,0,0-.25.33l-.13.09v.1h0a1,1,0,0,0,0,.46h-.08a1.14,1.14,0,0,0-.24.54c-.17,0-.06,0-.14.14h0v.1a1,1,0,0,1-.27.17l-.09.72c-.22,0-.2.21-.31.43h0v.1h0v.31h-.08v.1l-.13.09v.1h0v.21a.34.34,0,0,1-.08.25h0v.42c0,.14.09.07.14.17h0v.21h.08c0,.18.06.26.07.42.19,0,.5.27.76.21v-.06h.12l.06-.1h.13v0a.38.38,0,0,1,.17-.08v-.16c0-.06.24-.1.43-.09l.06-.15H117c.06-.18.16-.2.25-.33H117v-.15a.39.39,0,0,0,.35-.16l.06-.1a.38.38,0,0,0,.26-.07V225l.09-.09h.08l.1-.14H118V225l.18-.14v-.1h0l.1-.14h.08l.1-.15h.09v-.1h.2l.06-.09h.08l.1-.14h.08l.16-.24h.08l.1-.14h.08c.08-.3.23-.22.38-.37a2.24,2.24,0,0,0,.31-.47h.16l.26-.33h.16l.24-.28h.16a.17.17,0,0,1,0,.1H121v.31h-.17a1.11,1.11,0,0,1-.08.3c-.32,0-.14.09-.29.27s-.1,0-.18.13h-.08c-.06.18-.13.37-.2.55h0a1.35,1.35,0,0,1-.51.76,3.66,3.66,0,0,0-.08.87l.21.29v.1s.19.16.23.33c.22.09.19,0,.51,0,.09-.26.33,0,.51-.12H121c.18-.2.26-.2.44-.4h.2a0,0,0,0,0,0-.05h.09v-.11h0l.06-.1c.09-.06,0,.06.13-.08H122v-.1l.18-.13a.2.2,0,0,0,0-.11l.19-.13h.08l.06-.09h.08l.15-.19h.09v-.1h.09v-.06h.17l.3-.38h.08c.08-.09.16-.19.25-.28h0l.07-.25.14-.09v-.05H124a.76.76,0,0,0,.11-.14c.14-.1.16,0,.24-.28h.08l.24-.28h0v-.1H125a3.85,3.85,0,0,1-.13.66h0a1.29,1.29,0,0,1-.07.51l.11.12v.52l.14.17v.2h0l.16.33h.08c0,.11.11.22.16.34l.34.2v.05a2,2,0,0,0,.91,0v-.1h.09l.1-.14.42-.1.16-.24h.24v-.1l.26-.06V225h.08c.12-.12.23-.25.34-.37h.08c.1-.1.2-.21.29-.32h.09v-.05c.1-.06.06,0,.14-.09.26.08.28.41.46.58v.1a.4.4,0,0,1,.3.2.2.2,0,0,1,0,.11l.9.07.06-.1H131l.15-.19h.12a.31.31,0,0,0,.05-.1h.08a0,0,0,0,0,0-.05l.39-.1.24-.28h.16l.29-.32h.08l.1-.1h.43V224h.09l.19-.23h.17c.11-.12.23-.24.34-.37h.21c.14-.16.29-.31.43-.46h.17l.24-.28h.28l.16.33v.1l.07.06v.11h.12a.67.67,0,0,1,.24.34c.21,0,.35.18.51.11a.23.23,0,0,0,.28.18h0c.1,0,.13.05.24.07a0,0,0,0,0,0,0h.65l.06-.1h.51l.15-.19h.08a.31.31,0,0,0,0-.1h.08v0h.08v-.05h.12a.31.31,0,0,0,.05-.1h.08c.07-.07.13-.15.2-.23l.47-.09a1.3,1.3,0,0,1,.1-.15,1.09,1.09,0,0,1,.58-.33v-.16h.13v0h.09l0-.1h.08a1,1,0,0,0,.27-.17.17.17,0,0,0,0-.1l.19-.13h0c.07-.05.34-.09.38-.16s0-.19.08-.25h.08c.07-.07.13-.15.2-.23h.08c0-.06,0-.12.08-.19H142c0-.07.12-.33.13-.4s.09,0,.16-.11.16-.1.2-.28h.12a.43.43,0,0,0,0-.16.58.58,0,0,0,.31-.11.93.93,0,0,1,0-.1h.13v-.16h.09c.18-.19.38-.2.48-.56h.08l.15-.18H144a.17.17,0,0,0,0-.1h0v-.21a1.31,1.31,0,0,1,.36-.21,2.86,2.86,0,0,1-.1.77h0v.52c-.06.32-.11.64-.17,1,0,0-.06.21-.09.22a.15.15,0,0,0,0,.16.67.67,0,0,1,0,.2h0v.31h0a1.37,1.37,0,0,1-.16.66h-.25a1,1,0,0,0-.14-.43h-.09l-.09-.22h-.08c-.08-.07-.09,0-.15-.13h-.33V221c-.11.08,0,0-.1.14h0v.25h0l-.15.81h0v.21h0a.57.57,0,0,0,.29.35,1.22,1.22,0,0,0,0,.27c.08.05.15,0,.24.08v0h.2v.11h.28v0l.16.07a.2.2,0,0,1,0,.11h.08v.05H144v.11h.08l.15.07h.08v.06h.21v.05c.25,0,.34-.15.52-.24s.06-.37.08-.56H145c0-.36.07-.72.1-1.08h0v-.26h0c.06-.37.13-.75.19-1.12a6.93,6.93,0,0,1,.11-1.36h0a.43.43,0,0,0,0-.16h0v-.47h0v-.1h.09l.06-.46h.08c.11-.54.23-1.08.34-1.62h0a.38.38,0,0,0,0-.15h0v-.1h0a1.29,1.29,0,0,1,.08-.31h0v-.15h0l.15-.5h0a4.46,4.46,0,0,1,.07-.51Zm-9.53,4.64h0v-.2l.18-.08.06-.2h.13l.21-.34h.2c0-.06,0-.13.07-.2v-.05h.13v-.1h0v-.11h0c.09-.15.07-.25.24-.28s0-.12.11-.19v0h.08l.11-.15h.08a.47.47,0,0,1,0-.1h0a1.82,1.82,0,0,0,.07-.25h.09l0-.1h.13v-.1h0c.1-.16,0-.14.15-.19.07-.28.11-.16.25-.28s.52-.64.75-.68h.17a.84.84,0,0,1-.26.38h-.09a1,1,0,0,1-.08.3h0l-.06.1H140c-.06,0,0,.13-.06.2l-.14.09-.13.34c-.15,0-.19.15-.32.22a.43.43,0,0,1,0,.16c-.24.05-.09.07-.19.23l-.32.22-.12.29h0l-.06.09h-.17l-.06.2h-.13l-.2.28L138,219v.2c-.22,0-.17.2-.33.32v0h-.17l-.25.33c-.08,0,0,0-.07-.06h0Zm-5.53.48c.17,0,.09-.1.23-.18s0-.2,0-.31c.21,0,.1-.06.2-.23h0l.06-.19c.13,0,.15-.08.2-.24h.08a.9.9,0,0,1,.08-.25h0c.09-.12.16-.13.2-.34h.09c.08-.15.17-.29.26-.44h.08c0-.12.08-.23.13-.35h.17c0-.06,0-.13.07-.2h.08a1,1,0,0,1,.13-.34c0-.11.17-.1.3-.12s0-.1,0-.15c.16,0,.2-.08.28-.22h.16a.43.43,0,0,1-.08.3c-.08.1-.11,0-.18.13h0v.16h-.09v.16h0l-.06.1H134a1.86,1.86,0,0,0-.24.54,1.17,1.17,0,0,0-.31.17v.1h-.09v.1s-.14.08-.18.14h0l-.09.3a.4.4,0,0,0-.33.32h-.08c-.08.29-.1.13-.24.28h0v.16h0v.1h-.09a.74.74,0,0,1,0,.21l-.27.17v.15h0v.1h0l-.12.3a.47.47,0,0,0-.31.16h0a1.38,1.38,0,0,0,0-.61Zm-6.26.25c-.06.15-.13.29-.19.44L125,221a.74.74,0,0,1,0,.21h-.21a1.36,1.36,0,0,1-.07.25h-.17c0,.14,0,.12-.14.14-.06.2-.17.29-.23.49a1.08,1.08,0,0,0-.3.11.42.42,0,0,1-.12.25h-.16c-.06,0-.08.19-.12.24h0v.09c-.08.06-.06,0-.13.09h-.09a.38.38,0,0,1,0,.15H123l-.26.43h-.16a.9.9,0,0,1-.12.24h-.2l-.12.29c-.18,0-.16.08-.27.17h-.12v.1s-.17,0-.23.18h-.08l-.06.2h-.13a.76.76,0,0,1,.19-.44h.09v-.25l.21-.08a.38.38,0,0,0,0-.15l.23-.12v-.31l.51-.45a.38.38,0,0,0,0-.15h.09c.09,0,.06,0,.14-.14h0v-.11l.23-.17v-.21c.15,0,.24-.17.36-.26v0h.08l.3-.37h.08a.32.32,0,0,1,.07-.24h.08V221l.28-.22v-.05h.12c.09-.13.17-.26.26-.38h.08c.07-.27.1-.18.25-.28V220H125v-.09h.09v-.05l.14-.09v-.1h0a.17.17,0,0,0,0-.1h.09v-.1h0l.1-.15h.21v-.15h0v-.1h.08l.16-.23c.16-.11.22,0,.35-.22h0c-.07.2-.16.39-.24.59h-.09v.2h-.09l-.08.24c-.09,0-.12,0-.17.08s-.1,0-.14.14h-.09l-.12.3H125a.43.43,0,0,1,0,.16Zm-6.06-5.59h.16a2.8,2.8,0,0,0,.12.33,1.56,1.56,0,0,0,.58.34c.08-.1.1,0,.17-.08l.15-.19h0v-.1h.08c0-.1.09-.2.13-.29l.09,0,.06-.19.18-.08v-.16h0a.61.61,0,0,0,0-.42l-.07-.06v-.31l-.24-.35h-.16v-.11h-.16l-.12-.07-.38.42h-.17v.05h0a.43.43,0,0,1-.08.3l-.18.13v.21h-.09a1.79,1.79,0,0,0-.11.55h.07Z"/><path class="cls-1" d="M130.73,8.32a85.43,85.43,0,1,0,84.61,86.26A85.43,85.43,0,0,0,130.73,8.32Zm-1.64,169.61a84.18,84.18,0,1,1,85-83.36A84.17,84.17,0,0,1,129.09,177.93Z"/><path class="cls-1" d="M78.11,69.89A5.81,5.81,0,0,0,76,68.38a.83.83,0,0,0-.72,0,1,1,0,0,0-.42.51l-.14.41a.87.87,0,0,0,.48,1.09,4,4,0,0,1,2,2.11A4.54,4.54,0,0,1,77,75.32a3.71,3.71,0,0,1-2,2.41,5.19,5.19,0,0,1-3.68-.06c-.43-.13-1-.34-1.86-.61s-1.41-.49-1.79-.64a5.27,5.27,0,0,1-3-2.19,3.77,3.77,0,0,1-.09-3.12,4.56,4.56,0,0,1,1.57-2.35A4.13,4.13,0,0,1,69,68.3a.85.85,0,0,0,1-.57l.14-.41a.88.88,0,0,0,0-.64.84.84,0,0,0-.55-.47A6.12,6.12,0,0,0,67,66.1a5.49,5.49,0,0,0-2.61,1.31,6.87,6.87,0,0,0-1.88,3,5.74,5.74,0,0,0,.26,5,7.69,7.69,0,0,0,4,3.1c.4.16,1.06.39,2,.7s1.55.52,1.95.64a9.16,9.16,0,0,0,2.64.42,6.37,6.37,0,0,0,2.44-.42,5.68,5.68,0,0,0,3.2-3.8,6.87,6.87,0,0,0,.36-3.54A5.32,5.32,0,0,0,78.11,69.89Z"/><path class="cls-1" d="M90.25,54.47l-6.67-1a4.39,4.39,0,0,0,.16-2.66,5.16,5.16,0,0,0-1.92-2.71,4.83,4.83,0,0,0-3.9-1.18,5.9,5.9,0,0,0-3.47,2.34l-3.17,4a.91.91,0,0,0-.18.69.88.88,0,0,0,.37.58L83.36,63.9a.91.91,0,0,0,.57.21H84a.85.85,0,0,0,.61-.34l.24-.31a.83.83,0,0,0,.2-.66.91.91,0,0,0-.35-.62L80,58.49l2.41-3.06,6.81,1a2.17,2.17,0,0,0,.72,0,1.07,1.07,0,0,0,.67-.45l.16-.21a.82.82,0,0,0,.17-.63.86.86,0,0,0-.33-.56A1,1,0,0,0,90.25,54.47Zm-9.79-4.7a2.66,2.66,0,0,1,1.2,2,3.76,3.76,0,0,1-1,2.47l-2.29,2.92L73.84,53.6l2.3-2.92A3.87,3.87,0,0,1,78.3,49.1,2.7,2.7,0,0,1,80.46,49.77Z"/><path class="cls-1" d="M89.92,34a.66.66,0,0,0,.43-.13l.28-.19a1.22,1.22,0,0,0,.61-.79l.9-3.07a.88.88,0,0,0-.65-1,.8.8,0,0,0-.62.14l-.85.55a1.21,1.21,0,0,0-.63,1.1L89.17,33a.84.84,0,0,0,.13.6A.72.72,0,0,0,89.92,34Z"/><path class="cls-1" d="M104.39,44.22a1,1,0,0,0-.57-.43,1,1,0,0,0-.7.15L96.88,48,94,43.56l5.69-3.71a.85.85,0,0,0,.4-.57.9.9,0,0,0-.14-.69l-.19-.29a1,1,0,0,0-.57-.43.91.91,0,0,0-.7.14l-5.69,3.72L90,37.47l6.09-4a.86.86,0,0,0,.4-.56.84.84,0,0,0-.14-.7l-.18-.29a1,1,0,0,0-.57-.43.94.94,0,0,0-.71.14l-7.18,4.7a.85.85,0,0,0-.39.6,1,1,0,0,0,.16.67l8.28,12.66a.94.94,0,0,0,.56.42h.18a.81.81,0,0,0,.5-.16l7.33-4.79a.86.86,0,0,0,.4-.56.92.92,0,0,0-.14-.7Z"/><path class="cls-1" d="M122.81,38.39l-9.09-13.16a1,1,0,0,0-1.16-.45l-.73.18a1.08,1.08,0,0,0-.81,1l-1.69,16v.32a.81.81,0,0,0,.38.52.77.77,0,0,0,.44.14h.21l.42-.11a.79.79,0,0,0,.53-.36,1,1,0,0,0,.16-.44l.38-3.64,7-1.78,2.07,3a1,1,0,0,0,.35.31.8.8,0,0,0,.64.07l.42-.11a.78.78,0,0,0,.52-.4.88.88,0,0,0,.06-.71Zm-5.26-3.79L112.14,36l.84-8Z"/><path class="cls-1" d="M137.79,23l-10.07-.43a.81.81,0,0,0-.66.25,1,1,0,0,0-.26.64v.35a1,1,0,0,0,.22.66.89.89,0,0,0,.63.29l4,.17L131,38.76a.87.87,0,0,0,.22.66.82.82,0,0,0,.63.29h.39a.89.89,0,0,0,.62-.23.86.86,0,0,0,.29-.64l.6-13.87,3.93.17a.86.86,0,0,0,.65-.22.89.89,0,0,0,.3-.65V24a1,1,0,0,0-.21-.68A.91.91,0,0,0,137.79,23Z"/><path class="cls-1" d="M150.1,25.69l-.4-.12a.84.84,0,0,0-.69.07.89.89,0,0,0-.42.55l-4.33,14.53a.92.92,0,0,0,0,.69.83.83,0,0,0,.54.43l.4.12a.86.86,0,0,0,.7-.07.91.91,0,0,0,.41-.55l4.33-14.53a.92.92,0,0,0,0-.69A.86.86,0,0,0,150.1,25.69Z"/><path class="cls-1" d="M170,37a6.62,6.62,0,0,0-7.59-4.73,7.4,7.4,0,0,0-4.14,3.35c-.25.38-.6.93-1,1.64s-.78,1.27-1,1.67c-2.28,3.87-1.71,6.91,1.69,9a6.65,6.65,0,0,0,3.47,1.15c2,0,3.79-1.19,5.38-3.61.52-.77.88-1.32,1.08-1.63l1-1.68A7.38,7.38,0,0,0,170,37Zm-3.11,4.15q-.69,1.18-.93,1.56c-.15.25-.48.75-1,1.51a5.36,5.36,0,0,1-2.88,2.44h0a4.2,4.2,0,0,1-4.86-3,5.48,5.48,0,0,1,.91-3.66c.23-.39.55-.91.94-1.55s.72-1.14,1-1.52A5.42,5.42,0,0,1,163,34.47a4.94,4.94,0,0,1,.94-.12A4.07,4.07,0,0,1,166,35a3.7,3.7,0,0,1,1.82,2.47,5.38,5.38,0,0,1-.91,3.68Z"/><path class="cls-1" d="M188.55,54.27a.85.85,0,0,0-.2-.68l-.25-.31a.88.88,0,0,0-.62-.34,1.05,1.05,0,0,0-.66.22l-8.93,7L182.63,47a1,1,0,0,0-.13-.92l-.29-.36a.87.87,0,0,0-.63-.34,1.11,1.11,0,0,0-.65.22L169,55a.94.94,0,0,0-.36.59h0a.89.89,0,0,0,.19.67l.24.31a1,1,0,0,0,.6.35.88.88,0,0,0,.68-.2l8.92-7-4.72,13.07a1,1,0,0,0,.13.92l.3.38a.84.84,0,0,0,.63.34h0a.87.87,0,0,0,.61-.22l11.88-9.35A.87.87,0,0,0,188.55,54.27Z"/><path class="cls-1" d="M196.84,70.42a7,7,0,0,0-1.49-2.56,4.62,4.62,0,0,0-2.17-1.28,4.41,4.41,0,0,0-2.44.12,4.56,4.56,0,0,0-2,1.22,4.33,4.33,0,0,0-.93,2,16,16,0,0,0-.22,3,26.64,26.64,0,0,1-.09,3,3.64,3.64,0,0,1-.42,1.52,1.69,1.69,0,0,1-1,.76A2.25,2.25,0,0,1,184,78a4.62,4.62,0,0,1-1.6-2.49,4.51,4.51,0,0,1-.2-2.88A2.62,2.62,0,0,1,183.51,71a.88.88,0,0,0,.46-1.09l-.14-.42a1,1,0,0,0-.45-.5.86.86,0,0,0-.67,0,4.37,4.37,0,0,0-1.87,1.47,5.16,5.16,0,0,0-.9,2.53,7.46,7.46,0,0,0,.42,3.18,6.78,6.78,0,0,0,2.58,3.67,4.07,4.07,0,0,0,2.22.67,4.61,4.61,0,0,0,1.68-.29,3.93,3.93,0,0,0,1.94-1.28,4.49,4.49,0,0,0,.85-2,17,17,0,0,0,.19-3.11c0-.93,0-1.87.11-2.81a3.34,3.34,0,0,1,.46-1.43,2.28,2.28,0,0,1,3-.53,4.26,4.26,0,0,1,1.38,2.13,4,4,0,0,1,.14,2.48,2.25,2.25,0,0,1-1.21,1.48.85.85,0,0,0-.5.55.89.89,0,0,0,0,.56l.14.41a.77.77,0,0,0,.47.52.88.88,0,0,0,.64,0,4.27,4.27,0,0,0,1.75-1.34,4.94,4.94,0,0,0,1-2.35A6.39,6.39,0,0,0,196.84,70.42Z"/><path class="cls-1" d="M63.52,107.33a3.78,3.78,0,0,0,2-.8,4.1,4.1,0,0,0,1.17-1.72,15.54,15.54,0,0,0,.76-2.79,25.75,25.75,0,0,1,.63-2.52,3.33,3.33,0,0,1,.68-1.2,2.09,2.09,0,0,1,2.77.08,3.9,3.9,0,0,1,.84,2.18,3.67,3.67,0,0,1-.34,2.26,2,2,0,0,1-1.35,1.1.86.86,0,0,0-.68.94v.41a.75.75,0,0,0,.34.58.86.86,0,0,0,.6.14,3.81,3.81,0,0,0,1.85-.89,4.49,4.49,0,0,0,1.34-2,5.9,5.9,0,0,0,.27-2.83,6.26,6.26,0,0,0-.87-2.61,4.24,4.24,0,0,0-1.74-1.59,4,4,0,0,0-2.25-.35,4.23,4.23,0,0,0-2,.74,4,4,0,0,0-1.22,1.62,15.4,15.4,0,0,0-.76,2.65c-.25,1.2-.47,2.11-.65,2.72a3.39,3.39,0,0,1-.67,1.29,1.54,1.54,0,0,1-1,.49,2.07,2.07,0,0,1-1.83-.58,4.28,4.28,0,0,1-1-2.54,4.13,4.13,0,0,1,.37-2.63,2.38,2.38,0,0,1,1.42-1.16.83.83,0,0,0,.65-.93V97a.77.77,0,0,0-.33-.56.82.82,0,0,0-.61-.16,3.89,3.89,0,0,0-2,1,4.9,4.9,0,0,0-1.3,2.13,6.93,6.93,0,0,0-.22,3A6.32,6.32,0,0,0,60,106.23a3.86,3.86,0,0,0,2.79,1.14A4.17,4.17,0,0,0,63.52,107.33Z"/><path class="cls-1" d="M78.59,116l-.28-.64a1,1,0,0,0-1-.61l-14.88.83-.29.08a.86.86,0,0,0-.44.44.77.77,0,0,0,0,.63l.16.38a.79.79,0,0,0,.43.43.85.85,0,0,0,.44.09l3.36-.19,2.66,6.1-2.43,2.34a1.47,1.47,0,0,0-.24.37.83.83,0,0,0,0,.62l.17.37a.7.7,0,0,0,.46.43.62.62,0,0,0,.27,0,.86.86,0,0,0,.41-.1l.26-.18,10.68-10.28A1,1,0,0,0,78.59,116Zm-3,.91L70.33,122l-2-4.67Z"/><path class="cls-1" d="M89.83,134.19A.83.83,0,0,0,90,133l-.27-.33a.88.88,0,0,0-.54-.31,1.14,1.14,0,0,0-.45,0l-11.85,4.47,6.66-10.79a.8.8,0,0,0,.12-.43.74.74,0,0,0-.2-.58l-.27-.33a.76.76,0,0,0-.56-.28.83.83,0,0,0-.64.23l-7.85,12.67h0a1.08,1.08,0,0,0,.08,1.32l.36.44a1.06,1.06,0,0,0,.83.42,1.22,1.22,0,0,0,.46-.09l13.73-5.16Z"/><path class="cls-1" d="M98.59,139.57a5.56,5.56,0,0,0-4.36-1,6.94,6.94,0,0,0-4,3c-.25.35-.6.85-1,1.49s-.77,1.15-1,1.51C86,148.1,86.4,150.94,89.5,153a6,6,0,0,0,3.35,1.2q2.7,0,5-3.18a10.32,10.32,0,0,0,1-1.47l1-1.53a6.85,6.85,0,0,0,1.28-4.78A5.53,5.53,0,0,0,98.59,139.57Zm-1.17,1.73a3.4,3.4,0,0,1,1.6,2.33A5,5,0,0,1,98,147c-.46.72-.76,1.19-.91,1.41s-.47.68-1,1.37a5,5,0,0,1-2.73,2.15,3.39,3.39,0,0,1-2.77-.62A3.36,3.36,0,0,1,89,149a5,5,0,0,1,1-3.34c.23-.36.53-.82.92-1.4l1-1.38a5.08,5.08,0,0,1,2.74-2.14,4.53,4.53,0,0,1,.74-.08A3.71,3.71,0,0,1,97.42,141.3Z"/><path class="cls-1" d="M110.13,145.76l-.36-.14a.8.8,0,0,0-1.1.5l-5,13.14a.94.94,0,0,0,0,.66.8.8,0,0,0,.49.46l.36.14a.87.87,0,0,0,.32.06.72.72,0,0,0,.35-.08.87.87,0,0,0,.44-.5l5-13.14a.86.86,0,0,0,0-.67A.85.85,0,0,0,110.13,145.76Z"/><path class="cls-1" d="M122.88,148.86l-4.71-.62a.86.86,0,0,0-.66.19.94.94,0,0,0-.3.59l-1.83,13.91a.89.89,0,0,0,.15.64.75.75,0,0,0,.58.33h.36a.85.85,0,0,0,1-.7.07.07,0,0,0,0,0l.71-5.42,3.54.47,2.37,5.91a2,2,0,0,0,.32.59,1,1,0,0,0,.69.34h.34a.73.73,0,0,0,.51-.18.83.83,0,0,0,.31-.55.84.84,0,0,0-.06-.44l-2.3-5.78a4.11,4.11,0,0,0,2.17-1.13,4.68,4.68,0,0,0,1.26-2.83,4.5,4.5,0,0,0-.9-3.69A5.51,5.51,0,0,0,122.88,148.86Zm2.36,5.08a2.46,2.46,0,0,1-1,1.87,3.57,3.57,0,0,1-2.44.34l-3.38-.44.68-5.23,3.39.44a3.63,3.63,0,0,1,2.27,1A2.45,2.45,0,0,1,125.24,153.94Z"/><path class="cls-1" d="M141.4,156.5a.86.86,0,0,0-.64-.17l-6,.75a.88.88,0,0,0-.58.33.85.85,0,0,0-.16.65v.29a.84.84,0,0,0,.31.59.68.68,0,0,0,.51.18H135l6-.75a.83.83,0,0,0,.59-.33.87.87,0,0,0,.15-.65v-.29A.89.89,0,0,0,141.4,156.5Z"/><path class="cls-1" d="M157.89,150.86a.84.84,0,0,0-1.14-.51L151,152.66l-1.85-4.6,6.16-2.46a.85.85,0,0,0,.49-1.14l-.12-.3a1,1,0,0,0-.45-.51.92.92,0,0,0-.69,0l-7.31,2.92a.83.83,0,0,0-.48.49.94.94,0,0,0,0,.66l5.21,13a.84.84,0,0,0,.45.49.6.6,0,0,0,.32.07.7.7,0,0,0,.35-.06l.34-.14a.83.83,0,0,0,.5-1.07.14.14,0,0,0,0-.06l-2.15-5.38,5.78-2.31a.87.87,0,0,0,.49-.45.92.92,0,0,0,0-.69Z"/><path class="cls-1" d="M177.34,145.68l-12.51-8a1,1,0,0,0-1.18,0l-.56.42a1,1,0,0,0-.35,1.14L167,153.57l.15.27a.82.82,0,0,0,.53.32h.13a.7.7,0,0,0,.48-.16l.33-.24a.74.74,0,0,0,.32-.52.86.86,0,0,0,0-.45l-1-3.22,5.31-4,2.85,1.82a.87.87,0,0,0,.41.14.84.84,0,0,0,.59-.17l.33-.25a.79.79,0,0,0,.31-.55.91.91,0,0,0-.21-.65Zm-5.93-1.32-4,3.08-2.13-7Z"/><path class="cls-1" d="M174,128.85a.85.85,0,0,0-1.22.1l-.25.3a.8.8,0,0,0-.2.64.86.86,0,0,0,.33.57l10.8,9a.87.87,0,0,0,.57.22h.06a.86.86,0,0,0,.59-.31l.24-.3a.82.82,0,0,0,.21-.64.88.88,0,0,0-.33-.57Z"/><path class="cls-1" d="M195.66,119.86a1.23,1.23,0,0,0-.43-.1L189,120a4.13,4.13,0,0,0-.35-2.42,4.73,4.73,0,0,0-2.27-2.12,4.52,4.52,0,0,0-3.78-.36,5.54,5.54,0,0,0-2.73,2.79l-2.13,4.24a.83.83,0,0,0,0,.69.92.92,0,0,0,.46.47l12.53,6.3a.83.83,0,0,0,1.16-.36l.17-.33a.84.84,0,0,0,.06-.66.88.88,0,0,0-.45-.52l-4.88-2.45,1.6-3.18,6.36-.3a1.84,1.84,0,0,0,.66-.12.94.94,0,0,0,.55-.54l0-.13a.77.77,0,0,0,0-.63A.78.78,0,0,0,195.66,119.86Zm-9.24,1.46-1.53,3.05L180.17,122l1.53-3a3.65,3.65,0,0,1,1.66-1.83,2.5,2.5,0,0,1,2.1.23,2.55,2.55,0,0,1,1.44,1.54A3.6,3.6,0,0,1,186.42,121.32Z"/><path class="cls-1" d="M200.84,101.21a.92.92,0,0,0-.58-.36H200a.86.86,0,0,0-.68.11.92.92,0,0,0-.36.58l-1.22,6.77-4.8-.86,1.12-6.17a.85.85,0,0,0-.13-.65.87.87,0,0,0-.58-.36l-.32-.06a.88.88,0,0,0-.67.12.85.85,0,0,0-.36.58L190.84,107l-4.59-.83,1.2-6.61a.85.85,0,0,0-.13-.65.87.87,0,0,0-.58-.36l-.31-.06a.91.91,0,0,0-.68.12.85.85,0,0,0-.36.58L184,107.05a.8.8,0,0,0,.16.67.89.89,0,0,0,.57.32l13.8,2.5h.18a.85.85,0,0,0,.47-.13h0a.83.83,0,0,0,.35-.57l1.44-8A.89.89,0,0,0,200.84,101.21Z"/><path class="cls-1" d="M124.71,94.46h0c-3.71,3.06-7,6.3-6.93,12.24.1,5.11,4.31,9.47,9.19,9.52A9,9,0,0,0,133,114l.09-.08a20.32,20.32,0,0,0,3.82-3.93h0A158,158,0,0,1,124.71,94.46Z"/><path class="cls-1" d="M125.49,89h0c2.52-2.29,7.19-6.53,7.53-10.67a6.5,6.5,0,0,0-1.5-5,4.79,4.79,0,0,0-3.63-1.7A6.48,6.48,0,0,0,121.37,78v.24c-.06,1.68.6,4.9,4.11,10.74Z"/><path class="cls-1" d="M129.85,51a42.76,42.76,0,1,0,42.36,43.17A42.75,42.75,0,0,0,129.85,51Zm20.4,46.25h-3.81a36.92,36.92,0,0,1-4.87,12.4h0c2,2.25,4.17,4.54,6.34,6.79a1.81,1.81,0,0,1-.06,2.56h0a1.88,1.88,0,0,1-2.56,0c-2-2.1-4-4.22-5.86-6.29h0a24.11,24.11,0,0,1-4.08,4.06,12.57,12.57,0,0,1-8.42,3.09,13.19,13.19,0,0,1-12.76-13.07C114,98.55,119,94.42,122.7,91.4h0c-3.41-5.55-5.07-10-5-13.28V78a10.13,10.13,0,0,1,10.19-10,8.43,8.43,0,0,1,6.32,2.93,10.09,10.09,0,0,1,2.37,7.79c-.44,5.51-5.89,10.44-8.81,13.09l-.36.33h0A147.84,147.84,0,0,0,139,106.79h0a33.17,33.17,0,0,0,3.72-9.56H139A1.81,1.81,0,0,1,137,95.56a1.83,1.83,0,0,1,1.67-1.94H139l11.25.11a1.81,1.81,0,0,1,0,3.61Z"/><path class="cls-4" d="M107.16,184.07a.82.82,0,0,0-.65.1,1.17,1.17,0,0,0-.36.52l1.62.41a.9.9,0,0,0-.08-.62A.76.76,0,0,0,107.16,184.07Z"/><path class="cls-4" d="M161,184.41h0l-.27-.77a2.19,2.19,0,0,0-1-1.33,1.59,1.59,0,0,0-.74-.18,2.39,2.39,0,0,0-.65.11,1.78,1.78,0,0,0-1.1.87,2.34,2.34,0,0,0,0,1.65l.24.78c.1.32.19.58.26.77a2.3,2.3,0,0,0,1,1.34,2,2,0,0,0,2.5-.8,2.34,2.34,0,0,0,0-1.65A4.6,4.6,0,0,1,161,184.41Z"/><path class="cls-4" d="M128.62,186.7h-1.49l-.11,5.5h1.54a2.62,2.62,0,0,0,1.21-.17,1.06,1.06,0,0,0,.58-.56,3.58,3.58,0,0,0,.24-1.22v-1.54a2.21,2.21,0,0,0-.43-1.54A2.13,2.13,0,0,0,128.62,186.7Z"/><path class="cls-4" d="M175.09,166.19l-.08-.11-.11.07a84.75,84.75,0,0,1-45,12.9h-.83a84.73,84.73,0,0,1-45.59-13.79l-.12-.08L72.45,181.89l-.07.12.11.07a105.36,105.36,0,0,0,113.43.92h.1ZM119,183.78l.81-.77a1,1,0,0,1,.27-.19,1,1,0,0,1,.35,0l.48.06a.45.45,0,0,1,.42.47.43.43,0,0,1,0,.05.46.46,0,0,1-.17.29l-1.26.81a.55.55,0,0,1-.25.1h-.42a.43.43,0,0,1-.29-.16.45.45,0,0,1-.09-.32A.5.5,0,0,1,119,183.78Zm-25.54-3.3h0a2.59,2.59,0,0,1-.79,1,4.31,4.31,0,0,1-1.31.64l-2.66,1,2.62,1.19a.55.55,0,0,1,.28.28.53.53,0,0,1,0,.39l-.06.14a.48.48,0,0,1-.29.27h-.16a.44.44,0,0,1-.22,0L87,183.56a.46.46,0,0,1-.26-.27.5.5,0,0,1,0-.38l.06-.14a.92.92,0,0,1,.59-.44L90.94,181a3.37,3.37,0,0,0,1-.46,1.54,1.54,0,0,0,.46-.61,1.17,1.17,0,0,0,.08-1,1.37,1.37,0,0,0-2.5-.09.49.49,0,0,1-.32.24.5.5,0,0,1-.34,0l-.19-.09a.51.51,0,0,1-.26-.26.55.55,0,0,1,0-.36,3,3,0,0,1,.74-.91,2.61,2.61,0,0,1,1.17-.5,2.52,2.52,0,0,1,1.43.24,2.42,2.42,0,0,1,1.41,1.41,2.46,2.46,0,0,1-.16,1.88Zm8.8,1.34V182a.49.49,0,0,1-.62.32h0l-2.61-.9-.68,1.52a3.29,3.29,0,0,1,2.26.91,2.37,2.37,0,0,1,.67,1.18,2.56,2.56,0,0,1-.1,1.45,2.84,2.84,0,0,1-.84,1.28,2.25,2.25,0,0,1-1.26.55h-.35a3.29,3.29,0,0,1-1.07-.18,2.87,2.87,0,0,1-1.22-.75,2.35,2.35,0,0,1-.61-1.06,2.17,2.17,0,0,1,0-1.13.48.48,0,0,1,.26-.3.5.5,0,0,1,.34,0l.19.07a.54.54,0,0,1,.28.19.58.58,0,0,1,.07.4,1.27,1.27,0,0,0,.24.91,1.79,1.79,0,0,0,2,.58,1.43,1.43,0,0,0,.79-.94,1.3,1.3,0,0,0-.32-1.45,1.84,1.84,0,0,0-.72-.44,2.13,2.13,0,0,0-.57-.11,4.52,4.52,0,0,0-.53.11,1.32,1.32,0,0,1-.33.08.69.69,0,0,1-.35,0l-.17-.06a.51.51,0,0,1-.29-.25.49.49,0,0,1,0-.41l1.41-3.13a.67.67,0,0,1,.23-.27.53.53,0,0,1,.39,0l3.23,1.11a.38.38,0,0,1,.25.58Zm6.07,3.67v.09a.23.23,0,0,1-.13.17.23.23,0,0,1-.2,0l-2-.5a1,1,0,0,0,0,.42.74.74,0,0,0,.19.41.66.66,0,0,0,.38.23.82.82,0,0,0,.49,0,.81.81,0,0,0,.32-.16.38.38,0,0,1,.15-.09.25.25,0,0,1,.17,0h.09a.32.32,0,0,1,.16.09.23.23,0,0,1,0,.2.6.6,0,0,1-.28.34,1.41,1.41,0,0,1-.56.21h-.27a1.74,1.74,0,0,1-.45-.06,1.25,1.25,0,0,1-.89-.66h0a1.75,1.75,0,0,1-.15-1.17l.12-.49a1.84,1.84,0,0,1,.69-1,1.34,1.34,0,0,1,1.1-.16,1.37,1.37,0,0,1,1,.72,1.87,1.87,0,0,1,.1,1.41Zm13.63.42a.48.48,0,0,1-.56.43L118,186l-.24,2.12,3.13.37a.57.57,0,0,1,.35.18.48.48,0,0,1,.1.38v.16a.5.5,0,0,1-.2.34.46.46,0,0,1-.36.09l-3.14-.37-.26,2.23,3.45.4a.51.51,0,0,1,.35.19.49.49,0,0,1,.09.37v.16a.5.5,0,0,1-.2.34.47.47,0,0,1-.3.1h-.06l-4.14-.49a.46.46,0,0,1-.34-.18.51.51,0,0,1-.1-.36l.8-6.82a.51.51,0,0,1,.17-.33.56.56,0,0,1,.37-.11l4.06.47a.57.57,0,0,1,.35.18.48.48,0,0,1,.1.38Zm9.82,3.64v.84a4.54,4.54,0,0,1-.35,1.71,2.07,2.07,0,0,1-1,1,3.85,3.85,0,0,1-1.64.29h-.17l-2.28-.06a.48.48,0,0,1-.49-.46v0l.18-6.86a.59.59,0,0,1,.14-.35.54.54,0,0,1,.36-.14l2.24.06a4.27,4.27,0,0,1,1.83.39,2.14,2.14,0,0,1,1,1.1,4.56,4.56,0,0,1,.26,1.67,2.57,2.57,0,0,0-.1.85Zm5.62,3.45a.44.44,0,0,1-.35.17h-.23a.45.45,0,0,1-.33-.12.52.52,0,0,1-.16-.34l-.46-6.85a.48.48,0,0,1,.46-.53h.2a.47.47,0,0,1,.36.12.46.46,0,0,1,.16.34l.47,6.85A.42.42,0,0,1,137.42,193Zm9-7.81a.48.48,0,0,1-.33.18l-1.78.26.9,6.14a.46.46,0,0,1-.09.38.48.48,0,0,1-.33.18h-.27a.4.4,0,0,1-.29-.09h0a.45.45,0,0,1-.16-.31l-.9-6.14-1.79.27A.46.46,0,0,1,141,186a.45.45,0,0,1-.19-.33v-.16a.52.52,0,0,1,.08-.36.51.51,0,0,1,.34-.21l4.74-.7a.71.71,0,0,1,.38.08.57.57,0,0,1,.2.35v.15a.51.51,0,0,1-.12.38Zm6.36,5.48a.44.44,0,0,1-.32.21l-.19.05h-.12a.38.38,0,0,1-.25-.07.48.48,0,0,1-.22-.31l-1.53-6.7a.52.52,0,0,1,.06-.38.53.53,0,0,1,.31-.21l.2,0a.48.48,0,0,1,.37.06.55.55,0,0,1,.22.32l1.53,6.69a.47.47,0,0,1,0,.4Zm7.66-1.86a3.66,3.66,0,0,1-1.18.2c-1.24,0-2.14-.77-2.66-2.28-.07-.2-.17-.48-.28-.84s-.2-.64-.26-.85a3.33,3.33,0,0,1,.1-2.48,3,3,0,0,1,1.83-1.43,3.06,3.06,0,0,1,2.32.1,3.39,3.39,0,0,1,1.52,2c.14.4.24.68.29.84l.25.85c.65,2-.06,3.31-1.9,3.9Zm12.28-5.09a.44.44,0,0,1-.27.29l-.21.09a.5.5,0,0,1-.5,0l-5.16-3.35,2,4.48a.44.44,0,0,1,0,.39.43.43,0,0,1-.27.26l-.17.08a.38.38,0,0,1-.21,0,.25.25,0,0,1-.17,0,.43.43,0,0,1-.27-.26l-2.77-6.28a.59.59,0,0,1,0-.37.51.51,0,0,1,.27-.29l.2-.09a.55.55,0,0,1,.5,0l5.17,3.36-2-4.49a.47.47,0,0,1,0-.37.5.5,0,0,1,.26-.29l.18-.07a.53.53,0,0,1,.39,0,.44.44,0,0,1,.27.28l2.77,6.26a.55.55,0,0,1,0,.38Z"/><path class="cls-5" d="M10.45,253.56a.36.36,0,0,0,0,.25,1.13,1.13,0,0,1,0,.26.24.24,0,0,1-.06.17l-.11.15a.42.42,0,0,1-.16.25.17.17,0,0,1-.14,0l-.14-.12a.31.31,0,0,0-.16-.11.11.11,0,0,1-.08-.08v-.1a.11.11,0,0,0,0-.08v-.08a1.59,1.59,0,0,1-.08-.33,1,1,0,0,0-.09-.33,1.41,1.41,0,0,0-.21-.35c-.09-.11-.17-.22-.25-.34l-.23-.36a1.81,1.81,0,0,0-.18-.23l-.21-.2c-.08-.07-.2-.15-.35-.26H7.94l-.08,0h0l-.42.53a2.53,2.53,0,0,1-.49.49,1.09,1.09,0,0,1-.3.23l-.31.21-.22.21-.15.16a.55.55,0,0,1-.18.16.91.91,0,0,1-.34.17A1.75,1.75,0,0,0,5,254a2.43,2.43,0,0,1-.32.24.08.08,0,0,1-.1,0h0l-.12,0H4.36l-.18.05-.29.09-.28.11a.13.13,0,0,0-.13.12.13.13,0,0,1-.14.09.2.2,0,0,1-.08-.14h0a.66.66,0,0,1-.33.12.5.5,0,0,1-.35-.1,1.25,1.25,0,0,1-.69.05,1.09,1.09,0,0,1-.51-.24A1.6,1.6,0,0,1,.92,254c-.14-.17-.29-.33-.45-.49a.1.1,0,0,1-.15,0h0a.11.11,0,0,1,0-.08H.38A1.1,1.1,0,0,0,.25,253a.49.49,0,0,0-.13-.2.41.41,0,0,1-.12-.19.06.06,0,0,1,0-.06h0v-.37a1,1,0,0,1,.07-.38c0-.05.07-.07.15-.07h0a.14.14,0,0,0,0-.09.14.14,0,0,1,0-.09h0v-.06a.47.47,0,0,1,.15-.13.36.36,0,0,0,.16-.11.28.28,0,0,1,0-.22h0a.17.17,0,0,1,.13-.1h0l.34-.32.35-.31a2.85,2.85,0,0,1,1-.54l.14,0h.13l.39-.17a3,3,0,0,1,.39-.13,3.81,3.81,0,0,1,.82-.09.07.07,0,0,1,.07.08c0,.08.07,0,.08,0a.49.49,0,0,0,.33.09h.34a2,2,0,0,1,.35,0,.67.67,0,0,1,.34.16H6l.28.09.23.1h.13a.31.31,0,0,0,.11-.09h.11s.07.06.06.09V250H7a.48.48,0,0,1,.19-.07H7.4a.73.73,0,0,0,.14-.38,1.7,1.7,0,0,1,.1-.37.93.93,0,0,1,.16-.37,1.63,1.63,0,0,0,.13-.39c.06-.23.13-.47.21-.7a4.17,4.17,0,0,1,.35-.66.35.35,0,0,1-.08-.33,2.42,2.42,0,0,1,.12-.35l.06-.1.06-.1V246a.6.6,0,0,1,0-.19v-.15a.22.22,0,0,0,0-.16v-.19a.11.11,0,0,0,0-.08s-.06,0-.06-.1v-.06h.05a.57.57,0,0,0,.14-.38v-.42a1.41,1.41,0,0,0-.13-.24.34.34,0,0,1,.1-.22c.1-.1,0,0-.07,0v-.06h0a.54.54,0,0,1,0-.18l-.08-.09v-.25l.12-.25v-.11a.28.28,0,0,0,0-.13h0l-.08.05-.05-.05c-.05,0,0-.06,0-.06h.06a.35.35,0,0,1-.07-.12l-.09-.16-.09-.17a.24.24,0,0,1,0-.12,4,4,0,0,0-.09-.48.39.39,0,0,0-.34-.3l-.14.06a.07.07,0,0,1-.11,0h0a.17.17,0,0,1,0-.14l.08-.13h0V241c0-.07-.11.07-.16,0l-.06.13a.41.41,0,0,1-.07.11h0a.2.2,0,0,1,0,.11.45.45,0,0,1-.1.13l-.14.11a.14.14,0,0,1-.15,0,.11.11,0,0,1-.08-.08.18.18,0,0,1,0-.2.31.31,0,0,0,.06-.19H6.92a.19.19,0,0,1-.21,0c-.12.11-.24.23-.35.35a1.36,1.36,0,0,1-.37.31.92.92,0,0,1-.27.16,1.78,1.78,0,0,0-.27.17l-.23.21-.22.24a1.37,1.37,0,0,1-.23.45,3.08,3.08,0,0,1-.3.41H5a.14.14,0,0,1,0,.15.28.28,0,0,1-.27.19.75.75,0,0,0-.33.1,2.63,2.63,0,0,0-.59.56,1.2,1.2,0,0,0-.11.23,2.25,2.25,0,0,0-.08.24c-.06.17-.12.35-.19.52a5.43,5.43,0,0,0-.17.53,1.64,1.64,0,0,1-.14.39,1.12,1.12,0,0,0-.13.39h0a1.33,1.33,0,0,0,.13.53.79.79,0,0,0,.35.41.13.13,0,0,0,.12,0,.15.15,0,0,1,.13,0h0a.49.49,0,0,1,.11-.14h.1l.11.08.09.12H4a.31.31,0,0,0,.18-.09.25.25,0,0,1,.17,0c.13-.12.27-.25.42-.37l.45-.37a3.24,3.24,0,0,0,.43-.4A2.46,2.46,0,0,0,6,246a2.15,2.15,0,0,0,.19-.37,1.59,1.59,0,0,0,.1-.39.1.1,0,0,1,.08-.06h0l.21-.26a.56.56,0,0,1,.26-.17A.31.31,0,0,0,7,244.7h.17c.07,0,.11,0,.11.1h0l.16.17a.3.3,0,0,1,.08.23.06.06,0,0,1,0,.06l-.06.05.08.08v.1s0,0-.06.09h0v.15a.85.85,0,0,1-.08.42,2.46,2.46,0,0,1-.19.4.15.15,0,0,1-.11.11.24.24,0,0,0-.1.1H7s0,.07-.12.17l-.14.18a2.28,2.28,0,0,1-.4.42c-.13.1-.28.22-.47.35a3.28,3.28,0,0,1-.87.5,3.13,3.13,0,0,1-1,.25.44.44,0,0,1-.44.1,1.7,1.7,0,0,1-.55.07,1,1,0,0,0-.41-.07H2.54s0,0,0,0H2.46a1.3,1.3,0,0,1-.32-.3,2,2,0,0,1-.28-.41,2,2,0,0,1-.22-.44,1.42,1.42,0,0,1-.08-.42c-.05,0-.06,0-.06-.07s0,0,.09,0a.76.76,0,0,0,0-.3,1.09,1.09,0,0,1,0-.36,2.2,2.2,0,0,1,.15-.31,1.77,1.77,0,0,0,.19-.33l.15-.32c.06-.11.11-.22.16-.33a1.61,1.61,0,0,0,.12-.33l.12-.34.16-.31.15-.32a.11.11,0,0,1,0-.08.09.09,0,0,1,.1,0,2.67,2.67,0,0,1,.25-.43,3.94,3.94,0,0,0,.26-.4l.09-.2a.66.66,0,0,1,.12-.17,1.09,1.09,0,0,1,.29-.23.62.62,0,0,0,.29-.24l.24-.32.25-.32a.19.19,0,0,1,.14-.12.12.12,0,0,1,.06.06l.21-.21.26-.17a.82.82,0,0,0,.26-.23.79.79,0,0,1,.27-.21l.19-.1a.46.46,0,0,0,.17-.14h.11a.77.77,0,0,0,.37,0l.4-.23a1.21,1.21,0,0,1,.38,0,1.23,1.23,0,0,1,.46.14.17.17,0,0,0,0-.1s0-.06.11,0,.07,0,.07.07a.2.2,0,0,0,0,.11l.34.21a1.05,1.05,0,0,1,.27.24,3,3,0,0,1,.36.51c.08.17.16.33.23.5s.14.34.2.51a5,5,0,0,0,.25.53v.07l0,.06h0s.06.07.06.09l-.1.19a.74.74,0,0,0,0,.21,1.5,1.5,0,0,0,.08.47,2,2,0,0,0,.13.44,1.59,1.59,0,0,1,.06.43,1,1,0,0,1-.15.49.68.68,0,0,1,.08.36.4.4,0,0,1-.09.21l-.14.18a.36.36,0,0,0-.07.24v.25a.27.27,0,0,0,.07.13.18.18,0,0,1-.08.09h0a1.58,1.58,0,0,1-.09.31c0,.11-.07.21-.1.31-.08.26-.15.53-.23.8a5.13,5.13,0,0,1-.27.78,3.71,3.71,0,0,0-.12.41,1.76,1.76,0,0,1-.16.4.17.17,0,0,1,0,.1h0a1,1,0,0,1,0,.25.32.32,0,0,1-.09.23l0,.06v.15h0a.64.64,0,0,0,.13.19l.14.17a2.61,2.61,0,0,0,.31.27,1.31,1.31,0,0,1,.3.27,3.15,3.15,0,0,1,.22.33l.21.33a1,1,0,0,1,.16.34,1,1,0,0,0,.12.34l.18.36a1.32,1.32,0,0,1,.13.38h0v0h0A.53.53,0,0,1,10.45,253.56ZM6.57,251.1l-.1-.13a.64.64,0,0,1-.08-.14h0a.85.85,0,0,1-.31-.09,1.18,1.18,0,0,1-.29-.16l-.09-.08-.1-.08H5.25a1,1,0,0,1-.35,0H4.54a1,1,0,0,0-.35,0l-.3.06-.36.15-.35.2A1.45,1.45,0,0,0,3,251H2.29l-.15.33a1.16,1.16,0,0,1-.2.32l-.32.39a.79.79,0,0,0-.15.46.26.26,0,0,0,.07.15l.11.17a.64.64,0,0,0,.16.29.65.65,0,0,0,.22.11.53.53,0,0,0,.25,0,1.5,1.5,0,0,1,.3,0l.32.1a.92.92,0,0,0,.27.08l.31-.11.32-.07a.3.3,0,0,0,.15-.07l.14-.08.24-.06a.52.52,0,0,0,.23-.1l.32-.21a1.12,1.12,0,0,1,.35-.12,1.37,1.37,0,0,1,.34-.42h0a.19.19,0,0,1,.11-.15l.2-.07a.3.3,0,0,0,.19-.16c0-.08.07-.16.1-.23l.09-.22a.1.1,0,0,1,.11-.09h.08v-.06Z"/><path class="cls-5" d="M21.76,253h-.44l-.16.06-.24.13a.49.49,0,0,1-.15.24.61.61,0,0,1-.22.13l-.26.1a2.2,2.2,0,0,0-.25.17,2.4,2.4,0,0,1-2-.49.58.58,0,0,1-.18-.17l-.14-.17a.19.19,0,0,0-.09-.05l-.06-.06a.86.86,0,0,1-.13-.36,3.12,3.12,0,0,0-.06-.41.69.69,0,0,0-.17-.34.55.55,0,0,0-.43-.12,2.42,2.42,0,0,1-.42.62,3.25,3.25,0,0,1-.61.56,3,3,0,0,1-.71.41,1.57,1.57,0,0,1-.71.16.85.85,0,0,1-.4.51,1.92,1.92,0,0,1-.61.25H13.1a.41.41,0,0,1-.32-.07l-.22-.19-.22-.19a.59.59,0,0,0-.32-.09l-.33-.75a3.54,3.54,0,0,1-.23-.74.22.22,0,0,0,.14-.19v-.22a.22.22,0,0,1-.24-.19.41.41,0,0,1,0-.22c0-.08.07-.16.1-.23a.11.11,0,0,0,0-.16s0,0,0,0a5.93,5.93,0,0,1,.51-1.73,3.9,3.9,0,0,1,1.13-1.39.44.44,0,0,1,0-.43.54.54,0,0,1,.34-.16.82.82,0,0,1,.38.09.39.39,0,0,1,.18.35.37.37,0,0,1,0,.21l-.06.18a4.66,4.66,0,0,1-.26.85c-.12.28-.25.55-.38.81l-.42.79a6.58,6.58,0,0,0-.36.82c-.12.08-.16.16-.12.25a1,1,0,0,0,.16.26.46.46,0,0,1,.1.24c0,.08-.09.15-.27.22a.33.33,0,0,0,0,.36,2.18,2.18,0,0,1,.22.31h.23a.24.24,0,0,0,.18-.13.27.27,0,0,0,.32,0,1.75,1.75,0,0,0,.29-.18,2.21,2.21,0,0,1,.34-.18.49.49,0,0,1,.41,0,.74.74,0,0,0,.17-.25c0-.09.09-.19.14-.27a1.3,1.3,0,0,1,.18-.23.51.51,0,0,1,.32,0,2,2,0,0,1,.54-.61c.23-.16.45-.32.68-.46a4,4,0,0,0,.62-.47,1.14,1.14,0,0,0,.34-.65,8.91,8.91,0,0,0,.57-1,3.65,3.65,0,0,1,.66-.91.43.43,0,0,1,.15-.18.85.85,0,0,1,.22-.09.45.45,0,0,1,.23,0,.74.74,0,0,1,.21.13.87.87,0,0,1-.07.48c-.06.15-.13.29-.2.43a2.75,2.75,0,0,0-.17.45,1,1,0,0,0,0,.54,3,3,0,0,1-.4.21l-.37.19a1.2,1.2,0,0,0-.29.26,1,1,0,0,0-.17.43.72.72,0,0,1,.47.36,1.59,1.59,0,0,1,.07.48,4.51,4.51,0,0,0,0,.52.84.84,0,0,0,.37.54l.08.07.1,0a.3.3,0,0,0,.26,0l.23-.09a.45.45,0,0,1,.23,0c.09,0,.18.06.29.18.15-.18.28-.18.41,0,.12-.21.23-.34.32-.37h.29a.66.66,0,0,0,.28,0c.1,0,.21-.15.33-.37l.13.13c.06-.15.13-.23.21-.22a1,1,0,0,1,.24,0,.38.38,0,0,0,.21,0c.06,0,.09-.14.09-.35a.42.42,0,0,0,.22-.05l.19-.13L23,251a.86.86,0,0,1,.27-.05L23,252Z"/><path class="cls-5" d="M33.23,249.21l-.2.2-.12.14a.76.76,0,0,1-.11.14l-.2.22c-.08.08-.15.17-.22.25a1.09,1.09,0,0,1-.24.24.32.32,0,0,0-.27,0,1.63,1.63,0,0,0-.17.2l-.15.2a.14.14,0,0,1-.17.08,4.47,4.47,0,0,1-.7.33,2.57,2.57,0,0,0-.67.41l-.12-.12-1.53.73-.14.09-.15.1a4,4,0,0,1-.66.31c-.23.1-.46.18-.69.26l-.19.06c.08.2.08.33,0,.41a.59.59,0,0,1-.33.17,2.63,2.63,0,0,1-.49.07,1.17,1.17,0,0,0-.41.1,2.16,2.16,0,0,0-.36,0h-.75a1.21,1.21,0,0,1-.38,0h0a.54.54,0,0,1-.43,0,1,1,0,0,1-.33-.22,1.68,1.68,0,0,1-.27-.37c-.09-.14-.17-.27-.26-.39a2.7,2.7,0,0,1-.22-.33,3.42,3.42,0,0,1-.23-.47,1.72,1.72,0,0,1-.11-.51.64.64,0,0,1,.11-.44,1.44,1.44,0,0,0,.21-.41,1.49,1.49,0,0,0,.08-.52.6.6,0,0,0,0-.19v-.19h.33a.15.15,0,0,0,.14-.06.28.28,0,0,0,0-.18.13.13,0,0,0,0-.12.16.16,0,0,1-.07-.09l.17-.21L23,249a.56.56,0,0,0,.09-.19.76.76,0,0,0,0-.3,3.2,3.2,0,0,1,.42-.55c.16-.16.33-.31.5-.45s.36-.29.55-.42a4.47,4.47,0,0,0,.52-.44.41.41,0,0,0,.45,0,1.48,1.48,0,0,0,.3-.26,2.75,2.75,0,0,1,.26-.22c.09-.06.21,0,.36.07h0a1,1,0,0,1,.79-.35,1.33,1.33,0,0,1,.69.26,1.06,1.06,0,0,1,.38.51.28.28,0,0,1-.14.37h0a.56.56,0,0,1,.17.39.64.64,0,0,1-.12.38,1.92,1.92,0,0,0-.23.35c-.06.13-.13.26-.2.39a3.48,3.48,0,0,1-.32.64,1.33,1.33,0,0,1-.5.5.39.39,0,0,0-.36.06,1.08,1.08,0,0,0-.13.29.66.66,0,0,1-.11.24c0,.06-.12,0-.25-.06h0a2.11,2.11,0,0,0-.18.27.49.49,0,0,1-.18.22l-.28-.08-.28-.06a.82.82,0,0,1-.12.49.68.68,0,0,1-.3.28,1.5,1.5,0,0,1-.41.18l-.46.16a2.22,2.22,0,0,0-.43.23,1.16,1.16,0,0,0-.31.39.52.52,0,0,0,.36.19H24a3.53,3.53,0,0,1,.46,0,.72.72,0,0,1,.4.12h0a2.34,2.34,0,0,0,.68-.17l.65-.26.64-.27a4,4,0,0,1,.68-.18.25.25,0,0,0,.2.13.49.49,0,0,0,.24,0h0a1.21,1.21,0,0,1,.05-.18,1.63,1.63,0,0,1,.09-.19.82.82,0,0,1,.25-.24,1.3,1.3,0,0,1,.32-.14,2.14,2.14,0,0,1,.35-.06h.39a.64.64,0,0,1,.15-.25l.21-.09H30a.35.35,0,0,0,.24-.08.39.39,0,0,0,.44-.06l.34-.31.12.15v-.06l.33-.31.21-.18.25-.16.38-.24.41-.27a2.55,2.55,0,0,0,.38-.29.12.12,0,0,1,.08.11h0a.14.14,0,0,0,0,.09.09.09,0,0,0,.06.12Zm-6.07-1.83h0a1.27,1.27,0,0,0-.51-.16,1.05,1.05,0,0,0-.38.12,2,2,0,0,0-.3.28,1.77,1.77,0,0,1-.3.31.88.88,0,0,1-.36.21.69.69,0,0,1-.49,0,3.55,3.55,0,0,1-.08.47,3.87,3.87,0,0,0-.06.46.9.9,0,0,0-.38.25,1.36,1.36,0,0,0-.24.35c-.06.13-.12.26-.17.4a1.71,1.71,0,0,1-.22.4l.06.08h.13l.11.1a1.47,1.47,0,0,1,.43-.39A6,6,0,0,1,25,250c.19-.09.37-.2.54-.3a1,1,0,0,0,.4-.43,1,1,0,0,0,.7-.52,4.79,4.79,0,0,0,.4-.82c0-.09.07-.17.11-.26A1,1,0,0,0,27.16,247.38Z"/><path class="cls-5" d="M40.92,248.89a.85.85,0,0,1-.08.42c-.07.14-.12.26-.17.37l-.47.49-.28.84-.34.23-.33.22a2.72,2.72,0,0,0-.29.3,1.44,1.44,0,0,1-.27.28,1.14,1.14,0,0,1-.34.19l-.36.19a6.49,6.49,0,0,0-.55.36c-.17.13-.35.25-.54.37l-.11.06a.17.17,0,0,1-.1.07,1.36,1.36,0,0,1-.39.12l-.74.19c-.26.08-.52.15-.75.2l-.4.09a2.44,2.44,0,0,1-.54,0h-.55l-.22.14a3.13,3.13,0,0,0-.36-.22,1.66,1.66,0,0,1-.32-.22c-.1-.09-.19-.19-.29-.3a2.78,2.78,0,0,1-.26-.32l-.15-.4a2.22,2.22,0,0,1-.12-.39l-.07-.55a2,2,0,0,0-.05-.55c-.05-.18,0-.35-.05-.54.16-.46.31-.92.44-1.38a11.8,11.8,0,0,1,.49-1.37c0-.11.1-.22.14-.33a3.27,3.27,0,0,1,.14-.33c.06-.11.12-.22.19-.33a1.65,1.65,0,0,0,.18-.32,1.9,1.9,0,0,0,.12-.36,1.5,1.5,0,0,1,.11-.34l.15-.26.22-.35.23-.36.18-.27.23-.28a.77.77,0,0,0,.19-.3,2.75,2.75,0,0,0,.28-.63,4.43,4.43,0,0,1,.3-.67,4.07,4.07,0,0,1,.41-.61c.16-.19.31-.39.45-.59a4.19,4.19,0,0,0,.42-.67l.65-.47.29.29.7-.12.44.66a1.55,1.55,0,0,1-.06.5,5.62,5.62,0,0,0-.06.56v.56a3.84,3.84,0,0,0,0,.48,4.48,4.48,0,0,1-.21.55,2.71,2.71,0,0,1-.31.49l-.06.79-.59.52-.07.75-.5.59-.09.41a2.77,2.77,0,0,1-.12.41,1.49,1.49,0,0,1-.17.36l-.21.37c-.19.17-.39.35-.6.56s-.38.4-.55.61l-.25.35a2.84,2.84,0,0,1-.22.34,10.2,10.2,0,0,1-.82.91c-.3.28-.58.57-.87.88l.33.57.62.19.65.16.34-.07.39-.08.4-.11a1.85,1.85,0,0,0,.33-.12,3.36,3.36,0,0,0,.68-.35c.25-.15.47-.28.64-.4s.63-.39,1-.6a8.86,8.86,0,0,0,.93-.64,4,4,0,0,0,.61-.56c.22-.22.42-.44.61-.64s.36-.36.51-.49S40.86,248.86,40.92,248.89Zm-4-6.93c-.2.34-.42.67-.65,1s-.44.66-.64,1c-.06.12-.12.24-.17.36a1.55,1.55,0,0,1-.19.36c-.07.11-.14.22-.22.33a2.5,2.5,0,0,0-.21.35,7.28,7.28,0,0,0-.31.71,7.76,7.76,0,0,1-.3.72,3.66,3.66,0,0,1-.41.66,6.77,6.77,0,0,0-.43.66l-.23.47a.24.24,0,0,1-.06.11.6.6,0,0,0-.06.11,1.12,1.12,0,0,0-.06.35,1,1,0,0,1,0,.35,1.26,1.26,0,0,1-.13.34c-.06.11-.11.21-.16.32a2.19,2.19,0,0,0-.12.33,1,1,0,0,1-.1.33l.25-.21.27-.21a2.26,2.26,0,0,0,.25-.28,1.72,1.72,0,0,1,.27-.27l.28-.21a1.21,1.21,0,0,0,.3-.2,3.18,3.18,0,0,0,.41-.66,2,2,0,0,0,.16-.36,1.76,1.76,0,0,1,.17-.37,1.6,1.6,0,0,1,.22-.31.89.89,0,0,0,.24-.3,1.27,1.27,0,0,0,.2-.34l.18-.34a6.5,6.5,0,0,1,.46-.61l.07-.93.53-.61.07-.56.37-.51v-.82Z"/><path class="cls-5" d="M48.77,248.89a.85.85,0,0,1-.08.42l-.17.37-.47.49-.28.84c-.1.08-.22.15-.34.23l-.33.22a2.72,2.72,0,0,0-.29.3,1.44,1.44,0,0,1-.27.28,1.14,1.14,0,0,1-.34.19l-.36.19a6.49,6.49,0,0,0-.55.36c-.17.13-.35.25-.53.37l-.11.06a.19.19,0,0,1-.11.07,1.29,1.29,0,0,1-.38.12l-.74.19c-.27.08-.52.15-.76.2l-.39.09h-1.1L41,254c-.11-.08-.23-.15-.35-.22a1.46,1.46,0,0,1-.33-.22l-.29-.3c-.1-.11-.18-.22-.26-.32l-.15-.4a2.22,2.22,0,0,1-.12-.39l-.07-.55v-.55a2,2,0,0,0-.05-.54c.16-.46.31-.92.44-1.38a14.08,14.08,0,0,1,.5-1.37l.13-.33c.05-.11.09-.23.14-.33s.13-.23.19-.33a1.65,1.65,0,0,0,.18-.32,1.9,1.9,0,0,0,.12-.36c0-.11.07-.22.11-.34l.15-.26.22-.35.23-.36.18-.27.23-.28a1,1,0,0,0,.2-.3,3.52,3.52,0,0,0,.27-.63,4.43,4.43,0,0,1,.3-.67,4.07,4.07,0,0,1,.41-.61,5.39,5.39,0,0,0,.45-.59c.15-.21.29-.43.43-.67l.64-.47.29.29.71-.12.44.66a1.34,1.34,0,0,1-.07.5l-.06.56v.56a3.84,3.84,0,0,0,0,.48,2.6,2.6,0,0,1-.21.55,2.71,2.71,0,0,1-.31.49l-.06.79-.59.52-.07.75-.5.59-.09.41a1.89,1.89,0,0,1-.29.77l-.21.37c-.19.17-.39.35-.6.56s-.38.4-.55.61a2.71,2.71,0,0,0-.24.35l-.23.34a8.86,8.86,0,0,1-.82.91c-.29.28-.58.57-.87.88l.33.57.63.19.64.16.34-.07.39-.08.41-.11.33-.12a3.56,3.56,0,0,0,.67-.35c.25-.15.47-.28.64-.4l1-.6c.32-.2.63-.42.92-.64a4,4,0,0,0,.61-.56c.22-.22.42-.44.61-.64s.34-.33.52-.49S48.71,248.86,48.77,248.89Zm-4-6.93c-.21.34-.43.68-.66,1a10.47,10.47,0,0,0-.63,1,3,3,0,0,0-.18.36,1.55,1.55,0,0,1-.19.36c-.07.11-.14.22-.22.33a1.75,1.75,0,0,0-.2.35,6.43,6.43,0,0,0-.32.71,7.76,7.76,0,0,1-.3.72,3.18,3.18,0,0,1-.41.66,4.59,4.59,0,0,0-.42.66l-.24.47a.24.24,0,0,1-.06.11.6.6,0,0,0-.06.11,1.1,1.1,0,0,0-.05.35,1,1,0,0,1,0,.35,1.26,1.26,0,0,1-.13.34c-.06.11-.11.21-.16.32a2.19,2.19,0,0,0-.12.33,1,1,0,0,1-.1.33l.25-.21.28-.21.24-.28a1.72,1.72,0,0,1,.27-.27l.28-.21a1.21,1.21,0,0,0,.3-.2,3.18,3.18,0,0,0,.41-.66,2,2,0,0,0,.16-.36,1.76,1.76,0,0,1,.17-.37,2.18,2.18,0,0,1,.22-.31,1.42,1.42,0,0,0,.25-.3,1.86,1.86,0,0,0,.19-.34c.06-.11.12-.23.19-.34a4.35,4.35,0,0,1,.45-.61l.07-.93.53-.61.07-.56.37-.51v-.82Z"/><path class="cls-5" d="M57.84,249.21l-.2.2-.12.14a.76.76,0,0,1-.11.14l-.2.22c-.08.08-.15.17-.22.25a1.09,1.09,0,0,1-.24.24.32.32,0,0,0-.27,0,1.63,1.63,0,0,0-.17.2l-.15.2a.14.14,0,0,1-.17.08,4.47,4.47,0,0,1-.7.33,2.47,2.47,0,0,0-.68.41l-.11-.12-1.53.73-.14.09-.15.1a4.07,4.07,0,0,1-.67.31c-.22.1-.45.18-.68.26l-.19.06c.08.2.08.33,0,.41a.59.59,0,0,1-.33.17,2.63,2.63,0,0,1-.49.07,1.17,1.17,0,0,0-.41.1,2.16,2.16,0,0,0-.36,0H48.8a1.21,1.21,0,0,1-.38,0h0a.54.54,0,0,1-.43,0,.8.8,0,0,1-.33-.22,1.68,1.68,0,0,1-.27-.37c-.09-.14-.17-.27-.26-.39a2.7,2.7,0,0,1-.22-.33,3.42,3.42,0,0,1-.23-.47,1.72,1.72,0,0,1-.11-.51.64.64,0,0,1,.11-.44,2.63,2.63,0,0,0,.21-.41,1.49,1.49,0,0,0,.08-.52.6.6,0,0,0,0-.19v-.19h.33a.15.15,0,0,0,.14-.06.23.23,0,0,0,.05-.18.21.21,0,0,0-.05-.12.16.16,0,0,1-.07-.09l.17-.21.14-.16a.56.56,0,0,0,.09-.19.76.76,0,0,0,0-.3,3.2,3.2,0,0,1,.42-.55c.16-.16.33-.31.5-.45s.36-.29.55-.42a4.47,4.47,0,0,0,.52-.44.41.41,0,0,0,.45,0,1.48,1.48,0,0,0,.3-.26,2.75,2.75,0,0,1,.26-.22c.09-.06.21,0,.36.07h0a1,1,0,0,1,.8-.35,1.33,1.33,0,0,1,.69.26,1,1,0,0,1,.37.51.27.27,0,0,1-.12.37h0a.54.54,0,0,1,.16.39.57.57,0,0,1-.11.38,1.92,1.92,0,0,0-.23.35c-.06.13-.13.26-.2.39a3.48,3.48,0,0,1-.32.64,1.33,1.33,0,0,1-.5.5.39.39,0,0,0-.36.06,1.11,1.11,0,0,0-.14.29.64.64,0,0,1-.1.24c0,.06-.12,0-.25-.06h0a2.11,2.11,0,0,0-.18.27.49.49,0,0,1-.18.22l-.4,0-.28-.06a.82.82,0,0,1-.12.49.68.68,0,0,1-.3.28,1.5,1.5,0,0,1-.41.18l-.46.16A2.3,2.3,0,0,0,48,252a1.16,1.16,0,0,0-.31.39.52.52,0,0,0,.36.19h.46a3.53,3.53,0,0,1,.46,0,.72.72,0,0,1,.4.12h0a2.34,2.34,0,0,0,.68-.17l.64-.26.65-.27a4,4,0,0,1,.68-.18.25.25,0,0,0,.2.13.49.49,0,0,0,.24,0h0l.06-.18a1.63,1.63,0,0,1,.09-.19.82.82,0,0,1,.25-.24,1.3,1.3,0,0,1,.32-.14,2.14,2.14,0,0,1,.35-.06h.38a.64.64,0,0,1,.15-.25,1,1,0,0,1,.21-.09h.23a.35.35,0,0,0,.24-.08.39.39,0,0,0,.44-.06l.34-.31.12.15v-.06l.33-.31.21-.18.24-.16.39-.24.41-.27a2.55,2.55,0,0,0,.38-.29.12.12,0,0,1,.08.11V249a.14.14,0,0,0,0,.09.09.09,0,0,0,0,.13.09.09,0,0,0,.13,0Zm-6.07-1.83h0a1.27,1.27,0,0,0-.51-.16,1.05,1.05,0,0,0-.38.12,2,2,0,0,0-.3.28c-.1.11-.2.22-.3.31a.88.88,0,0,1-.36.21.69.69,0,0,1-.49,0l-.09.47a1.48,1.48,0,0,1-.05.46.9.9,0,0,0-.38.25,1.36,1.36,0,0,0-.24.35c-.06.13-.12.26-.17.4a1.71,1.71,0,0,1-.22.4l.06.08h.13l.11.1a1.47,1.47,0,0,1,.43-.39,5.86,5.86,0,0,1,.55-.3c.19-.09.38-.2.55-.3a1,1,0,0,0,.4-.43,1,1,0,0,0,.7-.52,4.79,4.79,0,0,0,.4-.82c0-.09.07-.17.11-.26A1,1,0,0,0,51.77,247.38Z"/><path class="cls-5" d="M70.9,251.82c-.27.25-.51.49-.74.73s-.46.46-.7.68-.47.43-.72.64a5.89,5.89,0,0,1-.83.58c-.15.1-.29.19-.44.27l-.47.22-.15.06-.14.05-.29.2-.33.23-.66.44a4.08,4.08,0,0,0-.63.54,2.76,2.76,0,0,0-.44.65,1.72,1.72,0,0,0-.14.8.86.86,0,0,0-.37.36,1.76,1.76,0,0,0-.16.49,5.15,5.15,0,0,1-.07.53,4,4,0,0,1-.06.51,1,1,0,0,1-.07.25l-.11.23a.11.11,0,0,0,0,.08,0,0,0,0,1,0,.05c-.07.13-.13.24-.19.33a.5.5,0,0,0,0,.38.26.26,0,0,0-.21.14,1,1,0,0,0,0,.25v.3a.29.29,0,0,1-.1.25.36.36,0,0,0-.2.06l-.11.16-.08.2a.52.52,0,0,1-.1.18,2,2,0,0,1-.21.69c-.11.21-.23.42-.36.62s-.26.42-.38.63a2.19,2.19,0,0,0-.23.68l-.27.39a1.55,1.55,0,0,1-.31.36,1.15,1.15,0,0,1-.37.25.91.91,0,0,1-.49.07,1.8,1.8,0,0,1-.8-.29,3.33,3.33,0,0,1-.71-.59,5.38,5.38,0,0,1-.57-.76c-.16-.27-.3-.52-.41-.75a.27.27,0,0,0,.11-.22.49.49,0,0,0,0-.24.82.82,0,0,0-.1-.24.5.5,0,0,1-.09-.24,1.63,1.63,0,0,0,.3-.8c0-.29.1-.58.17-.87a1.43,1.43,0,0,0,.49-.57,1,1,0,0,0,.1-.73,4,4,0,0,1,.53-.56l.63-.53a5.12,5.12,0,0,0,.59-.55,1.74,1.74,0,0,0,.4-.62.52.52,0,0,0,.4-.08,1.61,1.61,0,0,0,.28-.24l.27-.26a.77.77,0,0,1,.36-.15,1.2,1.2,0,0,1,.19-.27,1.16,1.16,0,0,1,.26-.23.75.75,0,0,1,.3-.09.55.55,0,0,1,.32.14.27.27,0,0,0,.3-.09,1.74,1.74,0,0,0,.19-.26,1,1,0,0,1,.19-.21c.06-.05.15,0,.27.07a.38.38,0,0,0,.17-.22.31.31,0,0,0-.06-.26c.23-.62.43-1.23.61-1.84s.37-1.23.55-1.85l.37-1.25.06-.25a1.29,1.29,0,0,1,.08-.28l.11-.23c.05-.08.09-.16.14-.23l.25-.36a1.06,1.06,0,0,1,.29-.22.34.34,0,0,1,.31,0,.81.81,0,0,1,.33.33,4.27,4.27,0,0,1-.13.74,6.6,6.6,0,0,1-.17.77,5.55,5.55,0,0,1-.25.72,2.49,2.49,0,0,1-.39.62,1,1,0,0,1,.09.52,2.12,2.12,0,0,1-.11.45,1.35,1.35,0,0,1-.16.45,1.19,1.19,0,0,0-.07.49l-.17.15a.22.22,0,0,0-.07.2c.09.08.24.07.44,0a4.17,4.17,0,0,0,.66-.35l.68-.42a1.8,1.8,0,0,1,.5-.25l-.1-.1a.17.17,0,0,1,0-.14c.2-.1.41-.2.62-.28l.49-.17a1.77,1.77,0,0,0,.48-.23,3.45,3.45,0,0,0,.56-.45,1.3,1.3,0,0,1,.54-.32A2.19,2.19,0,0,1,70.9,251.82Zm-7.44,5.49a.85.85,0,0,0-.52.07,2.54,2.54,0,0,0-.36.29l-.32.36a.72.72,0,0,1-.36.23.41.41,0,0,1-.22,0h-.24a.46.46,0,0,0-.2.05.36.36,0,0,0-.16.21,1.59,1.59,0,0,0-.36.32l-.29.38a2.11,2.11,0,0,1-.31.36,1.13,1.13,0,0,1-.46.24,5.61,5.61,0,0,1-.5.9c-.19.28-.37.57-.54.85a5.24,5.24,0,0,0-.4.91,2.63,2.63,0,0,0-.11,1c.11.12.22.24.31.36l.3.39a2.57,2.57,0,0,0,.33.33,1.16,1.16,0,0,0,.42.2h.31a.44.44,0,0,0,.31-.17,1.21,1.21,0,0,0,.2-.33c.06-.13.11-.25.16-.38a1.87,1.87,0,0,1,.15-.32,1.32,1.32,0,0,0,.41-.37,2.09,2.09,0,0,0,.25-.44,3.41,3.41,0,0,0,.18-.48,3.12,3.12,0,0,1,.23-.49l-.1-.11.33-.37c-.13-.16-.18-.29-.14-.39a.73.73,0,0,1,.2-.26,1.33,1.33,0,0,0,.27-.26.35.35,0,0,0,0-.39.36.36,0,0,0,.27-.15.48.48,0,0,0,.06-.24,1.4,1.4,0,0,0,0-.29.93.93,0,0,1-.05-.29.56.56,0,0,1,.08-.27.38.38,0,0,0,.24-.62.83.83,0,0,1,.2-.32,2.37,2.37,0,0,1,.27-.28A.53.53,0,0,0,63.46,257.31Zm2.88-12.48a.34.34,0,0,0-.25.2,1,1,0,0,0-.09.33,2,2,0,0,0,0,.35.64.64,0,0,1-.07.28.19.19,0,0,1-.19.1.85.85,0,0,1-.42-.19.42.42,0,0,1-.3-.17,1.2,1.2,0,0,1-.13-.28,3,3,0,0,1-.07-.32,1.18,1.18,0,0,0-.1-.3l.83-1a1.57,1.57,0,0,1,.31.18,1,1,0,0,1,.19.23l.15.27A3.09,3.09,0,0,0,66.34,244.83Z"/><path class="cls-5" d="M79.39,249.09a.4.4,0,0,1,0,.37.9.9,0,0,1-.27.28,2.71,2.71,0,0,1-.37.21,1.85,1.85,0,0,0-.33.21,8,8,0,0,1-1.19.21l-1.18.17a.73.73,0,0,1-.36,0H75a.55.55,0,0,0-.44.23,2.75,2.75,0,0,0-.17.45,2.56,2.56,0,0,1-.16.49.55.55,0,0,1-.4.31.15.15,0,0,0,0,.13l.08.11a.48.48,0,0,0-.33.26c0,.13-.1.25-.14.38a.76.76,0,0,1-.17.32c-.07.09-.21.12-.41.09a3.55,3.55,0,0,1-1.07.78,4,4,0,0,1-1.28.39l-.22-.14-.22-.16-.24-.12a.66.66,0,0,0-.28,0,1.44,1.44,0,0,0-.13-.57,2.26,2.26,0,0,0-.28-.5,1,1,0,0,1,.06-.49l.2-.45a2.2,2.2,0,0,0,.17-.45.92.92,0,0,0,0-.52.37.37,0,0,0,.19-.2.85.85,0,0,0,.08-.24,1.05,1.05,0,0,1,.06-.24.46.46,0,0,1,.21-.18.53.53,0,0,1,0-.52,2.28,2.28,0,0,1,.38-.3l.41-.29a.52.52,0,0,0,.15-.49.9.9,0,0,1,.2-.14l.23-.11.21-.11a.7.7,0,0,0,.19-.16.18.18,0,0,1-.1-.15v-.16l.07-.16a.19.19,0,0,0,0-.18,1,1,0,0,0,.7-.11l.57-.34a2.27,2.27,0,0,1,.55-.25.86.86,0,0,1,.64.17.44.44,0,0,0,.1.3c.1.13.08.27.13.41s.08.27.12.39.06.19.08.28v1.17a1.89,1.89,0,0,0,.85.3,1.27,1.27,0,0,0,.85-.19.27.27,0,0,0,.3.08,1.64,1.64,0,0,0,.29-.16.66.66,0,0,1,.28-.09q.15,0,.3.24a1,1,0,0,1,.42-.24,1.82,1.82,0,0,1,.46-.06h.46A.77.77,0,0,0,79.39,249.09Zm-5.72,1.42a.84.84,0,0,1-.51-.14c-.14-.09-.28-.2-.42-.31s-.29-.23-.44-.33a1.28,1.28,0,0,0-.55-.18,1.88,1.88,0,0,1-.31.32l-.31.33a1.2,1.2,0,0,0-.18.38.76.76,0,0,0,.07.47,1,1,0,0,0-.46.46,2.62,2.62,0,0,0-.15.66,2.38,2.38,0,0,1-.07.7,1.37,1.37,0,0,1-.19.63l.32-.22a.45.45,0,0,1,.1.09.15.15,0,0,1,0,.13.81.81,0,0,1,.26-.18l.3-.11.31-.06.3-.09c.24.14.42.17.52.09a.85.85,0,0,0,.27-.35l.22-.49a.56.56,0,0,1,.38-.32l-.1-.1a4.83,4.83,0,0,0,.44-.64A1.25,1.25,0,0,0,73.67,250.51Zm.1-1.17a1.58,1.58,0,0,1,.07-.47,3.89,3.89,0,0,0,.12-.49.9.9,0,0,0,0-.46.7.7,0,0,0-.28-.4.78.78,0,0,0-.27.24l-.2.31a1.2,1.2,0,0,1-.24.26.39.39,0,0,1-.36.06.28.28,0,0,0,0,.28.87.87,0,0,0,.17.21c.07.07.14.13.2.2a.28.28,0,0,1,.07.26.35.35,0,0,0,.16.08.38.38,0,0,0,.21,0,.37.37,0,0,0,.21,0A.18.18,0,0,0,73.77,249.34Z"/><path class="cls-5" d="M84.33,251.11a1.19,1.19,0,0,1,0,.46.8.8,0,0,1-.15.21c-.06.07-.11.15-.16.22a.65.65,0,0,0-.06.33,4,4,0,0,1-.55.54,2.14,2.14,0,0,1-.39.28l-.43.24c-.15.09-.37.22-.64.41h-.1a.25.25,0,0,1-.16.26.53.53,0,0,1-.25,0h-.27c-.09,0-.16.1-.22.24a1,1,0,0,1-.42.06H79.8a.88.88,0,0,0-.23,0,.25.25,0,0,0-.12.08l-.14.11a.2.2,0,0,1-.15,0,.36.36,0,0,1-.13-.13.58.58,0,0,1-.32,0,.76.76,0,0,1-.28-.15.91.91,0,0,1-.24-.24l-.22-.25c0-.05-.1-.11-.16-.16l-.16-.15a.88.88,0,0,1-.23-.41,2.09,2.09,0,0,1-.09-.51,4.68,4.68,0,0,1,0-.53,4.3,4.3,0,0,1,.09-.47.58.58,0,0,0,.18-.3,1.89,1.89,0,0,0,.09-.34l.09-.35a.92.92,0,0,1,.18-.3A1.38,1.38,0,0,1,78,250a1.34,1.34,0,0,1,.17-.31l.25-.27a2,2,0,0,0,.26-.24h.23a.81.81,0,0,1,.22,0,.38.38,0,0,1,.18.09.45.45,0,0,1,.12.21.77.77,0,0,1,0,.63,4.1,4.1,0,0,1-.35.47,2.26,2.26,0,0,0-.31.45.74.74,0,0,0,.06.6.24.24,0,0,0-.21.09.8.8,0,0,0-.07.2,1,1,0,0,1-.07.21.2.2,0,0,1-.17.14.51.51,0,0,1,.09.31V253a.71.71,0,0,0,.14.32c.06.07.18.08.36,0a.56.56,0,0,0,.46.13h.5a.83.83,0,0,1,.35-.14.66.66,0,0,1,.28,0l.28.06a.53.53,0,0,0,.35,0,.29.29,0,0,1,.21-.29,1.35,1.35,0,0,1,.29-.05.66.66,0,0,0,.27-.06c.08,0,.14-.12.17-.29a.46.46,0,0,1,.28-.17h.33a.66.66,0,0,0,.3-.12.55.55,0,0,0,.2-.38c.17-.12.29-.22.36-.28l.18-.16.2-.13Zm-2.84-6.56a.4.4,0,0,0-.29.31,2.94,2.94,0,0,0,0,.42,1.41,1.41,0,0,1,0,.41c0,.13-.12.21-.29.25a1.64,1.64,0,0,0-.26-.33l-.3-.31a1.24,1.24,0,0,1-.23-.32.78.78,0,0,1-.06-.43l.73-.85a1.25,1.25,0,0,1,.28.15,1.12,1.12,0,0,1,.18.2l.13.24Z"/><path class="cls-5" d="M94.13,249.21l-.2.2-.11.14-.12.14-.2.22c-.08.08-.15.17-.22.25a1.31,1.31,0,0,1-.23.24.32.32,0,0,0-.27,0,1.12,1.12,0,0,0-.18.2l-.15.2a.14.14,0,0,1-.17.08,4.47,4.47,0,0,1-.7.33,2.57,2.57,0,0,0-.67.41l-.12-.12-1.52.73-.15.09-.15.1a4,4,0,0,1-.66.31c-.23.1-.46.18-.68.26l-.19.06c.07.2.07.33,0,.41a.61.61,0,0,1-.34.17,2.65,2.65,0,0,1-.48.07,1,1,0,0,0-.41.1,2.16,2.16,0,0,0-.36,0,2.41,2.41,0,0,0-.38,0h-.38a1.21,1.21,0,0,1-.38,0h0a.54.54,0,0,1-.43,0,1,1,0,0,1-.33-.22,1.68,1.68,0,0,1-.27-.37,4.4,4.4,0,0,0-.26-.39,2.7,2.7,0,0,1-.22-.33A3.38,3.38,0,0,1,83,252a1.46,1.46,0,0,1-.12-.51.64.64,0,0,1,.11-.44,1.44,1.44,0,0,0,.21-.41,1.29,1.29,0,0,0,.08-.52.6.6,0,0,0,0-.19v-.19h.33a.16.16,0,0,0,.13-.06.28.28,0,0,0,0-.18.13.13,0,0,0,0-.12.16.16,0,0,1-.07-.09l.17-.21.14-.16a.56.56,0,0,0,.09-.19.76.76,0,0,0,0-.3,3.2,3.2,0,0,1,.42-.55,5.47,5.47,0,0,1,.51-.45c.17-.14.35-.29.54-.42l.53-.44a.39.39,0,0,0,.44,0,1.48,1.48,0,0,0,.3-.26,2,2,0,0,1,.27-.22c.08-.06.2,0,.35.07h0a1,1,0,0,1,.8-.35,1.49,1.49,0,0,1,.68.26,1.06,1.06,0,0,1,.38.51.27.27,0,0,1-.12.37h0a.59.59,0,0,1,.16.39.64.64,0,0,1-.12.38c-.08.12-.16.23-.23.35l-.19.39a3.51,3.51,0,0,1-.33.64,1.38,1.38,0,0,1-.49.5q-.27-.06-.36.06a1.11,1.11,0,0,0-.14.29.66.66,0,0,1-.11.24c0,.06-.12,0-.24-.06h0a1,1,0,0,0-.19.27.49.49,0,0,1-.18.22l-.28-.08-.28-.06A.81.81,0,0,1,86,251a.8.8,0,0,1-.3.28,1.57,1.57,0,0,1-.42.18l-.46.16a3.55,3.55,0,0,0-.43.23,1.16,1.16,0,0,0-.31.39.52.52,0,0,0,.36.19h.46a3.53,3.53,0,0,1,.46,0,.72.72,0,0,1,.4.12h0a2.34,2.34,0,0,0,.68-.17l.65-.26.64-.27a4,4,0,0,1,.68-.18.25.25,0,0,0,.2.13.49.49,0,0,0,.24,0h0l.06-.18a.21.21,0,0,1,.08-.19,1.14,1.14,0,0,1,.25-.24,1.83,1.83,0,0,1,.32-.14,2.25,2.25,0,0,1,.36-.06h.38a.56.56,0,0,1,.16-.25.72.72,0,0,1,.2-.09h.24a.41.41,0,0,0,.24-.08.41.41,0,0,0,.44-.06c.11-.1.23-.2.33-.31l.12.15v-.06l.33-.31.22-.18a1.43,1.43,0,0,1,.24-.16l.39-.24.4-.27c.13-.09.26-.18.39-.29a.12.12,0,0,1,.07.11V249a.14.14,0,0,0,0,.09A.09.09,0,0,0,94.13,249.21Zm-6.06-1.83h0a1.13,1.13,0,0,0-.51-.16.81.81,0,0,0-.37.12,1.38,1.38,0,0,0-.31.28,1.72,1.72,0,0,1-.29.31,1.31,1.31,0,0,1-.36.21.72.72,0,0,1-.5,0,3.55,3.55,0,0,1-.08.47,3.53,3.53,0,0,0,0,.46,1,1,0,0,0-.39.25,2.71,2.71,0,0,0-.24.35c-.06.13-.12.26-.17.4a2.52,2.52,0,0,1-.21.4v.08a.12.12,0,0,1,.14,0l.1.1a1.79,1.79,0,0,1,.43-.39,6,6,0,0,1,.56-.3c.19-.09.37-.2.55-.3a1,1,0,0,0,.39-.43,1.1,1.1,0,0,0,.71-.52,5.62,5.62,0,0,0,.39-.82,1,1,0,0,1,.11-.26A1.84,1.84,0,0,0,88.07,247.38Z"/><path class="cls-5" d="M112.48,250.5a6.74,6.74,0,0,1-.59,1.13,2.67,2.67,0,0,1-.58.67,3.52,3.52,0,0,1-.72.49c-.34.2-.68.41-1,.64a2,2,0,0,0-.54.11,1.8,1.8,0,0,0-.5.25,2.52,2.52,0,0,1-.81-.19,1.89,1.89,0,0,1-.69-.47,2,2,0,0,1-.13-.16,1.83,1.83,0,0,0-.13-.16.79.79,0,0,1-.2-.33,2.24,2.24,0,0,1-.08-.39,1.2,1.2,0,0,0-.17-.48c-.08-.1-.23-.05-.46.15l-.13-.12h0l-.21.17-.16.16-.16.17-.17.22-.39.45a1.08,1.08,0,0,1-.49.32l-.07.08a.14.14,0,0,1-.11.06.23.23,0,0,1-.2,0,.44.44,0,0,1-.19-.12.6.6,0,0,0-.29.08l-.23.21-.21.26a.7.7,0,0,1-.21.21.79.79,0,0,0-.43,0l-.39.1a1,1,0,0,1-.38.05.55.55,0,0,1-.38-.23c-.06-.29-.11-.56-.15-.8s-.07-.4-.1-.59a1.93,1.93,0,0,1,0-.34.22.22,0,0,0,.06-.19.81.81,0,0,0,0-.22h0a.33.33,0,0,0,.11-.15.39.39,0,0,1,.11-.15l-.11-.26a.72.72,0,0,1-.06-.29.15.15,0,0,1,.09-.14h.16v-.14a.33.33,0,0,1,0-.14.47.47,0,0,1,.07-.25c0-.08.09-.15.14-.23a1.36,1.36,0,0,0,.13-.24.73.73,0,0,0,.06-.3v-.08a.3.3,0,0,0,.29-.12.66.66,0,0,0,.09-.29v-.32a.29.29,0,0,1,.09-.23.24.24,0,0,1,.11-.06h.12l.12-.15a.23.23,0,0,0,0-.2.23.23,0,0,0,.25-.16l.08-.15a.51.51,0,0,1,.09-.13A.61.61,0,0,1,103,247a1.82,1.82,0,0,1,.43-.24,3.12,3.12,0,0,0,.49-.23.78.78,0,0,0,.36-.47.24.24,0,0,0,.32,0,1.57,1.57,0,0,0,.25-.2.61.61,0,0,1,.26-.15.4.4,0,0,1,.37.2.37.37,0,0,1,.36-.29.93.93,0,0,1,.49.11h0a.48.48,0,0,1,.35.23,1.42,1.42,0,0,1,.2.41,2.89,2.89,0,0,0,.18.44.68.68,0,0,0,.27.35c.06-.25.11-.51.17-.77a2.6,2.6,0,0,1,.27-.75c.08.11.18.13.27.06h0a1,1,0,0,1,.1-.43c.06-.12.12-.25.19-.37a.94.94,0,0,0,.11-.38.67.67,0,0,0-.14-.45.54.54,0,0,0,.36-.27,1.77,1.77,0,0,0,.18-.45,1.81,1.81,0,0,1,.14-.49,1.13,1.13,0,0,1,.26-.43.14.14,0,0,0,0-.09v-.08a.6.6,0,0,1,.08-.21l.17-.17a.75.75,0,0,0,.15-.2.42.42,0,0,0,0-.27,1.54,1.54,0,0,0,.26-.51c.08-.21.17-.41.25-.59a1.27,1.27,0,0,1,.31-.42.43.43,0,0,1,.46,0,.86.86,0,0,1,0,.32.45.45,0,0,1-.16.28l.13.15a5.3,5.3,0,0,1-.17.9q-.12.45-.24.87l.06.06.06.06a4.92,4.92,0,0,0-.41.7c-.1.25-.19.51-.27.76a1.4,1.4,0,0,1-.08.34,1.68,1.68,0,0,1-.09.32,2,2,0,0,1-.18.32,2.59,2.59,0,0,0-.17.33,6.61,6.61,0,0,0-.29.68l-.24.7-.3.83a5,5,0,0,1-.38.81v.23a.28.28,0,0,1-.1.23.56.56,0,0,1-.2.11l-.21.15a.58.58,0,0,0-.14.32h0a.82.82,0,0,1,.07.59c-.06.18-.12.36-.19.53a3.12,3.12,0,0,0-.14.5.64.64,0,0,0,.2.51.62.62,0,0,0,.12.46,1.06,1.06,0,0,0,.31.29,1.31,1.31,0,0,0,.36.21.9.9,0,0,1,.27.24,1.34,1.34,0,0,1,.31-.22l.34-.13.33-.08a1,1,0,0,0,.33-.09,1,1,0,0,0,.53-.25c.1-.1.15-.16.15-.19a.31.31,0,0,1,.15-.27l.32-.08a1.15,1.15,0,0,0,.37-.06.35.35,0,0,0,.27-.22A.34.34,0,0,0,112,251a1.12,1.12,0,0,0,.22-.26,1.45,1.45,0,0,1,.21-.22C112.33,250.42,112.4,250.43,112.48,250.5Zm-6-2.26a.91.91,0,0,1-.32-.4c0-.15-.09-.31-.13-.46a2.54,2.54,0,0,0-.13-.45.74.74,0,0,0-.32-.36h-.34a.52.52,0,0,1,.15.18.17.17,0,0,1,0,.14.77.77,0,0,1-.07.16,1.54,1.54,0,0,0-.08.19h-.12l-.13-.08a.89.89,0,0,1-.58.4l-.71.19.06.13.06.13a1.82,1.82,0,0,0-.64.71c-.13.29-.25.58-.35.87a6,6,0,0,1-.37.86,1.78,1.78,0,0,1-.65.71.77.77,0,0,1,.1.23.27.27,0,0,0,.19.18.91.91,0,0,1,0,.33,1.82,1.82,0,0,1,0,.33,1.82,1.82,0,0,0,0,.33,1,1,0,0,0,0,.34h0a.88.88,0,0,0,.71,0,1.53,1.53,0,0,0,.46-.34c.14-.13.28-.26.43-.38a.89.89,0,0,1,.66-.08l.06-.09v-.27a.58.58,0,0,1,.09-.25l.19-.21.2-.25.18-.28a2.2,2.2,0,0,1,.2-.23.34.34,0,0,1,.31,0l.28-1a.32.32,0,0,1,.14-.14l.22-.13a.31.31,0,0,0,.12-.19.51.51,0,0,0-.17-.31.33.33,0,0,0,0-.14v-.16l.08-.12a.17.17,0,0,1,.14,0Z"/><path class="cls-5" d="M122.13,249.21l-.2.2-.11.14-.12.14-.2.22c-.08.08-.15.17-.22.25a1,1,0,0,1-.23.24.32.32,0,0,0-.27,0,1.12,1.12,0,0,0-.18.2l-.14.2a.16.16,0,0,1-.17.08,4.58,4.58,0,0,1-.71.33,2.57,2.57,0,0,0-.67.41l-.12-.12-1.52.73-.15.09-.14.1a4.49,4.49,0,0,1-.67.31c-.23.1-.46.18-.68.26l-.19.06c.08.2.08.33,0,.41a.61.61,0,0,1-.34.17,2.65,2.65,0,0,1-.48.07,1,1,0,0,0-.41.1,2.16,2.16,0,0,0-.36,0,2.29,2.29,0,0,0-.37,0h-.39a1.21,1.21,0,0,1-.38,0h0a.54.54,0,0,1-.43,0,1,1,0,0,1-.33-.22,1.68,1.68,0,0,1-.27-.37c-.08-.14-.17-.27-.25-.39a2.7,2.7,0,0,1-.22-.33A2.28,2.28,0,0,1,111,252a2.11,2.11,0,0,1-.12-.51.64.64,0,0,1,.11-.44,1.44,1.44,0,0,0,.21-.41,1.29,1.29,0,0,0,.08-.52v-.33h.33a.14.14,0,0,0,.13-.06.28.28,0,0,0,0-.18.13.13,0,0,0,0-.12.22.22,0,0,1-.07-.09l.17-.21A.73.73,0,0,0,112,249a.56.56,0,0,0,.09-.19.76.76,0,0,0,0-.3,2.71,2.71,0,0,1,.41-.55,5.47,5.47,0,0,1,.51-.45c.17-.14.35-.29.54-.42a5.62,5.62,0,0,0,.53-.44.39.39,0,0,0,.44,0,1.06,1.06,0,0,0,.3-.26,2,2,0,0,1,.27-.22c.09-.06.2,0,.35.07h0a1,1,0,0,1,.8-.35,1.33,1.33,0,0,1,.69.26,1,1,0,0,1,.37.51.27.27,0,0,1-.12.37h0a.54.54,0,0,1,.16.39.64.64,0,0,1-.12.38,2.56,2.56,0,0,0-.22.35l-.2.39c-.1.23-.21.44-.32.64a1.33,1.33,0,0,1-.5.5q-.27-.06-.36.06a1.11,1.11,0,0,0-.14.29.64.64,0,0,1-.1.24c0,.06-.13,0-.25-.06h0a.8.8,0,0,0-.18.27.51.51,0,0,1-.19.22l-.28-.08-.27-.06a.82.82,0,0,1-.12.49.8.8,0,0,1-.3.28,1.57,1.57,0,0,1-.42.18l-.46.16a2.82,2.82,0,0,0-.42.23,1.08,1.08,0,0,0-.32.39.56.56,0,0,0,.37.19h.91a.72.72,0,0,1,.4.12h0a2.33,2.33,0,0,0,.69-.17l.64-.26.64-.27a4.39,4.39,0,0,1,.69-.18.22.22,0,0,0,.19.13.49.49,0,0,0,.24,0h0l.06-.18.09-.19a.72.72,0,0,1,.25-.24,1.23,1.23,0,0,1,.31-.14l.36-.06h.38a.56.56,0,0,1,.16-.25.72.72,0,0,1,.2-.09h.24a.41.41,0,0,0,.24-.08.41.41,0,0,0,.44-.06l.34-.31.11.15v-.06l.33-.31.21-.18.24-.16.39-.24.4-.27c.13-.09.26-.18.39-.29a.12.12,0,0,1,.07.11h0v.09A.66.66,0,0,0,122.13,249.21Zm-6.06-1.83h0a1.13,1.13,0,0,0-.51-.16.81.81,0,0,0-.37.12,1.67,1.67,0,0,0-.31.28,1.72,1.72,0,0,1-.29.31,1.31,1.31,0,0,1-.36.21.72.72,0,0,1-.5,0,3.55,3.55,0,0,1-.08.47,3.53,3.53,0,0,0,0,.46,1,1,0,0,0-.39.25,1.92,1.92,0,0,0-.23.35,3.52,3.52,0,0,0-.18.4,1.39,1.39,0,0,1-.21.4l.06.08h.13l.1.1a1.79,1.79,0,0,1,.43-.39,6,6,0,0,1,.56-.3c.19-.09.37-.2.55-.3a1,1,0,0,0,.39-.43,1,1,0,0,0,.71-.52,5.62,5.62,0,0,0,.39-.82,1,1,0,0,1,.11-.26A1,1,0,0,0,116.07,247.38Z"/><path class="cls-5" d="M140.13,248.07a1.45,1.45,0,0,1-.24.57,2,2,0,0,1-.44.47,2.4,2.4,0,0,1-.55.34,2.57,2.57,0,0,1-.59.2,4.56,4.56,0,0,1-.81.28,3.19,3.19,0,0,1-.75.13,5.34,5.34,0,0,1-.8,0H135a.42.42,0,0,0-.18.14.46.46,0,0,0-.06.23v.24a.81.81,0,0,1,0,.22.26.26,0,0,0-.22.09.65.65,0,0,1-.15.18.74.74,0,0,1-.09.46,1.2,1.2,0,0,1-.24.26l-.31.24a1.09,1.09,0,0,0-.28.36.37.37,0,0,0-.07.16v.2a.28.28,0,0,1-.2.25l-.31.07a1,1,0,0,0-.29.08.38.38,0,0,0-.15.32,2.12,2.12,0,0,0-.63.29l-.62.38a2.34,2.34,0,0,1-.62.29,1.1,1.1,0,0,1-.67,0l-.19-.09a.44.44,0,0,1-.19-.12l-.08-.11-.08-.11a1.79,1.79,0,0,1-.22-.51,3.45,3.45,0,0,1-.1-.56,5.61,5.61,0,0,1,0-.58v-.56a.12.12,0,0,0,.14,0l.1-.1-.13-.36a.14.14,0,0,0,.15,0,.32.32,0,0,0,.1-.1c-.14-.08-.22-.16-.22-.24a.53.53,0,0,1,.06-.27l.18-.28a.47.47,0,0,0,.11-.31,5.31,5.31,0,0,1,.08-.67,2.36,2.36,0,0,1,.16-.62c.06-.21.12-.41.19-.61a4.42,4.42,0,0,0,.17-.65.73.73,0,0,0,.46-.23L131,247a1,1,0,0,1,.43-.22.67.67,0,0,1,.52.22,1.2,1.2,0,0,1,0,.65,3.68,3.68,0,0,1-.26.57c-.09.19-.18.38-.25.57a1.16,1.16,0,0,0,0,.64,1.27,1.27,0,0,0-.72.72,3.92,3.92,0,0,0-.23,1,.9.9,0,0,1,0,.35,1.22,1.22,0,0,1-.1.34.55.55,0,0,1,0,.4,1.34,1.34,0,0,1-.11.39,1,1,0,0,0,0,.35.45.45,0,0,0,.24.31,4.65,4.65,0,0,0,1.65-.82,6,6,0,0,0,1.26-1.35q.33-.45.6-.9a4.25,4.25,0,0,0,.44-.91,4.17,4.17,0,0,0,.24-1,3.34,3.34,0,0,0-.06-1.09.34.34,0,0,0,.26-.15l.24-.22a.37.37,0,0,1,.23-.1c.08,0,.16.07.25.22s.22.15.23.24a.71.71,0,0,1-.05.29,1.57,1.57,0,0,1-.08.29.28.28,0,0,0,.14.28l-.11.12-.1.22a.31.31,0,0,1-.07.24.38.38,0,0,0,0,.15q.13.24.3.24a.42.42,0,0,0,.16,0l.36-.08a.46.46,0,0,1,.35.14l.65-.09.57-.11.56-.14c.19-.06.4-.11.65-.17a1.06,1.06,0,0,1,.43-.32A5.52,5.52,0,0,1,140.13,248.07Z"/><path class="cls-5" d="M147.75,249.09a.4.4,0,0,1,0,.37.9.9,0,0,1-.27.28,2.12,2.12,0,0,1-.36.21,1.15,1.15,0,0,0-.33.21,8.14,8.14,0,0,1-1.2.21l-1.18.17a.73.73,0,0,1-.36,0h-.71a.55.55,0,0,0-.44.23,2.69,2.69,0,0,0-.16.45,2.58,2.58,0,0,1-.17.49.51.51,0,0,1-.4.31.15.15,0,0,0,0,.13l.08.11a.48.48,0,0,0-.33.26c0,.13-.09.26-.13.38a.9.9,0,0,1-.17.32.43.43,0,0,1-.42.09,3.43,3.43,0,0,1-1.07.78,4.07,4.07,0,0,1-1.27.39l-.23-.14-.22-.16a.9.9,0,0,0-.24-.12.66.66,0,0,0-.28,0,1.44,1.44,0,0,0-.13-.57,2.06,2.06,0,0,0-.28-.5,1,1,0,0,1,.06-.49l.2-.45a2.2,2.2,0,0,0,.17-.45.92.92,0,0,0,0-.52.39.39,0,0,0,.2-.2.84.84,0,0,0,.07-.24,1.09,1.09,0,0,1,.07-.24.39.39,0,0,1,.2-.18.49.49,0,0,1,0-.52,2.2,2.2,0,0,1,.37-.3,2.78,2.78,0,0,0,.41-.29.48.48,0,0,0,.15-.49l.2-.14.23-.11.21-.11a.7.7,0,0,0,.19-.16.14.14,0,0,1-.09-.15.43.43,0,0,1,0-.16.23.23,0,0,1,.07-.16.19.19,0,0,0,0-.18,1,1,0,0,0,.7-.11l.57-.34a2.27,2.27,0,0,1,.55-.25.86.86,0,0,1,.64.17,1.14,1.14,0,0,0,.1.3c.05.13.09.27.13.41s.09.27.13.39a1.86,1.86,0,0,1,.07.28v1.17a1.89,1.89,0,0,0,.85.3,1.27,1.27,0,0,0,.85-.19.28.28,0,0,0,.31.08l.28-.16a.75.75,0,0,1,.29-.09c.09,0,.19.07.29.24a1.1,1.1,0,0,1,.42-.24,1.82,1.82,0,0,1,.46-.06h.46A.92.92,0,0,0,147.75,249.09ZM142,250.51a.84.84,0,0,1-.51-.14c-.14-.09-.28-.2-.42-.31l-.44-.33a1.28,1.28,0,0,0-.55-.18,1.88,1.88,0,0,1-.31.32c-.11.11-.22.22-.31.33a1.46,1.46,0,0,0-.18.38.76.76,0,0,0,.07.47,1,1,0,0,0-.46.46,2.62,2.62,0,0,0-.15.66c0,.23,0,.47-.07.7a1.37,1.37,0,0,1-.19.63l.33-.22a.38.38,0,0,1,.09.09.1.1,0,0,1,0,.13,1,1,0,0,1,.26-.18l.3-.11.31-.06.3-.09c.24.14.42.17.53.09a.92.92,0,0,0,.26-.35l.22-.49a.56.56,0,0,1,.38-.32l-.1-.1a6.07,6.07,0,0,0,.45-.64A1.28,1.28,0,0,0,142,250.51Zm.1-1.17a2.67,2.67,0,0,1,.07-.47,3.89,3.89,0,0,0,.12-.49.9.9,0,0,0,0-.46.7.7,0,0,0-.28-.4.67.67,0,0,0-.26.24l-.21.31a1.2,1.2,0,0,1-.24.26.39.39,0,0,1-.36.06.28.28,0,0,0,0,.28.91.91,0,0,0,.18.21l.19.2a.26.26,0,0,1,.07.26.35.35,0,0,0,.16.08.38.38,0,0,0,.21,0,.41.41,0,0,0,.22,0A.22.22,0,0,0,142.12,249.34Z"/><path class="cls-5" d="M156.08,253h-.44l-.16.06-.23.13a.45.45,0,0,1-.16.24.5.5,0,0,1-.22.13l-.25.1a2.2,2.2,0,0,0-.25.17,2.44,2.44,0,0,1-2-.49l-.18-.17A.91.91,0,0,0,152,253l-.08-.05-.07-.06a.74.74,0,0,1-.12-.36.83.83,0,0,0-.07-.41.69.69,0,0,0-.17-.34.55.55,0,0,0-.43-.12,2.42,2.42,0,0,1-.42.62,3.48,3.48,0,0,1-1.31,1,1.61,1.61,0,0,1-.72.16.82.82,0,0,1-.4.51,1.92,1.92,0,0,1-.61.25.21.21,0,0,1-.11,0h-.11a.41.41,0,0,1-.32-.07l-.22-.19-.22-.19a.57.57,0,0,0-.32-.09l-.32-.75a3.05,3.05,0,0,1-.24-.74.2.2,0,0,0,.14-.19.81.81,0,0,0,0-.22.22.22,0,0,1-.24-.19.41.41,0,0,1,0-.22c0-.08.07-.16.1-.23a.11.11,0,0,0,0-.16s0,0,0,0a5.86,5.86,0,0,1,.52-1.73,3.87,3.87,0,0,1,1.12-1.39.42.42,0,0,1,.06-.43.52.52,0,0,1,.33-.16.82.82,0,0,1,.38.09.62.62,0,0,1,.19.56.21.21,0,0,1-.06.18,3.49,3.49,0,0,1-.26.85c-.12.28-.24.55-.38.81l-.42.79a6.58,6.58,0,0,0-.36.82c-.11.08-.15.16-.11.25a1.1,1.1,0,0,0,.15.26.46.46,0,0,1,.1.24c0,.08-.08.15-.27.22a.33.33,0,0,0,0,.36,1.6,1.6,0,0,1,.22.31h.23a.19.19,0,0,0,.18-.13.27.27,0,0,0,.32,0,1.75,1.75,0,0,0,.29-.18,2.21,2.21,0,0,1,.34-.18.51.51,0,0,1,.42,0,.85.85,0,0,0,.17-.25L149,252a1,1,0,0,1,.19-.23.48.48,0,0,1,.31,0,2,2,0,0,1,.54-.61c.23-.16.46-.32.69-.46a5.5,5.5,0,0,0,.61-.47,1,1,0,0,0,.34-.65,8.91,8.91,0,0,0,.57-1,3.69,3.69,0,0,1,.67-.91.31.31,0,0,1,.14-.18.85.85,0,0,1,.22-.09.49.49,0,0,1,.24,0,.69.69,0,0,1,.2.13,1,1,0,0,1-.06.48l-.21.43a2.75,2.75,0,0,0-.17.45.9.9,0,0,0,.05.54l-.41.21-.36.19a1.25,1.25,0,0,0-.3.26,1,1,0,0,0-.16.43.7.7,0,0,1,.46.36,1.61,1.61,0,0,1,.08.48,4.51,4.51,0,0,0,0,.52.85.85,0,0,0,.38.54l.08.07.09,0a.32.32,0,0,0,.27,0l.22-.09a1,1,0,0,1,.24,0,.42.42,0,0,1,.28.18c.15-.18.29-.18.41,0,.12-.21.23-.34.33-.37h.28a.71.71,0,0,0,.29,0c.1,0,.2-.15.32-.37l.13.13c.06-.15.13-.23.21-.22a1,1,0,0,1,.25,0,.34.34,0,0,0,.2,0c.06,0,.09-.14.09-.35a.46.46,0,0,0,.23-.05l.19-.13.21-.13a.92.92,0,0,1,.28-.05l-.38.92Z"/><path class="cls-5" d="M166.72,250a2.7,2.7,0,0,1-.18.69.9.9,0,0,1-.26.4,1.53,1.53,0,0,1-.38.29,5.75,5.75,0,0,0-.56.41l-.22.16-.21.17c-.24.09-.48.18-.71.29l-.87.39c-.3.14-.59.25-.85.35a1.36,1.36,0,0,1-.66.12.39.39,0,0,1-.3.14h-.73a.63.63,0,0,0-.34.18h0v0a.41.41,0,0,1-.33.2.62.62,0,0,1-.33,0,1.73,1.73,0,0,1-.33-.17l-.33-.15a1,1,0,0,0-.35,0,.81.81,0,0,0-.35.25.44.44,0,0,0-.32-.31,3.44,3.44,0,0,0-.45-.05h-.43a.34.34,0,0,1-.28-.27h0l-.31-.26h0a.83.83,0,0,0-.12.16.62.62,0,0,1-.1.16c-.08.12-.16.23-.25.34a1.07,1.07,0,0,1-.3.3,1.24,1.24,0,0,1-.36.19.72.72,0,0,1-.41,0,1.18,1.18,0,0,1,.2-.65l.38-.58a1.49,1.49,0,0,0,.24-.58.78.78,0,0,0-.25-.64.7.7,0,0,0-.18-.4c-.11-.14-.22-.27-.31-.4a.77.77,0,0,1-.17-.39.49.49,0,0,1,.25-.38.23.23,0,0,1-.17-.1.43.43,0,0,1,0-.16.52.52,0,0,0,.07-.15.54.54,0,0,0,.18,0l.18-.06a.19.19,0,0,1,.15,0,.46.46,0,0,1,.12.14.73.73,0,0,1,.07.19,1.19,1.19,0,0,0,.08.2,2.62,2.62,0,0,0,.29.55,2.68,2.68,0,0,0,.4.48h0l.06-.07.13-.13.13-.12.09-.09.34-.31a2,2,0,0,0,.28-.3.92.92,0,0,0,.19-.35,1.17,1.17,0,0,0,.07-.46,8.37,8.37,0,0,0,.89-.68c.3-.25.59-.49.9-.73a8.56,8.56,0,0,1,.94-.63,3.63,3.63,0,0,1,1.06-.38,1.12,1.12,0,0,0,.31.37l.34.26a1.6,1.6,0,0,1,.31.33,1.28,1.28,0,0,1,.2.52,3,3,0,0,1,0,1.19,8.6,8.6,0,0,1-.32,1.16c-.08.23-.15.47-.21.71a3.22,3.22,0,0,0-.1.75h.11a.61.61,0,0,1,.3-.22,2,2,0,0,1,.34-.06,1.34,1.34,0,0,0,.35-.05.43.43,0,0,0,.28-.21.45.45,0,0,0,.36,0,1.35,1.35,0,0,0,.33-.19l.32-.25A1.35,1.35,0,0,1,165,251v-.12a2.94,2.94,0,0,1,.46-.25l.35-.15a.83.83,0,0,0,.32-.2,2,2,0,0,0,.37-.44.48.48,0,0,1,.17,0A.18.18,0,0,1,166.72,250Zm-5.12-1.45-.15-.05-.15-.07-.25-.13a.45.45,0,0,0-.28,0h0a12.56,12.56,0,0,0-1.38,1.25c-.42.45-.87.9-1.34,1.33l-.13-.14a.43.43,0,0,0-.11.28v.28a1,1,0,0,1,0,.25.41.41,0,0,1-.17.22h0a.39.39,0,0,0,.17.26.45.45,0,0,0,.23,0h.25a.31.31,0,0,1,.19,0,.24.24,0,0,1,.06.09.17.17,0,0,1,0,.1h.32a1,1,0,0,1,.35,0c.12,0,.19.09.21.23l.6-.25a1.1,1.1,0,0,0,.5-.43l.1.11h0a1.5,1.5,0,0,0,.58-.64,3.65,3.65,0,0,0,.32-.93,5.47,5.47,0,0,0,.12-1c0-.18,0-.48,0-.73Z"/><path class="cls-5" d="M184.77,250.79a1,1,0,0,0-.45.4,3.19,3.19,0,0,0-.19.48,2.46,2.46,0,0,1-.16.48.69.69,0,0,1-.4.37.56.56,0,0,1-.28.37l-.45.18a1.65,1.65,0,0,0-.42.21.54.54,0,0,0-.18.46c-.2.1-.41.2-.64.29a3.49,3.49,0,0,1-.72.2,3,3,0,0,1-.74.05,1.65,1.65,0,0,1-.69-.15,2.26,2.26,0,0,1-.42-.26l-.14-.1a.36.36,0,0,1-.14-.11,1.33,1.33,0,0,1-.29-.41,2.72,2.72,0,0,1-.19-.5,4.37,4.37,0,0,1-.12-.52,1.17,1.17,0,0,0-.07-.5l.54-1.47a2.87,2.87,0,0,1-.69-.78,4.28,4.28,0,0,0-.64-.83.65.65,0,0,1-.19.18.2.2,0,0,0-.09.23l.14.13c-.32.36-.64.75-1,1.2a6.64,6.64,0,0,0-.77,1.34.58.58,0,0,0-.45.15,2.08,2.08,0,0,0-.22.38,1.36,1.36,0,0,1-.22.39.44.44,0,0,1-.44.15l-.15.34a3.78,3.78,0,0,1-.17.35,1.6,1.6,0,0,1-.25.27.56.56,0,0,1-.37.11.38.38,0,0,1-.13-.25.61.61,0,0,1,0-.27,1.69,1.69,0,0,1,.12-.28,1.08,1.08,0,0,0,.1-.27,2,2,0,0,1,.42-.77l.62-.69a4.25,4.25,0,0,0,.53-.73,1.45,1.45,0,0,0,.17-.89,1.36,1.36,0,0,0,.39-.08,1.27,1.27,0,0,0,.37-.18.62.62,0,0,0,.26-.27.7.7,0,0,0,.07-.41.19.19,0,0,1-.14-.17.81.81,0,0,1,0-.22,1,1,0,0,0,.52-.36,2.9,2.9,0,0,0,.36-.55l.32-.59a1.81,1.81,0,0,1,.4-.52,2.17,2.17,0,0,0,.41.19,2.56,2.56,0,0,1,.4.22.87.87,0,0,0-.17.33v.66a.67.67,0,0,1-.09.34,2,2,0,0,1,.39.48,1.7,1.7,0,0,0,.41.47.84.84,0,0,1,.4-.14h.45a1.55,1.55,0,0,0,.43,0,.45.45,0,0,0,.33-.24.21.21,0,0,0,.18.06h.23a.74.74,0,0,1,.21,0,.16.16,0,0,1,.1.14.43.43,0,0,1,0,.16l-.06.14v.22a.73.73,0,0,1-.24.33l-.34.25-.31.28a.62.62,0,0,0-.14.39.89.89,0,0,0-.45.34,1.64,1.64,0,0,0-.18.51,2.35,2.35,0,0,1,0,.59,1.68,1.68,0,0,1-.11.55l.14.15.11-.15a.83.83,0,0,0,.49.37,1.52,1.52,0,0,0,.6,0,1.26,1.26,0,0,1,.34-.35,2.18,2.18,0,0,1,.43-.22l.46-.16a2.07,2.07,0,0,0,.47-.18,1.17,1.17,0,0,0,.3-.19l.27-.23c.29-.28.58-.54.87-.81l.87-.8a.13.13,0,0,1,.12.08.67.67,0,0,1,0,.2v.22A1.55,1.55,0,0,0,184.77,250.79Z"/><path class="cls-5" d="M194.89,249.21l-.19.2-.12.14-.12.14-.2.22c-.07.08-.15.16-.22.25a.76.76,0,0,1-.23.24.32.32,0,0,0-.27,0l-.18.2-.14.2a.14.14,0,0,1-.17.08,4.47,4.47,0,0,1-.7.33,2.47,2.47,0,0,0-.68.41l-.12-.12-1.52.73-.15.09a.45.45,0,0,1-.14.1,4.49,4.49,0,0,1-.67.31c-.23.1-.46.18-.68.26l-.19.06c.08.2.08.33,0,.41a.61.61,0,0,1-.34.17,2.65,2.65,0,0,1-.48.07,1,1,0,0,0-.41.1,2.16,2.16,0,0,0-.36,0,2.29,2.29,0,0,0-.37,0h-.38a1.21,1.21,0,0,1-.38,0h0a.56.56,0,0,1-.44,0,1,1,0,0,1-.33-.22,2.51,2.51,0,0,1-.27-.37c-.08-.14-.17-.27-.25-.39a2.7,2.7,0,0,1-.22-.33,2.28,2.28,0,0,1-.23-.47,2.11,2.11,0,0,1-.12-.51.64.64,0,0,1,.11-.44,1.78,1.78,0,0,0,.22-.41,1.49,1.49,0,0,0,.08-.52v-.38h.33a.14.14,0,0,0,.13-.06.43.43,0,0,0,0-.18.12.12,0,0,0,0-.12.15.15,0,0,1-.06-.09l.16-.21a.73.73,0,0,0,.14-.16.56.56,0,0,0,.09-.19.51.51,0,0,0,0-.3,2.71,2.71,0,0,1,.41-.55c.17-.16.33-.31.51-.45l.54-.42c.19-.14.36-.29.53-.44a.41.41,0,0,0,.45,0,1.48,1.48,0,0,0,.3-.26,1.38,1.38,0,0,1,.26-.22c.09-.06.21,0,.35.07h0a1,1,0,0,1,.8-.35,1.33,1.33,0,0,1,.69.26,1,1,0,0,1,.37.51.27.27,0,0,1-.12.37h0a.54.54,0,0,1,.16.39.64.64,0,0,1-.12.38l-.22.35-.2.39c-.1.23-.21.44-.32.64a1.33,1.33,0,0,1-.5.5q-.27-.06-.36.06a1.11,1.11,0,0,0-.14.29.64.64,0,0,1-.1.24c0,.06-.12,0-.25-.06h0a.8.8,0,0,0-.18.27.51.51,0,0,1-.19.22l-.27-.08-.28-.06a.82.82,0,0,1-.12.49.8.8,0,0,1-.3.28,1.57,1.57,0,0,1-.42.18l-.46.16a2.82,2.82,0,0,0-.42.23,1.34,1.34,0,0,0-.32.39.56.56,0,0,0,.37.19h.91a.73.73,0,0,1,.41.12h0a2.34,2.34,0,0,0,.68-.17l.64-.26.65-.27a4,4,0,0,1,.68-.18.23.23,0,0,0,.19.13.53.53,0,0,0,.25,0h0l.06-.18a1.63,1.63,0,0,1,.09-.19.82.82,0,0,1,.25-.24,1.23,1.23,0,0,1,.31-.14,2.25,2.25,0,0,1,.36-.06h.38a.54.54,0,0,1,.15-.25.72.72,0,0,1,.2-.09h.24a.41.41,0,0,0,.24-.08.39.39,0,0,0,.44-.06l.34-.31.11.15.05-.06.33-.31.21-.18.24-.16.39-.24.4-.27c.13-.09.26-.18.39-.29a.12.12,0,0,1,.07.11v.14S194.87,249.19,194.89,249.21Zm-6.06-1.83h0a1.37,1.37,0,0,0-.52-.16,1,1,0,0,0-.37.12,1.67,1.67,0,0,0-.31.28,1.72,1.72,0,0,1-.29.31.88.88,0,0,1-.36.21.72.72,0,0,1-.5,0,1,1,0,0,1-.08.47c-.08.15,0,.3-.05.46a1,1,0,0,0-.39.25,1.92,1.92,0,0,0-.23.35c-.07.13-.12.26-.18.4a1.39,1.39,0,0,1-.21.4l.06.08h.13l.1.1a1.79,1.79,0,0,1,.43-.39c.19-.11.37-.21.56-.3s.37-.2.55-.3a1,1,0,0,0,.4-.43,1.12,1.12,0,0,0,.7-.52,4.11,4.11,0,0,0,.39-.82,1,1,0,0,1,.11-.26A1,1,0,0,0,188.83,247.38Z"/><path class="cls-5" d="M203.36,243.1a.6.6,0,0,1-.45.23,2,2,0,0,1-.49,0,3.69,3.69,0,0,0-.47,0,.52.52,0,0,0-.39.25,1.29,1.29,0,0,0-.48,0,2,2,0,0,0-.52.11l-.52.12a1.87,1.87,0,0,1-.53.05l-.25-.25a.37.37,0,0,1-.29.19.43.43,0,0,1-.36-.08,1,1,0,0,1-.61.19h-.6a1.3,1.3,0,0,0-.55.12,1,1,0,0,0-.43.61c-.09.22-.17.45-.25.68l-.24.68c-.21.58-.43,1.16-.65,1.73s-.46,1.14-.74,1.7a9.84,9.84,0,0,0,0,1.33,11.74,11.74,0,0,0,.13,1.33.77.77,0,0,0,0,.37,1.18,1.18,0,0,0,.09.38,2,2,0,0,0,.18.36,2.32,2.32,0,0,0,.22.3l.26-.25.37.51c.1-.13.21-.26.34-.4a5.33,5.33,0,0,1,.42-.4,3.64,3.64,0,0,1,.46-.3,1.68,1.68,0,0,1,.49-.17,1.37,1.37,0,0,0,.19-.22,1.8,1.8,0,0,1,.19-.2,1,1,0,0,1,.23-.12.76.76,0,0,1,.3,0,3.1,3.1,0,0,0,.83-.66l.74-.81a9,9,0,0,1,.77-.74,2.52,2.52,0,0,1,.94-.47,8.46,8.46,0,0,1-.89,1.65,8,8,0,0,1-1.22,1.43,1.43,1.43,0,0,1-.44.37l-.25.15a1.28,1.28,0,0,1-.25.15c-.26.18-.51.37-.76.57a7.39,7.39,0,0,0-.7.67A.24.24,0,0,0,197,254h-.53a1.89,1.89,0,0,1-.72.33,1.55,1.55,0,0,1-.8,0,1,1,0,0,1-.28-.11l-.26-.13a2.45,2.45,0,0,1-.86-1,2.91,2.91,0,0,1-.31-1.24l-.12-.12a.62.62,0,0,0,.24-.35.73.73,0,0,0,0-.36,2.79,2.79,0,0,0-.07-.38,1.76,1.76,0,0,1-.07-.4.81.81,0,0,1,0-.22v-.2c.08-.32.15-.62.22-.92s.14-.6.22-.9c.2-.74.42-1.48.68-2.2s.53-1.45.81-2.16a3.45,3.45,0,0,0-.46-.12h-1a1.65,1.65,0,0,1-.48-.1.1.1,0,0,1-.1-.06h-.59a.49.49,0,0,1-.24,0,.12.12,0,0,1-.12-.13v-.15a.45.45,0,0,1,.1-.31.57.57,0,0,1,.22-.11h.29a.57.57,0,0,0,.31-.1,4.94,4.94,0,0,0,.77.12,2.81,2.81,0,0,0,.71,0,2,2,0,0,0,.68-.19,2.4,2.4,0,0,0,.65-.44,3.83,3.83,0,0,0,.35-1c.08-.34.17-.67.27-1a4.87,4.87,0,0,1,.41-.94,2,2,0,0,1,.76-.72.94.94,0,0,1,.41,0l.35.2a3.31,3.31,0,0,0-.12.42l-.09.44a1.33,1.33,0,0,1-.13.43,1.11,1.11,0,0,1-.22.38.23.23,0,0,1,.22.17.28.28,0,0,1,0,.22,2,2,0,0,1-.14.25.7.7,0,0,0-.11.23.42.42,0,0,0-.27.21,1.06,1.06,0,0,1-.22.29.38.38,0,0,0,0,.43l.29.33a.42.42,0,0,0,.27,0l.24-.08h.21a.27.27,0,0,1,.19.11.44.44,0,0,1,.29-.14l.3.08a.71.71,0,0,0,.29,0c.1,0,.19-.08.28-.23a.62.62,0,0,1,.33,0l.28.11a1.39,1.39,0,0,0,.26.1.27.27,0,0,0,.26-.05,2,2,0,0,0,.49,0l.54-.06.54-.11L203,242a.67.67,0,0,1,.27.23.37.37,0,0,1,0,.21l-.06.22A.52.52,0,0,0,203.36,243.1Z"/><path class="cls-5" d="M210.36,250.79a1,1,0,0,0-.45.4,2.34,2.34,0,0,0-.18.48,2.48,2.48,0,0,1-.17.48.69.69,0,0,1-.4.37.56.56,0,0,1-.28.37l-.45.18a1.65,1.65,0,0,0-.42.21.54.54,0,0,0-.18.46c-.2.1-.41.2-.64.29a3.49,3.49,0,0,1-.72.2,3,3,0,0,1-.74.05,1.64,1.64,0,0,1-.68-.15,2.73,2.73,0,0,1-.43-.26l-.14-.1a.36.36,0,0,1-.14-.11,2,2,0,0,1-.29-.41,2.72,2.72,0,0,1-.19-.5,4.37,4.37,0,0,1-.12-.52,3.54,3.54,0,0,0-.07-.5l.54-1.47a2.87,2.87,0,0,1-.69-.78,4.28,4.28,0,0,0-.64-.83.47.47,0,0,1-.19.18.2.2,0,0,0-.09.23l.15.13c-.35.39-.69.79-1,1.2a6.64,6.64,0,0,0-.77,1.34.58.58,0,0,0-.45.15,2.08,2.08,0,0,0-.22.38,1.36,1.36,0,0,1-.22.39.44.44,0,0,1-.44.15l-.15.34a1.89,1.89,0,0,1-.17.35.93.93,0,0,1-.25.27.56.56,0,0,1-.37.11.38.38,0,0,1-.13-.25.61.61,0,0,1,0-.27,1.69,1.69,0,0,1,.12-.28.79.79,0,0,0,.1-.27,2,2,0,0,1,.42-.77l.62-.69a4.25,4.25,0,0,0,.53-.73,1.45,1.45,0,0,0,.17-.89,1.36,1.36,0,0,0,.39-.08,1.27,1.27,0,0,0,.37-.18.62.62,0,0,0,.26-.27.63.63,0,0,0,.07-.41.19.19,0,0,1-.14-.17.81.81,0,0,1,0-.22A.94.94,0,0,0,202,248a2.9,2.9,0,0,0,.36-.55c.11-.2.22-.39.32-.59a2,2,0,0,1,.4-.52,2.17,2.17,0,0,0,.41.19,2.56,2.56,0,0,1,.4.22.84.84,0,0,0-.16.33,1.82,1.82,0,0,0,0,.33v.33a.67.67,0,0,1-.09.34,2,2,0,0,1,.39.48,1.7,1.7,0,0,0,.41.47.84.84,0,0,1,.4-.14h.45a1.55,1.55,0,0,0,.43,0,.45.45,0,0,0,.34-.24.19.19,0,0,0,.17.06h.24a.67.67,0,0,1,.2,0,.16.16,0,0,1,.1.14.43.43,0,0,1,0,.16l-.06.14v.22a.73.73,0,0,1-.24.33l-.34.25-.31.28a.56.56,0,0,0-.13.39.88.88,0,0,0-.46.34,1.34,1.34,0,0,0-.17.51c0,.2-.05.4-.06.59a1.68,1.68,0,0,1-.11.55l.14.15.11-.15a.83.83,0,0,0,.49.37,1.52,1.52,0,0,0,.6,0,1.26,1.26,0,0,1,.34-.35,2.18,2.18,0,0,1,.43-.22l.47-.16a2.58,2.58,0,0,0,.46-.18,1.17,1.17,0,0,0,.3-.19l.27-.23.87-.81.87-.8a.13.13,0,0,1,.12.08.67.67,0,0,1,0,.2v.22C210.38,250.61,210.36,250.75,210.36,250.79Z"/><path class="cls-5" d="M219.49,249.09a.43.43,0,0,1-.05.37.73.73,0,0,1-.27.28,2.12,2.12,0,0,1-.36.21,1.85,1.85,0,0,0-.33.21,8.14,8.14,0,0,1-1.2.21l-1.18.17a.69.69,0,0,1-.35,0H215a.52.52,0,0,0-.44.23,2.75,2.75,0,0,0-.17.45,1.41,1.41,0,0,1-.16.49.54.54,0,0,1-.41.31.1.1,0,0,0,0,.13l.08.11a.46.46,0,0,0-.33.26c-.05.13-.1.25-.14.38a.9.9,0,0,1-.17.32q-.1.14-.42.09a3.43,3.43,0,0,1-1.07.78,4.07,4.07,0,0,1-1.27.39l-.23-.14-.22-.16a1,1,0,0,0-.23-.12.71.71,0,0,0-.29,0,1.94,1.94,0,0,0-.12-.57,2.32,2.32,0,0,0-.29-.5.93.93,0,0,1,.07-.49l.19-.45a2.2,2.2,0,0,0,.17-.45.77.77,0,0,0,0-.52.39.39,0,0,0,.2-.2.84.84,0,0,0,.07-.24,2.17,2.17,0,0,1,.07-.24.49.49,0,0,1,.2-.18.53.53,0,0,1,0-.52,2.69,2.69,0,0,1,.37-.3,2.34,2.34,0,0,0,.41-.29.48.48,0,0,0,.15-.49l.2-.14.23-.11.21-.11a.58.58,0,0,0,.19-.16c-.06,0-.1-.1-.09-.15a.43.43,0,0,1,0-.16l.06-.16a.19.19,0,0,0,0-.18,1,1,0,0,0,.7-.11l.57-.34a2.27,2.27,0,0,1,.55-.25.88.88,0,0,1,.65.17l.09.3a1.62,1.62,0,0,0,.13.41c0,.14.09.27.13.39s.05.19.07.28v1.17a1.89,1.89,0,0,0,.85.3,1.27,1.27,0,0,0,.85-.19.28.28,0,0,0,.31.08l.28-.16a.75.75,0,0,1,.29-.09c.1,0,.19.07.29.24a1,1,0,0,1,.43-.24,1.74,1.74,0,0,1,.45-.06h.46A.89.89,0,0,0,219.49,249.09Zm-5.73,1.42a.81.81,0,0,1-.5-.14,3.11,3.11,0,0,1-.43-.31l-.44-.33a1.28,1.28,0,0,0-.55-.18,1.88,1.88,0,0,1-.31.32q-.17.16-.3.33a1.5,1.5,0,0,0-.19.38.76.76,0,0,0,.07.47.92.92,0,0,0-.45.46,3.17,3.17,0,0,0-.16.66l-.06.7a1.5,1.5,0,0,1-.19.63l.32-.22a.26.26,0,0,1,.09.09.1.1,0,0,1,0,.13,1.2,1.2,0,0,1,.26-.18l.3-.11.31-.06.3-.09c.25.14.42.17.53.09a.75.75,0,0,0,.26-.35l.22-.49a.56.56,0,0,1,.38-.32l-.1-.1a4.09,4.09,0,0,0,.45-.64A1.28,1.28,0,0,0,213.76,250.51Zm.1-1.17a1.93,1.93,0,0,1,.08-.47,3.88,3.88,0,0,0,.11-.49,1.19,1.19,0,0,0,0-.46.77.77,0,0,0-.29-.4,1,1,0,0,0-.26.24l-.21.31a1.2,1.2,0,0,1-.24.26.39.39,0,0,1-.36.06.28.28,0,0,0,0,.28.91.91,0,0,0,.18.21l.2.2a.31.31,0,0,1,.06.26.35.35,0,0,0,.16.08.38.38,0,0,0,.21,0,.41.41,0,0,0,.22,0,.16.16,0,0,0,.14-.08Z"/><path class="cls-5" d="M227.82,253h-.44l-.16.06-.23.13a.45.45,0,0,1-.16.24.57.57,0,0,1-.21.13l-.26.1a2.2,2.2,0,0,0-.25.17,2.37,2.37,0,0,1-2-.49,1,1,0,0,1-.19-.17.93.93,0,0,0-.18-.16l-.08,0-.07-.06a.74.74,0,0,1-.12-.36,2.07,2.07,0,0,0-.07-.41.76.76,0,0,0-.16-.34.57.57,0,0,0-.44-.12,2.39,2.39,0,0,1-.41.62,3.59,3.59,0,0,1-.61.56,3,3,0,0,1-.71.41,1.57,1.57,0,0,1-.71.16.87.87,0,0,1-.41.51,2,2,0,0,1-.6.25h-.22a.44.44,0,0,1-.33-.07l-.22-.19-.22-.19a.57.57,0,0,0-.32-.09c-.1-.25-.21-.5-.32-.75a2.66,2.66,0,0,1-.23-.74.22.22,0,0,0,.14-.19v-.22a.23.23,0,0,1-.24-.19.81.81,0,0,1,0-.22c0-.08.07-.16.11-.23a.14.14,0,0,0-.05-.18,5.3,5.3,0,0,1,.51-1.73,3.72,3.72,0,0,1,1.13-1.39.42.42,0,0,1,0-.43.52.52,0,0,1,.33-.16.75.75,0,0,1,.39.09.39.39,0,0,1,.18.35.37.37,0,0,1,0,.21,1.21,1.21,0,0,0-.05.18,4,4,0,0,1-.27.85c-.12.28-.24.55-.38.81l-.42.79a6.58,6.58,0,0,0-.36.82c-.11.08-.15.16-.11.25a1.1,1.1,0,0,0,.15.26.46.46,0,0,1,.1.24c0,.08-.08.15-.27.22a.32.32,0,0,0,.05.36c.08.1.15.21.22.31H219a.23.23,0,0,0,.19-.13.25.25,0,0,0,.31,0,1.75,1.75,0,0,0,.29-.18,2.21,2.21,0,0,1,.34-.18.51.51,0,0,1,.42,0,.74.74,0,0,0,.17-.25c0-.09.09-.18.14-.27a1.3,1.3,0,0,1,.18-.23.48.48,0,0,1,.31-.05,1.78,1.78,0,0,1,.55-.61c.22-.16.45-.32.68-.46a4,4,0,0,0,.61-.47,1.1,1.1,0,0,0,.35-.65c.18-.29.37-.62.56-1a3.69,3.69,0,0,1,.67-.91.49.49,0,0,1,.14-.18.85.85,0,0,1,.22-.09.49.49,0,0,1,.24,0,.58.58,0,0,1,.2.13,1,1,0,0,1-.06.48c-.07.15-.13.29-.21.43a2.75,2.75,0,0,0-.17.45,1,1,0,0,0,0,.54,3.17,3.17,0,0,1-.41.21l-.36.19a1.2,1.2,0,0,0-.29.26,1,1,0,0,0-.17.43.74.74,0,0,1,.47.36,1.59,1.59,0,0,1,.07.48,4.51,4.51,0,0,0,0,.52.8.8,0,0,0,.37.54l.08.07.1.05a.39.39,0,0,0,.26,0l.23-.09a.41.41,0,0,1,.52.14c.14-.18.28-.18.41,0,.11-.21.22-.34.32-.37a1.31,1.31,0,0,1,.28,0,.71.71,0,0,0,.29,0c.1,0,.2-.15.32-.37l.13.13c.06-.15.13-.23.22-.22a1,1,0,0,1,.24,0,.34.34,0,0,0,.2,0c.06,0,.09-.14.09-.35a.46.46,0,0,0,.23-.05l.19-.13.21-.13a.92.92,0,0,1,.28-.05l-.38.92Z"/><path class="cls-5" d="M239.4,248.07a1.28,1.28,0,0,1-.25.57,2,2,0,0,1-.44.47,2.69,2.69,0,0,1-1.13.54,4.56,4.56,0,0,1-.81.28,3.27,3.27,0,0,1-.76.13,5.21,5.21,0,0,1-.79,0h-.92a.42.42,0,0,0-.18.14.46.46,0,0,0-.06.23,1,1,0,0,0,0,.24.81.81,0,0,1,0,.22.27.27,0,0,0-.21.09.65.65,0,0,1-.15.18.74.74,0,0,1-.09.46,1.2,1.2,0,0,1-.24.26l-.31.24a1.12,1.12,0,0,0-.29.36,1.11,1.11,0,0,0-.07.16v.2a.28.28,0,0,1-.2.25l-.32.07a1.38,1.38,0,0,0-.29.08c-.09,0-.13.15-.14.32a2.12,2.12,0,0,0-.63.29l-.62.38a2.34,2.34,0,0,1-.62.29,1.1,1.1,0,0,1-.67,0l-.2-.09a.71.71,0,0,1-.18-.12.31.31,0,0,1-.08-.11l-.08-.11a1.68,1.68,0,0,1-.22-.51,3.45,3.45,0,0,1-.1-.56,5.61,5.61,0,0,1,0-.58v-.56a.12.12,0,0,0,.14,0l.11-.1-.13-.36a.14.14,0,0,0,.15,0,.32.32,0,0,0,.1-.1c-.15-.08-.22-.16-.23-.24a.68.68,0,0,1,.07-.27l.18-.28a.47.47,0,0,0,.11-.31,5.31,5.31,0,0,1,.08-.67l.15-.62c.06-.2.13-.41.2-.61a5.59,5.59,0,0,0,.17-.65.73.73,0,0,0,.46-.23c.13-.13.27-.25.41-.37a1,1,0,0,1,.43-.22.71.71,0,0,1,.52.22,1.29,1.29,0,0,1-.05.65c-.08.19-.16.38-.26.57s-.18.38-.26.57a1.16,1.16,0,0,0,0,.64,1.29,1.29,0,0,0-.73.72,5,5,0,0,0-.23,1v.35a1.22,1.22,0,0,1-.1.34.55.55,0,0,1,0,.4,1.74,1.74,0,0,1-.11.39,1,1,0,0,0,0,.35.45.45,0,0,0,.24.31,4.65,4.65,0,0,0,1.65-.82,6,6,0,0,0,1.26-1.35c.22-.3.41-.6.59-.9a5.13,5.13,0,0,0,.45-.91,3.84,3.84,0,0,0,.18-2.07.35.35,0,0,0,.26-.15l.23-.22a.43.43,0,0,1,.24-.1c.08,0,.16.07.25.22s.22.15.22.24a.48.48,0,0,1,0,.29,1.57,1.57,0,0,1-.08.29.27.27,0,0,0,.13.28l-.1.12-.1.22c0,.09-.06.16-.08.24a.38.38,0,0,0,0,.15c.09.16.18.24.29.24a.78.78,0,0,0,.34,0l.36-.08a.46.46,0,0,1,.34.14l.66-.09.57-.11.55-.14c.19-.06.41-.11.65-.17a1.16,1.16,0,0,1,.44-.32Z"/><path class="cls-5" d="M248,249.21l-.2.2-.12.14a.76.76,0,0,1-.11.14l-.2.22c-.08.08-.15.17-.22.25a1.31,1.31,0,0,1-.23.24.34.34,0,0,0-.28,0,1.63,1.63,0,0,0-.17.2l-.15.2a.14.14,0,0,1-.17.08,4.47,4.47,0,0,1-.7.33,2.57,2.57,0,0,0-.67.41l-.12-.12-1.52.73-.15.09-.15.1a4,4,0,0,1-.66.31c-.23.1-.46.18-.68.26l-.2.06c.08.2.08.33,0,.41a.59.59,0,0,1-.33.17,2.63,2.63,0,0,1-.49.07,1.17,1.17,0,0,0-.41.1,2,2,0,0,0-.35,0,2.41,2.41,0,0,0-.38,0H239a1.21,1.21,0,0,1-.38,0h0a.54.54,0,0,1-.43,0,1,1,0,0,1-.33-.22,1.68,1.68,0,0,1-.27-.37,4.4,4.4,0,0,0-.26-.39,2.7,2.7,0,0,1-.22-.33,2.26,2.26,0,0,1-.22-.47,1.46,1.46,0,0,1-.12-.51.64.64,0,0,1,.11-.44,1.44,1.44,0,0,0,.21-.41,1.49,1.49,0,0,0,.08-.52.6.6,0,0,0,0-.19v-.19h.33a.16.16,0,0,0,.13-.06.23.23,0,0,0,0-.18.21.21,0,0,0,0-.12.16.16,0,0,1-.07-.09l.17-.21.14-.16a.56.56,0,0,0,.09-.19.76.76,0,0,0,0-.3,3.2,3.2,0,0,1,.42-.55,5.47,5.47,0,0,1,.51-.45c.17-.14.35-.29.54-.42a4.47,4.47,0,0,0,.52-.44.41.41,0,0,0,.45,0,1.48,1.48,0,0,0,.3-.26,2,2,0,0,1,.27-.22c.08-.06.2,0,.35.07h0A1,1,0,0,1,242,246a1.33,1.33,0,0,1,.69.26,1.06,1.06,0,0,1,.38.51.27.27,0,0,1-.12.37h0a.59.59,0,0,1,.16.39.64.64,0,0,1-.12.38c-.08.12-.16.23-.23.35s-.13.26-.2.39a3.48,3.48,0,0,1-.32.64,1.27,1.27,0,0,1-.5.5c-.17,0-.29,0-.35.06a1.11,1.11,0,0,0-.14.29.66.66,0,0,1-.11.24c0,.06-.12,0-.25-.06h0a1,1,0,0,0-.19.27.49.49,0,0,1-.18.22l-.28-.08-.28-.06a.93.93,0,0,1-.11.49.8.8,0,0,1-.3.28,1.57,1.57,0,0,1-.42.18l-.46.16a3.55,3.55,0,0,0-.43.23,1.16,1.16,0,0,0-.31.39.52.52,0,0,0,.36.19h.92a.72.72,0,0,1,.4.12h0a2.34,2.34,0,0,0,.68-.17l.65-.26.64-.27a4,4,0,0,1,.68-.18.25.25,0,0,0,.2.13.49.49,0,0,0,.24,0h0l.06-.18a.77.77,0,0,1,.08-.19.82.82,0,0,1,.25-.24,1.3,1.3,0,0,1,.32-.14,2.25,2.25,0,0,1,.36-.06h.38a.64.64,0,0,1,.15-.25l.21-.09h.23a.38.38,0,0,0,.25-.08.41.41,0,0,0,.44-.06l.33-.31.12.15v-.06l.33-.31.22-.18a1,1,0,0,1,.24-.16l.38-.24.41-.27c.13-.09.26-.18.39-.29a.14.14,0,0,1,.07.11V249a.14.14,0,0,0,0,.09.09.09,0,0,0,0,.12A.06.06,0,0,0,248,249.21ZM242,247.38h0a1.27,1.27,0,0,0-.51-.16,1.05,1.05,0,0,0-.38.12,2,2,0,0,0-.3.28,1.77,1.77,0,0,1-.3.31.84.84,0,0,1-.35.21.72.72,0,0,1-.5,0,3.55,3.55,0,0,1-.08.47,3.8,3.8,0,0,0-.05.46,1,1,0,0,0-.39.25,1.56,1.56,0,0,0-.24.35c-.06.13-.12.26-.17.4a1.71,1.71,0,0,1-.22.4l.06.08a.11.11,0,0,1,.13,0l.11.1a1.47,1.47,0,0,1,.43-.39,6,6,0,0,1,.56-.3c.19-.09.37-.2.55-.3a1,1,0,0,0,.39-.43,1,1,0,0,0,.7-.52,4.79,4.79,0,0,0,.4-.82,1,1,0,0,1,.11-.26.69.69,0,0,0,0-.25Z"/><path class="cls-5" d="M256.48,250.79a1,1,0,0,0-.46.4,2.34,2.34,0,0,0-.18.48,1.43,1.43,0,0,1-.16.48.78.78,0,0,1-.41.37.51.51,0,0,1-.28.37l-.45.18a1.65,1.65,0,0,0-.42.21.54.54,0,0,0-.18.46,5.24,5.24,0,0,1-.64.29,3.58,3.58,0,0,1-.71.2,3,3,0,0,1-.74.05,1.65,1.65,0,0,1-.69-.15,2.73,2.73,0,0,1-.43-.26l-.14-.1a.33.33,0,0,1-.13-.11,1.4,1.4,0,0,1-.3-.41,2.72,2.72,0,0,1-.19-.5,4.37,4.37,0,0,1-.12-.52,3.54,3.54,0,0,0-.07-.5l.54-1.47a2.56,2.56,0,0,1-.68-.78,4.66,4.66,0,0,0-.65-.83.47.47,0,0,1-.19.18.2.2,0,0,0-.09.23l.15.13c-.32.36-.65.75-1,1.2a6.6,6.6,0,0,0-.76,1.34.55.55,0,0,0-.46.15,2.08,2.08,0,0,0-.22.38,1.36,1.36,0,0,1-.22.39.44.44,0,0,1-.44.15,1.07,1.07,0,0,1-.14.34,1.92,1.92,0,0,1-.18.35.93.93,0,0,1-.25.27.52.52,0,0,1-.36.11.44.44,0,0,1-.14-.25.61.61,0,0,1,0-.27,1.69,1.69,0,0,1,.12-.28.79.79,0,0,0,.1-.27,2,2,0,0,1,.43-.77l.61-.69a3.9,3.9,0,0,0,.53-.73,1.53,1.53,0,0,0,.18-.89,1.61,1.61,0,0,0,.38-.08.91.91,0,0,0,.37-.18.62.62,0,0,0,.26-.27.58.58,0,0,0,.07-.41.2.2,0,0,1-.13-.17.81.81,0,0,1,0-.22,1,1,0,0,0,.52-.36,4.35,4.35,0,0,0,.36-.55l.31-.59a2,2,0,0,1,.4-.52c.14.07.28.14.41.19a2.56,2.56,0,0,1,.4.22.84.84,0,0,0-.16.33,1.82,1.82,0,0,0,0,.33v.33a.67.67,0,0,1-.09.34,2,2,0,0,1,.4.48,1.33,1.33,0,0,0,.41.47.77.77,0,0,1,.39-.14h.45a1,1,0,0,0,.43,0,.45.45,0,0,0,.34-.24.19.19,0,0,0,.17.06h.24a.67.67,0,0,1,.2,0,.16.16,0,0,1,.11.14.43.43,0,0,1,0,.16v.36a.62.62,0,0,1-.24.33l-.33.25-.31.28a.52.52,0,0,0-.14.39.88.88,0,0,0-.46.34,2,2,0,0,0-.17.51c0,.2-.05.4-.06.59a1.68,1.68,0,0,1-.1.55l.13.15.12-.15a.79.79,0,0,0,.49.37,1.47,1.47,0,0,0,.59,0,1.61,1.61,0,0,1,.34-.35,3.48,3.48,0,0,1,.43-.22l.47-.16a2.58,2.58,0,0,0,.46-.18,1.17,1.17,0,0,0,.3-.19l.27-.23.87-.81.87-.8a.13.13,0,0,1,.12.08.67.67,0,0,1,0,.2.81.81,0,0,1,0,.22Z"/><path class="cls-5" d="M263,252.62l.07.07c-.06.07-.12.15-.19.22a1.58,1.58,0,0,1-.23.22.94.94,0,0,1-.26.14,1.13,1.13,0,0,1-.63-.1.35.35,0,0,1-.14-.32.48.48,0,0,1,.11-.3,1,1,0,0,0,.18-.23v-.06a.43.43,0,0,1,0-.16A.34.34,0,0,0,262,252a.5.5,0,0,1,.21-.34.58.58,0,0,1,.72,0,.49.49,0,0,1,.19.34.25.25,0,0,1,0,.17.87.87,0,0,1-.07.17.39.39,0,0,0,.16.1Zm4.32-11.83a.91.91,0,0,1,0,.33,1.55,1.55,0,0,1-.08.36c0,.12-.06.25-.08.37a1.15,1.15,0,0,0,0,.37l-.23.31.1.07a.5.5,0,0,0-.27.3,2.13,2.13,0,0,0-.1.42,2.59,2.59,0,0,1-.09.42.43.43,0,0,1-.29.28,2.19,2.19,0,0,1-.17.68c-.1.21-.2.43-.31.64l-.13.18-.09.19-.1.29a.86.86,0,0,1-.11.28,1.71,1.71,0,0,1-.17.33c-.07.1-.13.21-.19.31l-.06.16c0,.06-.05.12-.07.17l-.26.5a1.8,1.8,0,0,0-.15.55,1.14,1.14,0,0,0-.32.41c-.07.16-.14.31-.2.47a3.45,3.45,0,0,1-.2.43.9.9,0,0,1-.28.33.37.37,0,0,1-.18-.17,1.43,1.43,0,0,1-.08-.22v-.25a1,1,0,0,0,0-.24.45.45,0,0,0,.26-.28,1.1,1.1,0,0,0,.06-.37V248a.73.73,0,0,1,.09-.35.31.31,0,0,1,.09-.11l.1-.08A1.29,1.29,0,0,0,264,247c.07-.18.14-.37.2-.58s.11-.42.16-.62a3.75,3.75,0,0,1,.19-.53l.32-.32-.1-.09a2,2,0,0,0,.23-.44l.18-.44a2.49,2.49,0,0,1,.22-.43,1.3,1.3,0,0,1,.35-.35,1.47,1.47,0,0,1,0-.59,1.69,1.69,0,0,1,.18-.52,3.56,3.56,0,0,1,.31-.48,4.41,4.41,0,0,0,.36-.49.48.48,0,0,1,.12-.48.28.28,0,0,0,.18,0h.32a.71.71,0,0,1,.05.15Z"/></g></g></g></g></svg>